<svg version="1.1" viewBox="0.0 0.0 960.0 720.0" fill="none" stroke="none" stroke-linecap="square" stroke-miterlimit="10" xmlns:xlink="http://www.w3.org/1999/xlink" xmlns="http://www.w3.org/2000/svg"><clipPath id="p.0"><path d="m0 0l960.0 0l0 720.0l-960.0 0l0 -720.0z" clip-rule="nonzero"/></clipPath><g clip-path="url(#p.0)"><path fill="#000000" fill-opacity="0.0" d="m0 0l960.0 0l0 720.0l-960.0 0z" fill-rule="evenodd"/><path fill="#d9d9d9" d="m275.87665 151.1811l424.0315 0l0 417.63782l-424.0315 0z" fill-rule="evenodd"/><path fill="#e0e0e0" d="m206.27034 81.57481l563.24414 0l-69.60632 69.6063l-424.0315 0z" fill-rule="evenodd"/><path fill="#adadad" d="m206.27034 638.4252l69.60631 -69.60626l424.0315 0l69.60632 69.60626z" fill-rule="evenodd"/><path fill="#e8e8e8" d="m206.27034 81.57481l69.60631 69.6063l0 417.63782l-69.60631 69.60626z" fill-rule="evenodd"/><path fill="#828282" d="m769.51447 81.57481l0 556.85034l-69.60632 -69.60626l0 -417.63782z" fill-rule="evenodd"/><path fill="#000000" fill-opacity="0.0" d="m206.27034 81.57481l563.24414 0l0 556.85034l-563.24414 0zm69.60631 69.6063l424.0315 0l0 417.63782l-424.0315 0zm-69.60631 -69.6063l69.60631 69.6063m-69.60631 487.24408l69.60631 -69.60626m493.63782 -487.2441l-69.60632 69.6063m69.60632 487.24408l-69.60632 -69.60626" fill-rule="evenodd"/><path stroke="#000000" stroke-width="3.0" stroke-linejoin="round" stroke-linecap="butt" d="m206.27034 81.57481l563.24414 0l0 556.85034l-563.24414 0zm69.60631 69.6063l424.0315 0l0 417.63782l-424.0315 0zm-69.60631 -69.6063l69.60631 69.6063m-69.60631 487.24408l69.60631 -69.60626m493.63782 -487.2441l-69.60632 69.6063m69.60632 487.24408l-69.60632 -69.60626" fill-rule="evenodd"/><path fill="#434343" d="m124.90026 0l725.98425 0l0 720.0l-725.98425 0zm80.481606 80.4816l0 559.03674l565.021 0l0 -559.03674z" fill-rule="evenodd"/><path fill="#434343" d="m124.90026 0l326.2362 0l-108.74432 108.744316l-108.747574 0l0 108.74758l-108.744316 108.74431z" fill-rule="evenodd"/><path fill="#434343" d="m850.8845 0l0 326.2362l-108.74432 -108.74431l0 -108.74758l-108.74756 0l-108.74432 -108.744316z" fill-rule="evenodd"/><path fill="#434343" d="m850.8845 720.0l-326.2362 0l108.74432 -108.74432l108.74756 0l0 -108.74759l108.74432 -108.74429z" fill-rule="evenodd"/><path fill="#434343" d="m124.90026 720.0l0 -326.2362l108.744316 108.74429l0 108.74759l108.747574 0l108.74432 108.74432z" fill-rule="evenodd"/><defs><linearGradient id="p.1" gradientUnits="userSpaceOnUse" gradientTransform="matrix(18.601532215394034 18.60153221544023 -18.60153221544023 18.601532215394034 0.0 0.0)" spreadMethod="pad" x1="13.489927986401543" y1="-12.73875330085026" x2="13.489859392736195" y2="5.862778914463496"><stop offset="0.0" stop-color="#ff0000"/><stop offset="0.3" stop-color="#ffff00"/><stop offset="0.45" stop-color="#00ff00"/><stop offset="0.64" stop-color="#00ffff"/><stop offset="0.82" stop-color="#0000ff"/><stop offset="0.99999994" stop-color="#ff00ff"/><stop offset="1.0" stop-color="#737373"/></linearGradient></defs><path fill="url(#p.1)" d="m314.88452 186.9821l93.74573 69.710495l-43.072906 -108.593124l72.507904 91.59831l-13.498138 -116.040955l46.330475 107.243866l16.994812 -115.580795l16.994812 115.580795l46.330444 -107.243866l-13.498108 116.040955l72.50787 -91.59831l-43.072876 108.593124l93.74573 -69.710495l-69.71051 93.74574l108.59314 -43.072906l-91.59833 72.507904l116.040955 -13.498138l-107.243835 46.330475l115.58081 16.994812l-115.58081 16.994812l107.243835 46.330444l-116.040955 -13.498138l91.59833 72.507904l-108.59314 -43.072876l69.71051 93.74573l-93.74573 -69.71048l43.072876 108.59311l-72.50787 -91.59833l13.498108 116.040955l-46.330444 -107.243866l-16.994812 115.58078l-16.994812 -115.58078l-46.330475 107.243866l13.498138 -116.040955l-72.507904 91.59833l43.072906 -108.59311l-93.74573 69.71048l69.71048 -93.74573l-108.59311 43.072876l91.5983 -72.507904l-116.040955 13.498138l107.243866 -46.330444l-115.580795 -16.994812l115.580795 -16.994812l-107.243866 -46.330475l116.040955 13.498138l-91.5983 -72.507904l108.59311 43.072906z" fill-rule="evenodd"/><path stroke="#000000" stroke-width="3.0" stroke-linejoin="round" stroke-linecap="butt" d="m314.88452 186.9821l93.74573 69.710495l-43.072906 -108.593124l72.507904 91.59831l-13.498138 -116.040955l46.330475 107.243866l16.994812 -115.580795l16.994812 115.580795l46.330444 -107.243866l-13.498108 116.040955l72.50787 -91.59831l-43.072876 108.593124l93.74573 -69.710495l-69.71051 93.74574l108.59314 -43.072906l-91.59833 72.507904l116.040955 -13.498138l-107.243835 46.330475l115.58081 16.994812l-115.58081 16.994812l107.243835 46.330444l-116.040955 -13.498138l91.59833 72.507904l-108.59314 -43.072876l69.71051 93.74573l-93.74573 -69.71048l43.072876 108.59311l-72.50787 -91.59833l13.498108 116.040955l-46.330444 -107.243866l-16.994812 115.58078l-16.994812 -115.58078l-46.330475 107.243866l13.498138 -116.040955l-72.507904 91.59833l43.072906 -108.59311l-93.74573 69.71048l69.71048 -93.74573l-108.59311 43.072876l91.5983 -72.507904l-116.040955 13.498138l107.243866 -46.330444l-115.580795 -16.994812l115.580795 -16.994812l-107.243866 -46.330475l116.040955 13.498138l-91.5983 -72.507904l108.59311 43.072906z" fill-rule="evenodd"/><path fill="#434343" d="m406.33334 360.0l0 0c0 -45.043823 36.51523 -81.55905 81.55905 -81.55905l0 0c21.630798 0 42.37567 8.592804 57.67096 23.888092c15.295288 15.295288 23.888062 36.04016 23.888062 57.67096l0 0c0 45.043823 -36.515198 81.55905 -81.55902 81.55905l0 0c-45.043823 0 -81.55905 -36.51523 -81.55905 -81.55905zm126.44052 24.166962c10.672363 -19.820038 7.0803833 -44.293823 -8.837097 -60.211304c-15.917511 -15.91748 -40.391296 -19.509491 -60.211334 -8.837158zm-89.76297 -48.333923l0 0c-10.672333 19.820038 -7.080353 44.293823 8.837158 60.211304c15.91748 15.91748 40.391266 19.509491 60.211273 8.837158z" fill-rule="evenodd"/></g></svg>