<svg version="1.1" viewBox="0.0 0.0 960.0 720.0" fill="none" stroke="none" stroke-linecap="square" stroke-miterlimit="10" xmlns:xlink="http://www.w3.org/1999/xlink" xmlns="http://www.w3.org/2000/svg"><clipPath id="p.0"><path d="m0 0l960.0 0l0 720.0l-960.0 0l0 -720.0z" clip-rule="nonzero"/></clipPath><g clip-path="url(#p.0)"><path fill="#000000" fill-opacity="0.0" d="m0 0l960.0 0l0 720.0l-960.0 0z" fill-rule="evenodd"/><path fill="#d9d9d9" d="m275.87665 151.1811l424.0315 0l0 417.63782l-424.0315 0z" fill-rule="evenodd"/><path fill="#e0e0e0" d="m206.27034 81.57481l563.24414 0l-69.60632 69.6063l-424.0315 0z" fill-rule="evenodd"/><path fill="#adadad" d="m206.27034 638.4252l69.60631 -69.60626l424.0315 0l69.60632 69.60626z" fill-rule="evenodd"/><path fill="#e8e8e8" d="m206.27034 81.57481l69.60631 69.6063l0 417.63782l-69.60631 69.60626z" fill-rule="evenodd"/><path fill="#828282" d="m769.51447 81.57481l0 556.85034l-69.60632 -69.60626l0 -417.63782z" fill-rule="evenodd"/><path fill="#000000" fill-opacity="0.0" d="m206.27034 81.57481l563.24414 0l0 556.85034l-563.24414 0zm69.60631 69.6063l424.0315 0l0 417.63782l-424.0315 0zm-69.60631 -69.6063l69.60631 69.6063m-69.60631 487.24408l69.60631 -69.60626m493.63782 -487.2441l-69.60632 69.6063m69.60632 487.24408l-69.60632 -69.60626" fill-rule="evenodd"/><path stroke="#000000" stroke-width="3.0" stroke-linejoin="round" stroke-linecap="butt" d="m206.27034 81.57481l563.24414 0l0 556.85034l-563.24414 0zm69.60631 69.6063l424.0315 0l0 417.63782l-424.0315 0zm-69.60631 -69.6063l69.60631 69.6063m-69.60631 487.24408l69.60631 -69.60626m493.63782 -487.2441l-69.60632 69.6063m69.60632 487.24408l-69.60632 -69.60626" fill-rule="evenodd"/><path fill="#434343" d="m124.90026 0l725.98425 0l0 720.0l-725.98425 0zm80.481606 80.4816l0 559.03674l565.021 0l0 -559.03674z" fill-rule="evenodd"/><path fill="#434343" d="m124.90026 0l326.2362 0l-108.74432 108.744316l-108.747574 0l0 108.74758l-108.744316 108.74431z" fill-rule="evenodd"/><path fill="#434343" d="m850.8845 0l0 326.2362l-108.74432 -108.74431l0 -108.74758l-108.74756 0l-108.74432 -108.744316z" fill-rule="evenodd"/><path fill="#434343" d="m850.8845 720.0l-326.2362 0l108.74432 -108.74432l108.74756 0l0 -108.74759l108.74432 -108.74429z" fill-rule="evenodd"/><path fill="#434343" d="m124.90026 720.0l0 -326.2362l108.744316 108.74429l0 108.74759l108.747574 0l108.74432 108.74432z" fill-rule="evenodd"/><defs><linearGradient id="p.1" gradientUnits="userSpaceOnUse" gradientTransform="matrix(19.76638756128284 19.76638756105096 -19.76638756105096 19.76638756128284 0.0 0.0)" spreadMethod="pad" x1="11.56464384437997" y1="-13.118292477265776" x2="11.564571957633849" y2="6.648095083886347"><stop offset="0.0" stop-color="#ff0000"/><stop offset="0.3" stop-color="#ffff00"/><stop offset="0.45" stop-color="#00ff00"/><stop offset="0.64" stop-color="#00ffff"/><stop offset="0.82" stop-color="#0000ff"/><stop offset="0.99999994" stop-color="#ff00ff"/><stop offset="1.0" stop-color="#737373"/></linearGradient></defs><path fill="url(#p.1)" d="m292.53674 164.64572l117.48248 93.868835l-60.264526 -137.77371l89.18323 121.07699l-22.551514 -148.67676l54.807953 140.03397l16.696716 -149.44774l16.696716 149.44774l54.807953 -140.03397l-22.551514 148.67676l89.18323 -121.07699l-60.264526 137.77371l117.48248 -93.868835l-93.868835 117.48248l137.77368 -60.264526l-121.076965 89.18323l148.67676 -22.551514l-140.034 54.807953l149.44775 16.696716l-149.44775 16.696716l140.034 54.807922l-148.67676 -22.551514l121.076965 89.18323l-137.77368 -60.264496l93.868835 117.48245l-117.48248 -93.868805l60.264526 137.77371l-89.18323 -121.076996l22.551514 148.67673l-54.807953 -140.03397l-16.696716 149.44778l-16.696716 -149.44778l-54.807953 140.03397l22.551514 -148.67673l-89.18323 121.076996l60.264526 -137.77371l-117.48248 93.868805l93.868835 -117.48245l-137.77371 60.264496l121.076996 -89.18323l-148.67676 22.551514l140.03397 -54.807922l-149.44774 -16.696716l149.44774 -16.696716l-140.03397 -54.807953l148.67676 22.551514l-121.076996 -89.18323l137.77371 60.264526z" fill-rule="evenodd"/><path stroke="#000000" stroke-width="3.0" stroke-linejoin="round" stroke-linecap="butt" d="m292.53674 164.64572l117.48248 93.868835l-60.264526 -137.77371l89.18323 121.07699l-22.551514 -148.67676l54.807953 140.03397l16.696716 -149.44774l16.696716 149.44774l54.807953 -140.03397l-22.551514 148.67676l89.18323 -121.07699l-60.264526 137.77371l117.48248 -93.868835l-93.868835 117.48248l137.77368 -60.264526l-121.076965 89.18323l148.67676 -22.551514l-140.034 54.807953l149.44775 16.696716l-149.44775 16.696716l140.034 54.807922l-148.67676 -22.551514l121.076965 89.18323l-137.77368 -60.264496l93.868835 117.48245l-117.48248 -93.868805l60.264526 137.77371l-89.18323 -121.076996l22.551514 148.67673l-54.807953 -140.03397l-16.696716 149.44778l-16.696716 -149.44778l-54.807953 140.03397l22.551514 -148.67673l-89.18323 121.076996l60.264526 -137.77371l-117.48248 93.868805l93.868835 -117.48245l-137.77371 60.264496l121.076996 -89.18323l-148.67676 22.551514l140.03397 -54.807922l-149.44774 -16.696716l149.44774 -16.696716l-140.03397 -54.807953l148.67676 22.551514l-121.076996 -89.18323l137.77371 60.264526z" fill-rule="evenodd"/><path fill="#434343" d="m487.8924 278.44095l0 0c45.043823 0 81.55902 36.51523 81.55902 81.55905l0 0c0 21.630798 -8.592773 42.37567 -23.888062 57.67096c-15.295288 15.295288 -36.04016 23.888092 -57.67096 23.888092l0 0c-45.043823 0 -81.55905 -36.51523 -81.55905 -81.55905l0 0c0 -45.043823 36.51523 -81.55905 81.55905 -81.55905zm-24.166962 126.44055c19.820038 10.672333 44.293823 7.0803223 60.211334 -8.837158c15.91748 -15.91748 19.50946 -40.391266 8.837097 -60.211304zm48.333893 -89.763l0 0c-19.820007 -10.672333 -44.293793 -7.0803223 -60.211273 8.837158c-15.917511 15.91748 -19.509491 40.391266 -8.837158 60.211304z" fill-rule="evenodd"/></g></svg>