<svg version="1.1" viewBox="0.0 0.0 960.0 720.0" fill="none" stroke="none" stroke-linecap="square" stroke-miterlimit="10" xmlns:xlink="http://www.w3.org/1999/xlink" xmlns="http://www.w3.org/2000/svg"><clipPath id="p.0"><path d="m0 0l960.0 0l0 720.0l-960.0 0l0 -720.0z" clip-rule="nonzero"/></clipPath><g clip-path="url(#p.0)"><path fill="#000000" fill-opacity="0.0" d="m0 0l960.0 0l0 720.0l-960.0 0z" fill-rule="evenodd"/><path fill="#a4a4a4" d="m1.2598425 105.784775l957.48035 0l0 507.77954l-957.48035 0z" fill-rule="evenodd"/><path stroke="#434343" stroke-width="3.0" stroke-linejoin="round" stroke-linecap="butt" d="m1.2598425 105.784775l957.48035 0l0 507.77954l-957.48035 0z" fill-rule="evenodd"/><path fill="#666666" d="m325.86353 260.22046l194.99213 0l0 199.55908l-194.99213 0z" fill-rule="evenodd"/><path fill="#666666" d="m573.3832 290.4259l0 139.1482l-34.788086 34.788116l-435.82605 0l0 0l0 -208.72441l0 0l435.82605 0z" fill-rule="evenodd"/><path fill="#434343" d="m1.5249344 514.6706l0 -309.3412l102.72336 0l25.680847 154.67061l-25.680847 154.6706z" fill-rule="evenodd"/><path fill="#434343" d="m1.2598425 106.11024l77.291336 0l-77.291336 77.29134z" fill-rule="evenodd"/><path fill="#434343" d="m1.2598425 613.8924l0 -77.29132l77.291336 77.29132z" fill-rule="evenodd"/><path fill="#666666" d="m349.57608 464.5072l34.91339 -36.06299l34.91339 36.06299z" fill-rule="evenodd"/><path fill="#666666" d="m419.40286 255.63843l-34.91339 36.06299l-34.91339 -36.06299z" fill-rule="evenodd"/><path fill="#000000" fill-opacity="0.0" d="m1.2598425 103.51706l957.48035 0l0 510.04727l-957.48035 0z" fill-rule="evenodd"/><path stroke="#000000" stroke-width="4.0" stroke-linejoin="round" stroke-linecap="butt" d="m1.2598425 103.51706l957.48035 0l0 510.04727l-957.48035 0z" fill-rule="evenodd"/><path fill="#666666" d="m711.4934 119.154854l208.36212 120.23333l0 240.57272l-208.36212 120.23331l-208.36209 -120.23331l0 -240.57272z" fill-rule="evenodd"/><path fill="#434343" d="m778.703 165.608l44.511353 116.14502l96.6413 78.24826l-96.6413 78.24826l-44.511353 116.14505l-104.23889 -67.78497l-124.15082 -6.466675l32.21808 -120.14166l-32.21808 -120.14166l124.15082 -6.46669z" fill-rule="evenodd"/><path fill="#434343" d="m580.28864 359.9678l0 0c0 -72.962494 59.27466 -132.11024 132.39368 -132.11024l0 0c35.112976 0 68.78784 13.918716 93.616516 38.6942c24.828613 24.775452 38.77722 58.378204 38.77722 93.416046l0 0c0 72.96246 -59.27472 132.11023 -132.39374 132.11023l0 0c-73.11902 0 -132.39368 -59.147766 -132.39368 -132.11023z" fill-rule="evenodd"/><path stroke="#b7b7b7" stroke-width="8.0" stroke-linejoin="round" stroke-linecap="butt" d="m580.28864 359.9678l0 0c0 -72.962494 59.27466 -132.11024 132.39368 -132.11024l0 0c35.112976 0 68.78784 13.918716 93.616516 38.6942c24.828613 24.775452 38.77722 58.378204 38.77722 93.416046l0 0c0 72.96246 -59.27472 132.11023 -132.39374 132.11023l0 0c-73.11902 0 -132.39368 -59.147766 -132.39368 -132.11023z" fill-rule="evenodd"/><path fill="#6fce45" d="m639.0477 359.9795l0 0c0 -40.58206 32.96173 -73.480316 73.62207 -73.480316l0 0c19.525757 0 38.25183 7.7416687 52.058594 21.521881c13.806824 13.780243 21.563416 32.470245 21.563416 51.958435l0 0c0 40.58206 -32.96173 73.480316 -73.62201 73.480316l0 0c-40.66034 0 -73.62207 -32.898254 -73.62207 -73.480316z" fill-rule="evenodd"/><path stroke="#b7b7b7" stroke-width="8.0" stroke-linejoin="round" stroke-linecap="butt" d="m639.0477 359.9795l0 0c0 -40.58206 32.96173 -73.480316 73.62207 -73.480316l0 0c19.525757 0 38.25183 7.7416687 52.058594 21.521881c13.806824 13.780243 21.563416 32.470245 21.563416 51.958435l0 0c0 40.58206 -32.96173 73.480316 -73.62201 73.480316l0 0c-40.66034 0 -73.62207 -32.898254 -73.62207 -73.480316z" fill-rule="evenodd"/></g></svg>