<svg version="1.1" viewBox="0.0 0.0 960.0 720.0" fill="none" stroke="none" stroke-linecap="square" stroke-miterlimit="10" xmlns:xlink="http://www.w3.org/1999/xlink" xmlns="http://www.w3.org/2000/svg"><clipPath id="p.0"><path d="m0 0l960.0 0l0 720.0l-960.0 0l0 -720.0z" clip-rule="nonzero"/></clipPath><g clip-path="url(#p.0)"><path fill="#000000" fill-opacity="0.0" d="m0 0l960.0 0l0 720.0l-960.0 0z" fill-rule="evenodd"/><path fill="#b7b7b7" d="m1.2598425 105.784775l957.48035 0l0 507.77954l-957.48035 0z" fill-rule="evenodd"/><path stroke="#434343" stroke-width="3.0" stroke-linejoin="round" stroke-linecap="butt" d="m1.2598425 105.784775l957.48035 0l0 507.77954l-957.48035 0z" fill-rule="evenodd"/><path fill="#666666" d="m325.86353 260.22046l194.99213 0l0 199.55908l-194.99213 0z" fill-rule="evenodd"/><path fill="#666666" d="m477.4777 263.73254l136.11313 -136.11313l195.80524 0l136.11316 136.11313l0 192.49817l-136.11316 136.1131l-195.80524 0l-136.11313 -136.1131z" fill-rule="evenodd"/><path fill="#666666" d="m500.04462 290.4259l0 139.1482l-34.788086 34.788116l-362.47174 0l0 0l0 -208.72441l0 0l362.47174 0z" fill-rule="evenodd"/><path fill="#999999" d="m133.87273 106.11024l501.22833 0l-250.61417 253.88977l250.61417 253.88977l-501.22833 0l250.61418 -253.88977z" fill-rule="evenodd"/><path fill="#434343" d="m1.5249344 514.6706l0 -309.3412l102.72336 0l25.680847 154.67061l-25.680847 154.6706z" fill-rule="evenodd"/><path fill="#434343" d="m1.2598425 106.11024l77.291336 0l-77.291336 77.29134z" fill-rule="evenodd"/><path fill="#434343" d="m958.7402 106.11024l0 77.29134l-77.29138 -77.29134z" fill-rule="evenodd"/><path fill="#000000" fill-opacity="0.0" d="m1.2598425 104.97638l957.48035 0l0 510.04724l-957.48035 0z" fill-rule="evenodd"/><path stroke="#000000" stroke-width="4.0" stroke-linejoin="round" stroke-linecap="butt" d="m1.2598425 104.97638l957.48035 0l0 510.04724l-957.48035 0z" fill-rule="evenodd"/><path fill="#434343" d="m958.7402 613.56433l-77.29138 0l77.29138 -77.29138z" fill-rule="evenodd"/><path fill="#434343" d="m1.2598425 613.8924l0 -77.29132l77.291336 77.29132z" fill-rule="evenodd"/><path fill="#cccccc" d="m205.03937 613.8924l179.44882 -185.44882l179.44882 185.44882z" fill-rule="evenodd"/><path fill="#cccccc" d="m563.937 105.784775l-179.44882 185.4488l-179.44882 -185.4488z" fill-rule="evenodd"/><path fill="#666666" d="m349.57608 464.5072l34.91339 -36.06299l34.91339 36.06299z" fill-rule="evenodd"/><path fill="#666666" d="m419.40286 255.63843l-34.91339 36.06299l-34.91339 -36.06299z" fill-rule="evenodd"/><path fill="#000000" fill-opacity="0.0" d="m397.5181 359.58002l77.322845 -76.944885l-0.06298828 51.35907l-25.774872 25.648895l25.711884 25.711853l-0.06298828 51.358917z" fill-rule="evenodd"/><path stroke="#6fce45" stroke-width="4.0" stroke-linejoin="round" stroke-linecap="butt" d="m397.5181 359.58002l77.322845 -76.944885l-0.06298828 51.35907l-25.774872 25.648895l25.711884 25.711853l-0.06298828 51.358917z" fill-rule="evenodd"/><path fill="#434343" d="m539.1313 260.4882l108.82489 -10.532959l63.53723 -88.94736l63.537292 88.94736l108.82489 10.532959l-45.287598 99.480316l45.287598 99.480316l-108.82489 10.532959l-63.537292 88.94736l-63.53723 -88.94736l-108.82489 -10.532959l45.287598 -99.480316z" fill-rule="evenodd"/><path fill="#434343" d="m580.28864 359.9678l0 0c0 -72.962494 59.27466 -132.11024 132.39368 -132.11024l0 0c35.112976 0 68.78784 13.918716 93.616516 38.6942c24.828613 24.775452 38.77722 58.378204 38.77722 93.416046l0 0c0 72.96246 -59.27472 132.11023 -132.39374 132.11023l0 0c-73.11902 0 -132.39368 -59.147766 -132.39368 -132.11023z" fill-rule="evenodd"/><path stroke="#b7b7b7" stroke-width="8.0" stroke-linejoin="round" stroke-linecap="butt" d="m580.28864 359.9678l0 0c0 -72.962494 59.27466 -132.11024 132.39368 -132.11024l0 0c35.112976 0 68.78784 13.918716 93.616516 38.6942c24.828613 24.775452 38.77722 58.378204 38.77722 93.416046l0 0c0 72.96246 -59.27472 132.11023 -132.39374 132.11023l0 0c-73.11902 0 -132.39368 -59.147766 -132.39368 -132.11023z" fill-rule="evenodd"/><path fill="#6fce45" d="m639.0477 359.9795l0 0c0 -40.58206 32.96173 -73.480316 73.62207 -73.480316l0 0c19.525757 0 38.25183 7.7416687 52.058594 21.521881c13.806824 13.780243 21.563416 32.470245 21.563416 51.958435l0 0c0 40.58206 -32.96173 73.480316 -73.62201 73.480316l0 0c-40.66034 0 -73.62207 -32.898254 -73.62207 -73.480316z" fill-rule="evenodd"/><path stroke="#b7b7b7" stroke-width="8.0" stroke-linejoin="round" stroke-linecap="butt" d="m639.0477 359.9795l0 0c0 -40.58206 32.96173 -73.480316 73.62207 -73.480316l0 0c19.525757 0 38.25183 7.7416687 52.058594 21.521881c13.806824 13.780243 21.563416 32.470245 21.563416 51.958435l0 0c0 40.58206 -32.96173 73.480316 -73.62201 73.480316l0 0c-40.66034 0 -73.62207 -32.898254 -73.62207 -73.480316z" fill-rule="evenodd"/></g></svg>