<svg version="1.1" viewBox="0.0 0.0 960.0 720.0" fill="none" stroke="none" stroke-linecap="square" stroke-miterlimit="10" xmlns:xlink="http://www.w3.org/1999/xlink" xmlns="http://www.w3.org/2000/svg"><clipPath id="p.0"><path d="m0 0l960.0 0l0 720.0l-960.0 0l0 -720.0z" clip-rule="nonzero"/></clipPath><g clip-path="url(#p.0)"><path fill="#000000" fill-opacity="0.0" d="m0 0l960.0 0l0 720.0l-960.0 0z" fill-rule="evenodd"/><path fill="#bca083" d="m1.2598425 105.784775l957.48035 0l0 507.77954l-957.48035 0z" fill-rule="evenodd"/><path stroke="#434343" stroke-width="3.0" stroke-linejoin="round" stroke-linecap="butt" d="m1.2598425 105.784775l957.48035 0l0 507.77954l-957.48035 0z" fill-rule="evenodd"/><path fill="#666666" d="m325.86353 260.22046l194.99213 0l0 199.55908l-194.99213 0z" fill-rule="evenodd"/><path fill="#434343" d="m1.5249344 514.6706l0 -309.3412l102.72336 0l25.680847 154.67061l-25.680847 154.6706z" fill-rule="evenodd"/><path fill="#000000" fill-opacity="0.0" d="m1.5249344 104.97769l957.4803 0l0 510.04727l-957.4803 0z" fill-rule="evenodd"/><path stroke="#000000" stroke-width="4.0" stroke-linejoin="round" stroke-linecap="butt" d="m1.5249344 104.97769l957.4803 0l0 510.04727l-957.4803 0z" fill-rule="evenodd"/><path fill="#796044" d="m575.392 432.9666l5.8758545 -155.02634l129.26501 -94.03775l155.31586 37.763123l64.411316 141.12738l-74.99829 138.22073l-157.92944 31.229889z" fill-rule="evenodd"/><path fill="#434343" d="m562.8058 290.4259l0 139.1482l-34.788086 34.788116l-425.2434 0l0 0l0 -208.72441l0 0l425.2434 0z" fill-rule="evenodd"/><path fill="#6f6152" d="m350.98425 290.32547l320.41345 0l0 -64.17323l216.49994 128.34645l-216.49994 128.34647l0 -64.17325l-320.41345 0z" fill-rule="evenodd"/><path stroke="#bca083" stroke-width="8.0" stroke-linejoin="round" stroke-linecap="butt" d="m350.98425 290.32547l320.41345 0l0 -64.17323l216.49994 128.34645l-216.49994 128.34647l0 -64.17325l-320.41345 0z" fill-rule="evenodd"/><path fill="#ff0000" d="m716.79004 305.979l83.90552 48.519684l-83.90552 48.519684z" fill-rule="evenodd"/><path stroke="#bca083" stroke-width="8.0" stroke-linejoin="round" stroke-linecap="butt" d="m716.79004 305.979l83.90552 48.519684l-83.90552 48.519684z" fill-rule="evenodd"/><path fill="#796044" d="m-107.83727 354.49738l230.01575 -38.080048l230.01575 38.080048l-230.01575 38.080048z" fill-rule="evenodd"/><path fill="#000000" fill-opacity="0.0" d="m767.8478 352.98557l-875.68506 1.5118103" fill-rule="evenodd"/><path stroke="#ff0000" stroke-width="4.0" stroke-linejoin="round" stroke-linecap="butt" d="m767.8478 352.98557l-875.68506 1.5118103" fill-rule="evenodd"/><path fill="#434343" d="m960.0 105.784775l0 186.86613l-62.288086 -62.288086l0 -62.289963l-62.289978 0l-62.288086 -62.288086z" fill-rule="evenodd"/><path fill="#434343" d="m960.0 613.56433l-186.86615 0l62.288086 -62.288147l62.289978 0l0 -62.289917l62.288086 -62.288116z" fill-rule="evenodd"/><path stroke="#434343" stroke-width="1.0" stroke-linejoin="round" stroke-linecap="butt" d="m960.0 613.56433l-186.86615 0l62.288086 -62.288147l62.289978 0l0 -62.289917l62.288086 -62.288116z" fill-rule="evenodd"/><path fill="#796044" d="m199.92914 500.16403l385.85828 0l56.70862 56.70865l0 56.70868l0 0l-499.27557 0l0 0l0 -56.70868z" fill-rule="evenodd"/><path fill="#796044" d="m585.7874 219.83333l-385.85828 0l-56.708664 -56.708664l0 -56.708656l0 0l499.27557 0l0 0l0 56.708656z" fill-rule="evenodd"/><path fill="#434343" d="m436.10645 118.330505l34.510162 7.8758698l15.358459 31.888107l-15.358459 31.888123l-34.510162 7.8758698l-27.67511 -22.067535l0 -35.3929z" fill-rule="evenodd"/><path fill="#434343" d="m544.4411 118.330505l34.51013 7.8758698l15.358459 31.888107l-15.358459 31.888123l-34.51013 7.8758698l-27.67511 -22.067535l0 -35.3929z" fill-rule="evenodd"/><path fill="#434343" d="m327.12088 118.330505l34.510162 7.8758698l15.358459 31.888107l-15.358459 31.888123l-34.510162 7.8758698l-27.67508 -22.067535l0 -35.3929z" fill-rule="evenodd"/><path fill="#434343" d="m218.134 118.330505l34.510162 7.8758698l15.358459 31.888107l-15.358459 31.888123l-34.510162 7.8758698l-27.675095 -22.067535l0 -35.3929z" fill-rule="evenodd"/><path fill="#434343" d="m544.4411 520.4722l34.51013 7.8758545l15.358459 31.888123l-15.358459 31.888123l-34.51013 7.8758545l-27.67511 -22.067505l0 -35.392883z" fill-rule="evenodd"/><path fill="#434343" d="m436.10776 517.11005l34.510162 7.8758545l15.358459 31.888123l-15.358459 31.888123l-34.510162 7.8758545l-27.67511 -22.067566l0 -35.392883z" fill-rule="evenodd"/><path fill="#434343" d="m218.134 517.11005l34.510162 7.8758545l15.358459 31.888123l-15.358459 31.888123l-34.510162 7.8758545l-27.675095 -22.067566l0 -35.392883z" fill-rule="evenodd"/><path fill="#434343" d="m327.12088 518.1809l34.510162 7.8758545l15.358459 31.888123l-15.358459 31.888123l-34.510162 7.8758545l-27.67508 -22.067505l0 -35.392944z" fill-rule="evenodd"/><path fill="#ff0000" d="m541.39075 343.04117l10.072998 -10.072998l10.700317 10.700317l10.700317 -10.700317l10.072937 10.072998l-10.700317 10.700287l10.700317 10.700317l-10.072937 10.072998l-10.700317 -10.700317l-10.700317 10.700317l-10.072998 -10.072998l10.700317 -10.700317z" fill-rule="evenodd"/><path fill="#ff0000" d="m503.5561 343.79706l10.072998 -10.072968l10.700317 10.700317l10.700317 -10.700317l10.072937 10.072968l-10.700317 10.700317l10.700317 10.700317l-10.072937 10.072968l-10.700317 -10.700317l-10.700317 10.700317l-10.072998 -10.072968l10.700317 -10.700317z" fill-rule="evenodd"/><path fill="#ff0000" d="m467.854 343.04117l10.072968 -10.072998l10.700317 10.700317l10.700317 -10.700317l10.072968 10.072998l-10.700287 10.700287l10.700287 10.700317l-10.072968 10.072998l-10.700317 -10.700317l-10.700317 10.700317l-10.072968 -10.072998l10.700317 -10.700317z" fill-rule="evenodd"/><path fill="#ff0000" d="m430.46686 343.04117l10.072998 -10.072998l10.700287 10.700317l10.700317 -10.700317l10.072998 10.072998l-10.700317 10.700287l10.700317 10.700317l-10.072998 10.072998l-10.700317 -10.700317l-10.700287 10.700317l-10.072998 -10.072998l10.700317 -10.700317z" fill-rule="evenodd"/><path fill="#ff0000" d="m393.34613 343.04117l10.072968 -10.072998l10.700317 10.700317l10.700317 -10.700317l10.072968 10.072998l-10.700287 10.700287l10.700287 10.700317l-10.072968 10.072998l-10.700317 -10.700317l-10.700317 10.700317l-10.072968 -10.072998l10.700317 -10.700317z" fill-rule="evenodd"/><path fill="#ff0000" d="m357.375 343.04248l10.072968 -10.072998l10.700317 10.700317l10.700317 -10.700317l10.072998 10.072998l-10.700317 10.700287l10.700317 10.700317l-10.072998 10.072998l-10.700317 -10.700317l-10.700317 10.700317l-10.072968 -10.072998l10.700317 -10.700317z" fill-rule="evenodd"/></g></svg>