<svg version="1.1" viewBox="0.0 0.0 960.0 720.0" fill="none" stroke="none" stroke-linecap="square" stroke-miterlimit="10" xmlns:xlink="http://www.w3.org/1999/xlink" xmlns="http://www.w3.org/2000/svg"><clipPath id="p.0"><path d="m0 0l960.0 0l0 720.0l-960.0 0l0 -720.0z" clip-rule="nonzero"/></clipPath><g clip-path="url(#p.0)"><path fill="#000000" fill-opacity="0.0" d="m0 0l960.0 0l0 720.0l-960.0 0z" fill-rule="evenodd"/><path fill="#999999" d="m124.884514 0l720.0 0l0 720.0l-720.0 0z" fill-rule="evenodd"/><path stroke="#000000" stroke-width="3.0" stroke-linejoin="round" stroke-linecap="butt" d="m124.884514 0l720.0 0l0 720.0l-720.0 0z" fill-rule="evenodd"/><path fill="#666666" d="m172.8819 126.84207l0 0c0 -40.847076 33.1131 -73.96018 73.960175 -73.96018l466.31583 0c19.615479 0 38.42755 7.7922134 52.29779 21.662437c13.870239 13.870224 21.662415 32.68229 21.662415 52.297745l0 466.31583c0 40.847107 -33.1131 73.960205 -73.960205 73.960205l-466.31583 0c-40.847076 0 -73.960175 -33.1131 -73.960175 -73.960205z" fill-rule="evenodd"/><path fill="#434343" d="m231.18373 360.51706l0 0c0 -139.82806 113.54341 -253.18109 253.60631 -253.18109l0 0c67.26056 0 131.7663 26.674355 179.32672 74.15502c47.560425 47.480667 74.27954 111.87828 74.27954 179.02608l0 0c0 139.82806 -113.543396 253.18112 -253.60626 253.18112l0 0c-140.0629 0 -253.60631 -113.35306 -253.60631 -253.18112z" fill-rule="evenodd"/><path fill="#666666" d="m196.61679 360.0l197.5149 -37.5907l-113.08322 -166.24536l166.24536 113.08322l37.5907 -197.51488l37.5907 197.51488l166.24536 -113.08322l-113.08325 166.24536l197.5149 37.5907l-197.5149 37.5907l113.08325 166.24536l-166.24536 -113.08322l-37.5907 197.51486l-37.5907 -197.51486l-166.24536 113.08322l113.08322 -166.24536z" fill-rule="evenodd"/><path fill="#000000" fill-opacity="0.0" d="m196.48819 145.28056l0 0c0 -37.707413 30.567902 -68.275314 68.2753 -68.275314l430.47302 0c18.107727 0 35.473816 7.1932755 48.277893 19.997375c12.804138 12.804108 19.997437 30.170197 19.997437 48.27794l0 430.47296c0 37.70746 -30.567932 68.27533 -68.27533 68.27533l-430.47302 0c-37.707397 0 -68.2753 -30.567871 -68.2753 -68.27533z" fill-rule="evenodd"/><path stroke="#d27837" stroke-width="8.0" stroke-linejoin="round" stroke-linecap="butt" d="m196.48819 145.28056l0 0c0 -37.707413 30.567902 -68.275314 68.2753 -68.275314l430.47302 0c18.107727 0 35.473816 7.1932755 48.277893 19.997375c12.804138 12.804108 19.997437 30.170197 19.997437 48.27794l0 430.47296c0 37.70746 -30.567932 68.27533 -68.27533 68.27533l-430.47302 0c-37.707397 0 -68.2753 -30.567871 -68.2753 -68.27533z" fill-rule="evenodd"/></g></svg>