<svg version="1.1" viewBox="0.0 0.0 960.0 720.0" fill="none" stroke="none" stroke-linecap="square" stroke-miterlimit="10" xmlns:xlink="http://www.w3.org/1999/xlink" xmlns="http://www.w3.org/2000/svg"><clipPath id="p.0"><path d="m0 0l960.0 0l0 720.0l-960.0 0l0 -720.0z" clip-rule="nonzero"/></clipPath><g clip-path="url(#p.0)"><path fill="#000000" fill-opacity="0.0" d="m0 0l960.0 0l0 720.0l-960.0 0z" fill-rule="evenodd"/><path fill="#696f6f" d="m180.64467 68.93964l581.95276 0l0 581.95276l-581.95276 0z" fill-rule="evenodd"/><path stroke="#000000" stroke-width="3.0" stroke-linejoin="round" stroke-linecap="butt" d="m180.64467 68.93964l581.95276 0l0 581.95276l-581.95276 0z" fill-rule="evenodd"/><path fill="#434343" d="m180.64043 69.10722l581.95276 0l0 581.95276l-581.95276 0zm38.967545 38.96756l0 504.01764l504.01764 0l0 -504.01764z" fill-rule="evenodd"/><path stroke="#000000" stroke-width="3.0" stroke-linejoin="round" stroke-linecap="butt" d="m180.64043 69.10722l581.95276 0l0 581.95276l-581.95276 0zm38.967545 38.96756l0 504.01764l504.01764 0l0 -504.01764z" fill-rule="evenodd"/><path fill="#515759" d="m286.09094 68.93964l221.37009 0l37.40158 37.401573l0 37.401573l0 0l-221.37009 0l-37.40158 -37.401573l0 -37.401573z" fill-rule="evenodd"/><path stroke="#000000" stroke-width="3.0" stroke-linejoin="round" stroke-linecap="butt" d="m286.09094 68.93964l221.37009 0l37.40158 37.401573l0 37.401573l0 0l-221.37009 0l-37.40158 -37.401573l0 -37.401573z" fill-rule="evenodd"/><path fill="#999999" d="m338.50116 202.20099l0 0c0 -17.038544 13.8124695 -30.851013 30.851013 -30.851013l125.66806 0l0 0c8.18222 0 16.029266 3.2503662 21.814972 9.0360565c5.7857056 5.7856903 9.036072 13.632767 9.036072 21.814957l0 123.40033c0 17.038544 -13.8125 30.851013 -30.851044 30.851013l-125.66806 0c-17.038544 0 -30.851013 -13.8124695 -30.851013 -30.851013z" fill-rule="evenodd"/><path stroke="#000000" stroke-width="1.0" stroke-linejoin="round" stroke-linecap="butt" d="m338.50116 202.20099l0 0c0 -17.038544 13.8124695 -30.851013 30.851013 -30.851013l125.66806 0l0 0c8.18222 0 16.029266 3.2503662 21.814972 9.0360565c5.7857056 5.7856903 9.036072 13.632767 9.036072 21.814957l0 123.40033c0 17.038544 -13.8125 30.851013 -30.851044 30.851013l-125.66806 0c-17.038544 0 -30.851013 -13.8124695 -30.851013 -30.851013z" fill-rule="evenodd"/><path fill="#515759" d="m289.12036 158.4966l0 174.88747l-26.52475 26.52478l-81.94769 0l0 0l0 -227.93701l0 0l81.94769 0z" fill-rule="evenodd"/><path stroke="#000000" stroke-width="3.0" stroke-linejoin="round" stroke-linecap="butt" d="m289.12036 158.4966l0 174.88747l-26.52475 26.52478l-81.94769 0l0 0l0 -227.93701l0 0l81.94769 0z" fill-rule="evenodd"/><path fill="#cccccc" d="m369.13904 200.85495l126.078735 0l0 126.078735l-126.078735 0zm15.759857 15.759842l0 94.55907l94.55905 0l0 -94.55907z" fill-rule="evenodd"/><path stroke="#000000" stroke-width="3.0" stroke-linejoin="round" stroke-linecap="butt" d="m369.13904 200.85495l126.078735 0l0 126.078735l-126.078735 0zm15.759857 15.759842l0 94.55907l94.55905 0l0 -94.55907z" fill-rule="evenodd"/><path fill="#434343" d="m227.69188 537.90283l337.85828 0l0 25.858276l-337.85828 0zm8.080719 8.080688l0 9.696838l321.69684 0l0 -9.696838z" fill-rule="evenodd"/><path stroke="#000000" stroke-width="1.0" stroke-linejoin="round" stroke-linecap="butt" d="m227.69188 537.90283l337.85828 0l0 25.858276l-337.85828 0zm8.080719 8.080688l0 9.696838l321.69684 0l0 -9.696838z" fill-rule="evenodd"/><path fill="#515759" d="m575.24774 432.01968l116.566956 0l70.80316 70.80313l0 70.80316l0 0l-116.566956 0l-70.80316 -70.80316l0 -70.80313z" fill-rule="evenodd"/><path stroke="#000000" stroke-width="3.0" stroke-linejoin="round" stroke-linecap="butt" d="m575.24774 432.01968l116.566956 0l70.80316 70.80313l0 70.80316l0 0l-116.566956 0l-70.80316 -70.80316l0 -70.80313z" fill-rule="evenodd"/><path fill="#434343" d="m631.21564 115.986786l0 278.86615l-21.574768 0l0 -278.86615zm-6.7421265 6.7421265l-8.090515 0l0 265.3819l8.090515 0z" fill-rule="evenodd"/><path stroke="#000000" stroke-width="1.0" stroke-linejoin="round" stroke-linecap="butt" d="m631.21564 115.986786l0 278.86615l-21.574768 0l0 -278.86615zm-6.7421265 6.7421265l-8.090515 0l0 265.3819l8.090515 0z" fill-rule="evenodd"/><path fill="#434343" d="m652.9562 115.986786l0 278.86615l-21.574768 0l0 -278.86615zm-6.7421265 6.7421265l-8.090515 0l0 265.3819l8.090515 0z" fill-rule="evenodd"/><path stroke="#000000" stroke-width="1.0" stroke-linejoin="round" stroke-linecap="butt" d="m652.9562 115.986786l0 278.86615l-21.574768 0l0 -278.86615zm-6.7421265 6.7421265l-8.090515 0l0 265.3819l8.090515 0z" fill-rule="evenodd"/><path fill="#434343" d="m674.6967 115.986786l0 278.86615l-21.574768 0l0 -278.86615zm-6.7421265 6.7421265l-8.090576 0l0 265.3819l8.090576 0z" fill-rule="evenodd"/><path stroke="#000000" stroke-width="1.0" stroke-linejoin="round" stroke-linecap="butt" d="m674.6967 115.986786l0 278.86615l-21.574768 0l0 -278.86615zm-6.7421265 6.7421265l-8.090576 0l0 265.3819l8.090576 0z" fill-rule="evenodd"/><path fill="#434343" d="m696.28455 115.986786l0 278.86615l-21.57483 0l0 -278.86615zm-6.7421265 6.7421265l-8.090576 0l0 265.3819l8.090576 0z" fill-rule="evenodd"/><path stroke="#000000" stroke-width="1.0" stroke-linejoin="round" stroke-linecap="butt" d="m696.28455 115.986786l0 278.86615l-21.57483 0l0 -278.86615zm-6.7421265 6.7421265l-8.090576 0l0 265.3819l8.090576 0z" fill-rule="evenodd"/><path fill="#cccccc" d="m227.69188 432.01968l337.85828 0l0 25.858246l-337.85828 0zm8.080719 8.080688l0 9.696869l321.69684 0l0 -9.696869z" fill-rule="evenodd"/><path stroke="#000000" stroke-width="3.0" stroke-linejoin="round" stroke-linecap="butt" d="m227.69188 432.01968l337.85828 0l0 25.858246l-337.85828 0zm8.080719 8.080688l0 9.696869l321.69684 0l0 -9.696869z" fill-rule="evenodd"/><path fill="#000000" fill-opacity="0.0" d="m186.54651 212.57166l169.7323 0l0 85.700806l-169.7323 0z" fill-rule="evenodd"/><path fill="#000000" fill-opacity="0.0" d="m600.6305 384.44095l169.73224 0l0 85.700775l-169.73224 0z" fill-rule="evenodd"/><path fill="#cccccc" d="m611.7555 400.60092l7.734375 0q2.625 0 4.0 0.40625q1.84375 0.546875 3.15625 1.9375q1.328125 1.390625 2.015625 3.40625q0.6875 2.0 0.6875 4.953125q0 2.59375 -0.640625 4.46875q-0.796875 2.296875 -2.25 3.703125q-1.109375 1.078125 -2.984375 1.6875q-1.40625 0.4375 -3.75 0.4375l-7.96875 0l0 -21.0zm4.234375 3.5625l0 13.90625l3.15625 0q1.78125 0 2.578125 -0.203125q1.03125 -0.265625 1.703125 -0.875q0.6875 -0.625 1.109375 -2.03125q0.4375 -1.40625 0.4375 -3.84375q0 -2.4375 -0.4375 -3.734375q-0.421875 -1.296875 -1.203125 -2.03125q-0.765625 -0.734375 -1.953125 -0.984375q-0.890625 -0.203125 -3.484375 -0.203125l-1.90625 0zm16.945435 -3.5625l7.734375 0q2.625 0 4.0 0.40625q1.84375 0.546875 3.15625 1.9375q1.328125 1.390625 2.015625 3.40625q0.6875 2.0 0.6875 4.953125q0 2.59375 -0.640625 4.46875q-0.796875 2.296875 -2.25 3.703125q-1.109375 1.078125 -2.984375 1.6875q-1.40625 0.4375 -3.75 0.4375l-7.96875 0l0 -21.0zm4.234375 3.5625l0 13.90625l3.15625 0q1.78125 0 2.578125 -0.203125q1.03125 -0.265625 1.703125 -0.875q0.6875 -0.625 1.109375 -2.03125q0.4375 -1.40625 0.4375 -3.84375q0 -2.4375 -0.4375 -3.734375q-0.421875 -1.296875 -1.203125 -2.03125q-0.765625 -0.734375 -1.953125 -0.984375q-0.890625 -0.203125 -3.484375 -0.203125l-1.90625 0zm16.96112 17.4375l0 -21.0l8.921875 0q3.375 0 4.890625 0.578125q1.53125 0.5625 2.4375 2.015625q0.921875 1.4375 0.921875 3.296875q0 2.359375 -1.390625 3.90625q-1.375 1.53125 -4.140625 1.9375q1.375 0.796875 2.265625 1.765625q0.890625 0.953125 2.40625 3.40625l2.5625 4.09375l-5.0625 0l-3.0625 -4.5625q-1.640625 -2.453125 -2.25 -3.09375q-0.59375 -0.640625 -1.265625 -0.875q-0.671875 -0.234375 -2.125 -0.234375l-0.859375 0l0 8.765625l-4.25 0zm4.25 -12.109375l3.125 0q3.0625 0 3.8125 -0.25q0.765625 -0.265625 1.1875 -0.890625q0.4375 -0.640625 0.4375 -1.578125q0 -1.0625 -0.578125 -1.71875q-0.5625 -0.65625 -1.59375 -0.828125q-0.515625 -0.0625 -3.09375 -0.0625l-3.296875 0l0 5.328125zm23.92981 12.109375l0 -4.21875l-8.59375 0l0 -3.53125l9.109375 -13.328125l3.375 0l0 13.3125l2.609375 0l0 3.546875l-2.609375 0l0 4.21875l-3.890625 0zm0 -7.765625l0 -7.171875l-4.828125 7.171875l4.828125 0z" fill-rule="nonzero"/><path fill="#000000" fill-opacity="0.0" d="m379.9081 221.04437l169.73227 0l0 85.700775l-169.73227 0z" fill-rule="evenodd"/><path fill="#666666" d="m390.9081 258.20438l0 -21.0l4.25 0l0 21.0l-4.25 0zm8.32016 0l0 -21.0l4.125 0l8.59375 14.03125l0 -14.03125l3.9375 0l0 21.0l-4.25 0l-8.46875 -13.6875l0 13.6875l-3.9375 0zm25.86734 0l0 -17.4375l-6.234375 0l0 -3.5625l16.6875 0l0 3.5625l-6.21875 0l0 17.4375l-4.234375 0zm13.196045 0l0 -21.0l15.5625 0l0 3.5625l-11.328125 0l0 4.65625l10.53125 0l0 3.53125l-10.53125 0l0 5.71875l11.71875 0l0 3.53125l-15.953125 0zm19.67102 0l0 -20.828125l4.234375 0l0 17.296875l10.546875 0l0 3.53125l-14.78125 0z" fill-rule="nonzero"/><path fill="#666666" d="m400.455 293.40436l-4.03125 0l0 -15.171875q-2.203125 2.0625 -5.203125 3.0625l0 -3.65625q1.578125 -0.515625 3.421875 -1.953125q1.859375 -1.4375 2.546875 -3.359375l3.265625 0l0 21.078125zm6.014038 -16.96875l0 -3.734375l13.75 0l0 2.921875q-1.703125 1.671875 -3.46875 4.8125q-1.75 3.125 -2.671875 6.65625q-0.921875 3.53125 -0.90625 6.3125l-3.890625 0q0.109375 -4.359375 1.796875 -8.875q1.703125 -4.53125 4.53125 -8.09375l-9.140625 0zm23.107788 -4.109375q3.046875 0 4.765625 2.171875q2.046875 2.578125 2.046875 8.546875q0 5.96875 -2.0625 8.5625q-1.703125 2.15625 -4.75 2.15625q-3.0625 0 -4.9375 -2.359375q-1.875 -2.359375 -1.875 -8.390625q0 -5.9375 2.0625 -8.546875q1.703125 -2.140625 4.75 -2.140625zm0 3.328125q-0.734375 0 -1.3125 0.46875q-0.5625 0.46875 -0.875 1.671875q-0.421875 1.5625 -0.421875 5.25q0 3.703125 0.375 5.09375q0.375 1.375 0.9375 1.828125q0.5625 0.453125 1.296875 0.453125q0.734375 0 1.296875 -0.453125q0.578125 -0.46875 0.890625 -1.671875q0.421875 -1.546875 0.421875 -5.25q0 -3.6875 -0.375 -5.0625q-0.375 -1.390625 -0.9375 -1.859375q-0.5625 -0.46875 -1.296875 -0.46875zm16.310913 -3.328125q3.046875 0 4.765625 2.171875q2.046875 2.578125 2.046875 8.546875q0 5.96875 -2.0625 8.5625q-1.703125 2.15625 -4.75 2.15625q-3.0625 0 -4.9375 -2.359375q-1.875 -2.359375 -1.875 -8.390625q0 -5.9375 2.0625 -8.546875q1.703125 -2.140625 4.75 -2.140625zm0 3.328125q-0.734375 0 -1.3125 0.46875q-0.5625 0.46875 -0.875 1.671875q-0.421875 1.5625 -0.421875 5.25q0 3.703125 0.375 5.09375q0.375 1.375 0.9375 1.828125q0.5625 0.453125 1.296875 0.453125q0.734375 0 1.296875 -0.453125q0.578125 -0.46875 0.890625 -1.671875q0.421875 -1.546875 0.421875 -5.25q0 -3.6875 -0.375 -5.0625q-0.375 -1.390625 -0.9375 -1.859375q-0.5625 -0.46875 -1.296875 -0.46875z" fill-rule="nonzero"/><path fill="#000000" fill-opacity="0.0" d="m238.47244 0l483.05515 0l0 85.70079l-483.05515 0z" fill-rule="evenodd"/><path fill="#cccccc" d="m387.15747 42.28l0 -24.8125l7.5 0l4.5 16.921875l4.453125 -16.921875l7.515625 0l0 24.8125l-4.65625 0l0 -19.53125l-4.921875 19.53125l-4.828125 0l-4.90625 -19.53125l0 19.53125l-4.65625 0zm28.790802 0l0 -24.8125l5.0 0l0 24.8125l-5.0 0zm25.644226 -9.125l4.859375 1.546875q-1.109375 4.0625 -3.71875 6.03125q-2.59375 1.96875 -6.578125 1.96875q-4.953125 0 -8.140625 -3.375q-3.171875 -3.375 -3.171875 -9.234375q0 -6.1875 3.1875 -9.609375q3.203125 -3.4375 8.421875 -3.4375q4.546875 0 7.390625 2.6875q1.703125 1.59375 2.546875 4.578125l-4.96875 1.1875q-0.4375 -1.9375 -1.828125 -3.046875q-1.390625 -1.125 -3.390625 -1.125q-2.765625 0 -4.484375 1.984375q-1.71875 1.984375 -1.71875 6.40625q0 4.703125 1.6875 6.703125q1.703125 2.0 4.40625 2.0q2.0 0 3.4375 -1.265625q1.4375 -1.265625 2.0625 -4.0zm9.168274 9.125l0 -24.8125l10.546875 0q3.984375 0 5.78125 0.671875q1.796875 0.671875 2.875 2.390625q1.09375 1.703125 1.09375 3.890625q0 2.796875 -1.640625 4.625q-1.640625 1.8125 -4.90625 2.28125q1.625 0.953125 2.671875 2.09375q1.0625 1.125 2.859375 4.015625l3.03125 4.84375l-6.0 0l-3.609375 -5.390625q-1.9375 -2.90625 -2.65625 -3.65625q-0.703125 -0.75 -1.5 -1.03125q-0.796875 -0.28125 -2.515625 -0.28125l-1.015625 0l0 10.359375l-5.015625 0zm5.015625 -14.3125l3.703125 0q3.609375 0 4.5 -0.296875q0.90625 -0.3125 1.40625 -1.0625q0.515625 -0.75 0.515625 -1.859375q0 -1.25 -0.671875 -2.015625q-0.671875 -0.78125 -1.890625 -0.984375q-0.609375 -0.078125 -3.65625 -0.078125l-3.90625 0l0 6.296875zm18.980743 2.0625q0 -3.796875 1.140625 -6.359375q0.84375 -1.90625 2.296875 -3.40625q1.46875 -1.5 3.21875 -2.234375q2.3125 -0.984375 5.34375 -0.984375q5.484375 0 8.7656555 3.40625q3.296875 3.40625 3.296875 9.453125q0 6.015625 -3.265625 9.40625q-3.2656555 3.390625 -8.7187805 3.390625q-5.546875 0 -8.8125 -3.375q-3.265625 -3.375 -3.265625 -9.296875zm5.171875 -0.171875q0 4.21875 1.9375 6.390625q1.953125 2.171875 4.9375 2.171875q3.0 0 4.921875 -2.15625q1.921875 -2.15625 1.921875 -6.46875q0 -4.265625 -1.875 -6.359375q-1.859375 -2.109375 -4.96875 -2.109375q-3.09375 0 -4.984375 2.125q-1.890625 2.125 -1.890625 6.40625zm53.51764 12.421875l-5.453125 0l-2.15625 -5.640625l-9.921875 0l-2.046875 5.640625l-5.3124695 0l9.6562195 -24.8125l5.296875 0l9.9375 24.8125zm-9.21875 -9.8125l-3.421875 -9.203125l-3.34375 9.203125l6.765625 0zm14.892212 9.8125l0 -20.609375l-7.359375 0l0 -4.203125l19.703125 0l0 4.203125l-7.34375 0l0 20.609375l-5.0 0zm13.060059 0l8.484375 -12.953125l-7.6875 -11.859375l5.859375 0l4.96875 7.96875l4.875 -7.96875l5.796875 0l-7.703125 12.046875l8.46875 12.765625l-6.03125 0l-5.5 -8.578125l-5.53125 8.578125l-6.0 0z" fill-rule="nonzero"/><path fill="#000000" fill-opacity="0.0" d="m223.24672 651.06036l483.0551 0l0 85.700806l-483.0551 0z" fill-rule="evenodd"/><path fill="#cccccc" d="m371.93173 693.3404l0 -24.8125l7.5 0l4.5 16.921875l4.453125 -16.921875l7.515625 0l0 24.8125l-4.65625 0l0 -19.53125l-4.921875 19.53125l-4.828125 0l-4.90625 -19.53125l0 19.53125l-4.65625 0zm28.790802 0l0 -24.8125l5.0 0l0 24.8125l-5.0 0zm25.644257 -9.125l4.859375 1.546875q-1.109375 4.0625 -3.71875 6.03125q-2.59375 1.96875 -6.578125 1.96875q-4.953125 0 -8.140625 -3.375q-3.171875 -3.375 -3.171875 -9.234375q0 -6.1875 3.1875 -9.609375q3.203125 -3.4375 8.421875 -3.4375q4.546875 0 7.390625 2.6875q1.703125 1.59375 2.546875 4.578125l-4.96875 1.1875q-0.4375 -1.9375 -1.828125 -3.046875q-1.390625 -1.125 -3.390625 -1.125q-2.765625 0 -4.484375 1.984375q-1.71875 1.984375 -1.71875 6.40625q0 4.703125 1.6875 6.703125q1.703125 2.0 4.40625 2.0q2.0 0 3.4375 -1.265625q1.4375 -1.265625 2.0625 -4.0zm9.168243 9.125l0 -24.8125l10.546875 0q3.984375 0 5.78125 0.671875q1.796875 0.671875 2.875 2.390625q1.09375 1.703125 1.09375 3.890625q0 2.796875 -1.640625 4.625q-1.640625 1.8125 -4.90625 2.28125q1.625 0.953125 2.671875 2.09375q1.0625 1.125 2.859375 4.015625l3.03125 4.84375l-6.0 0l-3.609375 -5.390625q-1.9375 -2.90625 -2.65625 -3.65625q-0.703125 -0.75 -1.5 -1.03125q-0.796875 -0.28125 -2.515625 -0.28125l-1.015625 0l0 10.359375l-5.015625 0zm5.015625 -14.3125l3.703125 0q3.609375 0 4.5 -0.296875q0.90625 -0.3125 1.40625 -1.0625q0.515625 -0.75 0.515625 -1.859375q0 -1.25 -0.671875 -2.015625q-0.671875 -0.78125 -1.890625 -0.984375q-0.609375 -0.078125 -3.65625 -0.078125l-3.90625 0l0 6.296875zm18.980774 2.0625q0 -3.796875 1.140625 -6.359375q0.84375 -1.90625 2.296875 -3.40625q1.46875 -1.5 3.21875 -2.234375q2.3125 -0.984375 5.34375 -0.984375q5.484375 0 8.765625 3.40625q3.296875 3.40625 3.296875 9.453125q0 6.015625 -3.265625 9.40625q-3.265625 3.390625 -8.71875 3.390625q-5.546875 0 -8.8125 -3.375q-3.265625 -3.375 -3.265625 -9.296875zm5.171875 -0.171875q0 4.21875 1.9375 6.390625q1.953125 2.171875 4.9375 2.171875q3.0 0 4.921875 -2.15625q1.921875 -2.15625 1.921875 -6.46875q0 -4.265625 -1.875 -6.359375q-1.859375 -2.109375 -4.96875 -2.109375q-3.09375 0 -4.984375 2.125q-1.890625 2.125 -1.890625 6.40625zm53.51764 12.421875l-5.453125 0l-2.15625 -5.640625l-9.921875 0l-2.046875 5.640625l-5.3125 0l9.65625 -24.8125l5.296875 0l9.9375 24.8125zm-9.21875 -9.8125l-3.421875 -9.203125l-3.34375 9.203125l6.765625 0zm14.892212 9.8125l0 -20.609375l-7.359375 0l0 -4.203125l19.703125 0l0 4.203125l-7.34375 0l0 20.609375l-5.0 0zm13.060059 0l8.484375 -12.953125l-7.6875 -11.859375l5.859375 0l4.96875 7.96875l4.875 -7.96875l5.796875 0l-7.703125 12.046875l8.46875 12.765625l-6.03125 0l-5.5 -8.578125l-5.53125 8.578125l-6.0 0z" fill-rule="nonzero"/></g></svg>