<svg version="1.1" viewBox="0.0 0.0 960.0 720.0" fill="none" stroke="none" stroke-linecap="square" stroke-miterlimit="10" xmlns:xlink="http://www.w3.org/1999/xlink" xmlns="http://www.w3.org/2000/svg"><clipPath id="p.0"><path d="m0 0l960.0 0l0 720.0l-960.0 0l0 -720.0z" clip-rule="nonzero"/></clipPath><g clip-path="url(#p.0)"><path fill="#000000" fill-opacity="0.0" d="m0 0l960.0 0l0 720.0l-960.0 0z" fill-rule="evenodd"/><path fill="#635653" d="m181.30614 69.66929l580.6929 0l0 580.6614l-580.6929 0z" fill-rule="evenodd"/><path stroke="#000000" stroke-width="3.0" stroke-linejoin="round" stroke-linecap="butt" d="m181.30614 69.66929l580.6929 0l0 580.6614l-580.6929 0z" fill-rule="evenodd"/><path fill="#4b4747" d="m181.30614 69.66929l580.6929 0l0 580.6614l-580.6929 0zm38.88109 38.88109l0 502.89926l502.93076 0l0 -502.89926z" fill-rule="evenodd"/><path stroke="#000000" stroke-width="3.0" stroke-linejoin="round" stroke-linecap="butt" d="m181.30614 69.66929l580.6929 0l0 580.6614l-580.6929 0zm38.88109 38.88109l0 502.89926l502.93076 0l0 -502.89926z" fill-rule="evenodd"/><path fill="#515759" d="m286.52203 69.66929l220.86615 0l37.338562 37.338585l0 37.338577l0 0l-220.86612 0l-37.338593 -37.338577l0 -37.338585z" fill-rule="evenodd"/><path stroke="#000000" stroke-width="3.0" stroke-linejoin="round" stroke-linecap="butt" d="m286.52203 69.66929l220.86615 0l37.338562 37.338585l0 37.338577l0 0l-220.86612 0l-37.338593 -37.338577l0 -37.338585z" fill-rule="evenodd"/><path fill="#9d934b" d="m338.81775 202.64438l0 0c0 -17.003754 13.784271 -30.78801 30.788025 -30.78801l125.41611 0l0 0c8.165466 0 15.996521 3.2437286 21.770416 9.017593c5.7738647 5.77388 9.017578 13.604935 9.017578 21.770416l0 123.14838c0 17.003754 -13.784241 30.788025 -30.787994 30.788025l-125.41611 0c-17.003754 0 -30.788025 -13.784271 -30.788025 -30.788025z" fill-rule="evenodd"/><path stroke="#000000" stroke-width="1.0" stroke-linejoin="round" stroke-linecap="butt" d="m338.81775 202.64438l0 0c0 -17.003754 13.784271 -30.78801 30.788025 -30.78801l125.41611 0l0 0c8.165466 0 15.996521 3.2437286 21.770416 9.017593c5.7738647 5.77388 9.017578 13.604935 9.017578 21.770416l0 123.14838c0 17.003754 -13.784241 30.788025 -30.787994 30.788025l-125.41611 0c-17.003754 0 -30.788025 -13.784271 -30.788025 -30.788025z" fill-rule="evenodd"/><path fill="#515759" d="m289.54483 159.04262l0 174.50746l-26.478546 26.478546l-81.8049 0l0 0l0 -227.46455l0 0l81.8049 0z" fill-rule="evenodd"/><path stroke="#000000" stroke-width="3.0" stroke-linejoin="round" stroke-linecap="butt" d="m289.54483 159.04262l0 174.50746l-26.478546 26.478546l-81.8049 0l0 0l0 -227.46455l0 0l81.8049 0z" fill-rule="evenodd"/><path fill="#d5c978" d="m369.3887 201.29701l125.79526 0l0 125.79527l-125.79526 0zm15.724396 15.724411l0 94.346466l94.346466 0l0 -94.346466z" fill-rule="evenodd"/><path stroke="#000000" stroke-width="3.0" stroke-linejoin="round" stroke-linecap="butt" d="m369.3887 201.29701l125.79526 0l0 125.79527l-125.79526 0zm15.724396 15.724411l0 94.346466l94.346466 0l0 -94.346466z" fill-rule="evenodd"/><path fill="#434343" d="m228.25056 537.61005l337.13385 0l0 25.826782l-337.13385 0zm8.070877 8.070862l0 9.685059l320.9921 0l0 -9.685059z" fill-rule="evenodd"/><path stroke="#000000" stroke-width="1.0" stroke-linejoin="round" stroke-linecap="butt" d="m228.25056 537.61005l337.13385 0l0 25.826782l-337.13385 0zm8.070877 8.070862l0 9.685059l320.9921 0l0 -9.685059z" fill-rule="evenodd"/><path fill="#515759" d="m575.0471 431.95776l116.33069 0l70.66144 70.66141l0 70.66141l0 0l-116.33075 0l-70.66138 -70.66141l0 -70.66141z" fill-rule="evenodd"/><path stroke="#000000" stroke-width="3.0" stroke-linejoin="round" stroke-linecap="butt" d="m575.0471 431.95776l116.33069 0l70.66144 70.66141l0 70.66141l0 0l-116.33075 0l-70.66138 -70.66141l0 -70.66141z" fill-rule="evenodd"/><path fill="#434343" d="m630.8927 116.61387l0 278.23624l-21.543274 0l0 -278.23624zm-6.7323 6.7322845l-8.078735 0l0 264.77164l8.078735 0z" fill-rule="evenodd"/><path stroke="#000000" stroke-width="1.0" stroke-linejoin="round" stroke-linecap="butt" d="m630.8927 116.61387l0 278.23624l-21.543274 0l0 -278.23624zm-6.7323 6.7322845l-8.078735 0l0 264.77164l8.078735 0z" fill-rule="evenodd"/><path fill="#434343" d="m652.58575 116.61387l0 278.23624l-21.543335 0l0 -278.23624zm-6.7323 6.7322845l-8.078735 0l0 264.77164l8.078735 0z" fill-rule="evenodd"/><path stroke="#000000" stroke-width="1.0" stroke-linejoin="round" stroke-linecap="butt" d="m652.58575 116.61387l0 278.23624l-21.543335 0l0 -278.23624zm-6.7323 6.7322845l-8.078735 0l0 264.77164l8.078735 0z" fill-rule="evenodd"/><path fill="#434343" d="m674.2788 116.61387l0 278.23624l-21.543335 0l0 -278.23624zm-6.7323 6.7322845l-8.078735 0l0 264.77164l8.078735 0z" fill-rule="evenodd"/><path stroke="#000000" stroke-width="1.0" stroke-linejoin="round" stroke-linecap="butt" d="m674.2788 116.61387l0 278.23624l-21.543335 0l0 -278.23624zm-6.7323 6.7322845l-8.078735 0l0 264.77164l8.078735 0z" fill-rule="evenodd"/><path fill="#434343" d="m695.8194 116.61387l0 278.23624l-21.543274 0l0 -278.23624zm-6.732239 6.7322845l-8.078735 0l0 264.77164l8.078735 0z" fill-rule="evenodd"/><path stroke="#000000" stroke-width="1.0" stroke-linejoin="round" stroke-linecap="butt" d="m695.8194 116.61387l0 278.23624l-21.543274 0l0 -278.23624zm-6.732239 6.7322845l-8.078735 0l0 264.77164l8.078735 0z" fill-rule="evenodd"/><path fill="#d5c978" d="m228.25056 431.95776l337.13385 0l0 25.826752l-337.13385 0zm8.070877 8.070862l0 9.685028l320.9921 0l0 -9.685028z" fill-rule="evenodd"/><path stroke="#000000" stroke-width="3.0" stroke-linejoin="round" stroke-linecap="butt" d="m228.25056 431.95776l337.13385 0l0 25.826752l-337.13385 0zm8.070877 8.070862l0 9.685028l320.9921 0l0 -9.685028z" fill-rule="evenodd"/><path fill="#000000" fill-opacity="0.0" d="m187.1951 212.98817l169.38583 0l0 85.4803l-169.38583 0z" fill-rule="evenodd"/><path fill="#000000" fill-opacity="0.0" d="m600.3547 385.17847l169.38586 0l0 85.480316l-169.38586 0z" fill-rule="evenodd"/><path fill="#d5c978" d="m611.4797 401.33847l7.734375 0q2.625 0 4.0 0.40625q1.84375 0.546875 3.15625 1.9375q1.328125 1.390625 2.015625 3.40625q0.6875 2.0 0.6875 4.953125q0 2.59375 -0.640625 4.46875q-0.796875 2.296875 -2.25 3.703125q-1.109375 1.078125 -2.984375 1.6875q-1.40625 0.4375 -3.75 0.4375l-7.96875 0l0 -21.0zm4.234375 3.5625l0 13.90625l3.15625 0q1.78125 0 2.578125 -0.203125q1.03125 -0.265625 1.703125 -0.875q0.6875 -0.625 1.109375 -2.03125q0.4375 -1.40625 0.4375 -3.84375q0 -2.4375 -0.4375 -3.734375q-0.421875 -1.296875 -1.203125 -2.03125q-0.765625 -0.734375 -1.953125 -0.984375q-0.890625 -0.203125 -3.484375 -0.203125l-1.90625 0zm16.945496 -3.5625l7.734375 0q2.625 0 4.0 0.40625q1.84375 0.546875 3.15625 1.9375q1.328125 1.390625 2.015625 3.40625q0.6875 2.0 0.6875 4.953125q0 2.59375 -0.640625 4.46875q-0.796875 2.296875 -2.25 3.703125q-1.109375 1.078125 -2.984375 1.6875q-1.40625 0.4375 -3.75 0.4375l-7.96875 0l0 -21.0zm4.234375 3.5625l0 13.90625l3.15625 0q1.78125 0 2.578125 -0.203125q1.03125 -0.265625 1.703125 -0.875q0.6875 -0.625 1.109375 -2.03125q0.4375 -1.40625 0.4375 -3.84375q0 -2.4375 -0.4375 -3.734375q-0.421875 -1.296875 -1.203125 -2.03125q-0.765625 -0.734375 -1.953125 -0.984375q-0.890625 -0.203125 -3.484375 -0.203125l-1.90625 0zm16.96106 17.4375l0 -21.0l8.921875 0q3.375 0 4.890625 0.578125q1.53125 0.5625 2.4375 2.015625q0.921875 1.4375 0.921875 3.296875q0 2.359375 -1.390625 3.90625q-1.375 1.53125 -4.140625 1.9375q1.375 0.796875 2.265625 1.765625q0.890625 0.953125 2.40625 3.40625l2.5625 4.09375l-5.0625 0l-3.0625 -4.5625q-1.640625 -2.453125 -2.25 -3.09375q-0.59375 -0.640625 -1.265625 -0.875q-0.671875 -0.234375 -2.125 -0.234375l-0.859375 0l0 8.765625l-4.25 0zm4.25 -12.109375l3.125 0q3.0625 0 3.8125 -0.25q0.765625 -0.265625 1.1875 -0.890625q0.4375 -0.640625 0.4375 -1.578125q0 -1.0625 -0.578125 -1.71875q-0.5625 -0.65625 -1.59375 -0.828125q-0.515625 -0.0625 -3.09375 -0.0625l-3.296875 0l0 5.328125zm23.92987 12.109375l0 -4.21875l-8.59375 0l0 -3.53125l9.109375 -13.328125l3.375 0l0 13.3125l2.609375 0l0 3.546875l-2.609375 0l0 4.21875l-3.890625 0zm0 -7.765625l0 -7.171875l-4.828125 7.171875l4.828125 0z" fill-rule="nonzero"/><path fill="#000000" fill-opacity="0.0" d="m386.44812 217.90662l169.3858 0l0 85.480316l-169.3858 0z" fill-rule="evenodd"/><path fill="#666666" d="m416.51062 255.0666l-4.609375 0l-1.828125 -4.765625l-8.390625 0l-1.734375 4.765625l-4.5 0l8.171875 -21.0l4.484375 0l8.40625 21.0zm-7.796875 -8.3125l-2.890625 -7.78125l-2.84375 7.78125l5.734375 0zm9.99234 8.3125l0 -21.0l6.34375 0l3.8125 14.328125l3.765625 -14.328125l6.359375 0l0 21.0l-3.9375 0l0 -16.53125l-4.171875 16.53125l-4.078125 0l-4.15625 -16.53125l0 16.53125l-3.9375 0zm24.477448 -21.0l7.734375 0q2.625 0 4.0 0.40625q1.84375 0.546875 3.15625 1.9375q1.328125 1.390625 2.015625 3.40625q0.6875 2.0 0.6875 4.953125q0 2.59375 -0.640625 4.46875q-0.796875 2.296875 -2.25 3.703125q-1.109375 1.078125 -2.984375 1.6875q-1.40625 0.4375 -3.75 0.4375l-7.96875 0l0 -21.0zm4.234375 3.5625l0 13.90625l3.15625 0q1.78125 0 2.578125 -0.203125q1.03125 -0.265625 1.703125 -0.875q0.6875 -0.625 1.109375 -2.03125q0.4375 -1.40625 0.4375 -3.84375q0 -2.4375 -0.4375 -3.734375q-0.421875 -1.296875 -1.203125 -2.03125q-0.765625 -0.734375 -1.953125 -0.984375q-0.890625 -0.203125 -3.484375 -0.203125l-1.90625 0z" fill-rule="nonzero"/><path fill="#666666" d="m416.51062 290.2666l-4.609375 0l-1.828125 -4.765625l-8.390625 0l-1.734375 4.765625l-4.5 0l8.171875 -21.0l4.484375 0l8.40625 21.0zm-7.796875 -8.3125l-2.890625 -7.78125l-2.84375 7.78125l5.734375 0zm9.99234 8.3125l0 -21.0l6.34375 0l3.8125 14.328125l3.765625 -14.328125l6.359375 0l0 21.0l-3.9375 0l0 -16.53125l-4.171875 16.53125l-4.078125 0l-4.15625 -16.53125l0 16.53125l-3.9375 0zm23.649323 -5.40625l4.015625 -0.40625q0.171875 1.359375 1.015625 2.15625q0.84375 0.796875 1.953125 0.796875q1.25 0 2.125 -1.015625q0.875 -1.03125 0.875 -3.09375q0 -1.9375 -0.875 -2.90625q-0.859375 -0.96875 -2.25 -0.96875q-1.71875 0 -3.09375 1.53125l-3.265625 -0.46875l2.0625 -10.921875l10.640625 0l0 3.765625l-7.59375 0l-0.640625 3.5625q1.359375 -0.671875 2.75 -0.671875q2.6875 0 4.546875 1.953125q1.859375 1.9375 1.859375 5.046875q0 2.59375 -1.5 4.625q-2.046875 2.78125 -5.6875 2.78125q-2.90625 0 -4.75 -1.5625q-1.828125 -1.5625 -2.1875 -4.203125z" fill-rule="nonzero"/><path fill="#000000" fill-opacity="0.0" d="m238.47244 0l483.05515 0l0 85.70079l-483.05515 0z" fill-rule="evenodd"/><path fill="#d5c978" d="m387.15747 42.28l0 -24.8125l7.5 0l4.5 16.921875l4.453125 -16.921875l7.515625 0l0 24.8125l-4.65625 0l0 -19.53125l-4.921875 19.53125l-4.828125 0l-4.90625 -19.53125l0 19.53125l-4.65625 0zm28.790802 0l0 -24.8125l5.0 0l0 24.8125l-5.0 0zm25.644226 -9.125l4.859375 1.546875q-1.109375 4.0625 -3.71875 6.03125q-2.59375 1.96875 -6.578125 1.96875q-4.953125 0 -8.140625 -3.375q-3.171875 -3.375 -3.171875 -9.234375q0 -6.1875 3.1875 -9.609375q3.203125 -3.4375 8.421875 -3.4375q4.546875 0 7.390625 2.6875q1.703125 1.59375 2.546875 4.578125l-4.96875 1.1875q-0.4375 -1.9375 -1.828125 -3.046875q-1.390625 -1.125 -3.390625 -1.125q-2.765625 0 -4.484375 1.984375q-1.71875 1.984375 -1.71875 6.40625q0 4.703125 1.6875 6.703125q1.703125 2.0 4.40625 2.0q2.0 0 3.4375 -1.265625q1.4375 -1.265625 2.0625 -4.0zm9.168274 9.125l0 -24.8125l10.546875 0q3.984375 0 5.78125 0.671875q1.796875 0.671875 2.875 2.390625q1.09375 1.703125 1.09375 3.890625q0 2.796875 -1.640625 4.625q-1.640625 1.8125 -4.90625 2.28125q1.625 0.953125 2.671875 2.09375q1.0625 1.125 2.859375 4.015625l3.03125 4.84375l-6.0 0l-3.609375 -5.390625q-1.9375 -2.90625 -2.65625 -3.65625q-0.703125 -0.75 -1.5 -1.03125q-0.796875 -0.28125 -2.515625 -0.28125l-1.015625 0l0 10.359375l-5.015625 0zm5.015625 -14.3125l3.703125 0q3.609375 0 4.5 -0.296875q0.90625 -0.3125 1.40625 -1.0625q0.515625 -0.75 0.515625 -1.859375q0 -1.25 -0.671875 -2.015625q-0.671875 -0.78125 -1.890625 -0.984375q-0.609375 -0.078125 -3.65625 -0.078125l-3.90625 0l0 6.296875zm18.980743 2.0625q0 -3.796875 1.140625 -6.359375q0.84375 -1.90625 2.296875 -3.40625q1.46875 -1.5 3.21875 -2.234375q2.3125 -0.984375 5.34375 -0.984375q5.484375 0 8.7656555 3.40625q3.296875 3.40625 3.296875 9.453125q0 6.015625 -3.265625 9.40625q-3.2656555 3.390625 -8.7187805 3.390625q-5.546875 0 -8.8125 -3.375q-3.265625 -3.375 -3.265625 -9.296875zm5.171875 -0.171875q0 4.21875 1.9375 6.390625q1.953125 2.171875 4.9375 2.171875q3.0 0 4.921875 -2.15625q1.921875 -2.15625 1.921875 -6.46875q0 -4.265625 -1.875 -6.359375q-1.859375 -2.109375 -4.96875 -2.109375q-3.09375 0 -4.984375 2.125q-1.890625 2.125 -1.890625 6.40625zm53.51764 12.421875l-5.453125 0l-2.15625 -5.640625l-9.921875 0l-2.046875 5.640625l-5.3124695 0l9.6562195 -24.8125l5.296875 0l9.9375 24.8125zm-9.21875 -9.8125l-3.421875 -9.203125l-3.34375 9.203125l6.765625 0zm14.892212 9.8125l0 -20.609375l-7.359375 0l0 -4.203125l19.703125 0l0 4.203125l-7.34375 0l0 20.609375l-5.0 0zm13.060059 0l8.484375 -12.953125l-7.6875 -11.859375l5.859375 0l4.96875 7.96875l4.875 -7.96875l5.796875 0l-7.703125 12.046875l8.46875 12.765625l-6.03125 0l-5.5 -8.578125l-5.53125 8.578125l-6.0 0z" fill-rule="nonzero"/><path fill="#000000" fill-opacity="0.0" d="m223.24672 651.06036l483.0551 0l0 85.700806l-483.0551 0z" fill-rule="evenodd"/><path fill="#d5c978" d="m371.93173 693.3404l0 -24.8125l7.5 0l4.5 16.921875l4.453125 -16.921875l7.515625 0l0 24.8125l-4.65625 0l0 -19.53125l-4.921875 19.53125l-4.828125 0l-4.90625 -19.53125l0 19.53125l-4.65625 0zm28.790802 0l0 -24.8125l5.0 0l0 24.8125l-5.0 0zm25.644257 -9.125l4.859375 1.546875q-1.109375 4.0625 -3.71875 6.03125q-2.59375 1.96875 -6.578125 1.96875q-4.953125 0 -8.140625 -3.375q-3.171875 -3.375 -3.171875 -9.234375q0 -6.1875 3.1875 -9.609375q3.203125 -3.4375 8.421875 -3.4375q4.546875 0 7.390625 2.6875q1.703125 1.59375 2.546875 4.578125l-4.96875 1.1875q-0.4375 -1.9375 -1.828125 -3.046875q-1.390625 -1.125 -3.390625 -1.125q-2.765625 0 -4.484375 1.984375q-1.71875 1.984375 -1.71875 6.40625q0 4.703125 1.6875 6.703125q1.703125 2.0 4.40625 2.0q2.0 0 3.4375 -1.265625q1.4375 -1.265625 2.0625 -4.0zm9.168243 9.125l0 -24.8125l10.546875 0q3.984375 0 5.78125 0.671875q1.796875 0.671875 2.875 2.390625q1.09375 1.703125 1.09375 3.890625q0 2.796875 -1.640625 4.625q-1.640625 1.8125 -4.90625 2.28125q1.625 0.953125 2.671875 2.09375q1.0625 1.125 2.859375 4.015625l3.03125 4.84375l-6.0 0l-3.609375 -5.390625q-1.9375 -2.90625 -2.65625 -3.65625q-0.703125 -0.75 -1.5 -1.03125q-0.796875 -0.28125 -2.515625 -0.28125l-1.015625 0l0 10.359375l-5.015625 0zm5.015625 -14.3125l3.703125 0q3.609375 0 4.5 -0.296875q0.90625 -0.3125 1.40625 -1.0625q0.515625 -0.75 0.515625 -1.859375q0 -1.25 -0.671875 -2.015625q-0.671875 -0.78125 -1.890625 -0.984375q-0.609375 -0.078125 -3.65625 -0.078125l-3.90625 0l0 6.296875zm18.980774 2.0625q0 -3.796875 1.140625 -6.359375q0.84375 -1.90625 2.296875 -3.40625q1.46875 -1.5 3.21875 -2.234375q2.3125 -0.984375 5.34375 -0.984375q5.484375 0 8.765625 3.40625q3.296875 3.40625 3.296875 9.453125q0 6.015625 -3.265625 9.40625q-3.265625 3.390625 -8.71875 3.390625q-5.546875 0 -8.8125 -3.375q-3.265625 -3.375 -3.265625 -9.296875zm5.171875 -0.171875q0 4.21875 1.9375 6.390625q1.953125 2.171875 4.9375 2.171875q3.0 0 4.921875 -2.15625q1.921875 -2.15625 1.921875 -6.46875q0 -4.265625 -1.875 -6.359375q-1.859375 -2.109375 -4.96875 -2.109375q-3.09375 0 -4.984375 2.125q-1.890625 2.125 -1.890625 6.40625zm53.51764 12.421875l-5.453125 0l-2.15625 -5.640625l-9.921875 0l-2.046875 5.640625l-5.3125 0l9.65625 -24.8125l5.296875 0l9.9375 24.8125zm-9.21875 -9.8125l-3.421875 -9.203125l-3.34375 9.203125l6.765625 0zm14.892212 9.8125l0 -20.609375l-7.359375 0l0 -4.203125l19.703125 0l0 4.203125l-7.34375 0l0 20.609375l-5.0 0zm13.060059 0l8.484375 -12.953125l-7.6875 -11.859375l5.859375 0l4.96875 7.96875l4.875 -7.96875l5.796875 0l-7.703125 12.046875l8.46875 12.765625l-6.03125 0l-5.5 -8.578125l-5.53125 8.578125l-6.0 0z" fill-rule="nonzero"/></g></svg>