<svg version="1.1" viewBox="0.0 0.0 960.0 720.0" fill="none" stroke="none" stroke-linecap="square" stroke-miterlimit="10" xmlns:xlink="http://www.w3.org/1999/xlink" xmlns="http://www.w3.org/2000/svg"><clipPath id="p.0"><path d="m0 0l960.0 0l0 720.0l-960.0 0l0 -720.0z" clip-rule="nonzero"/></clipPath><g clip-path="url(#p.0)"><path fill="#000000" fill-opacity="0.0" d="m0 0l960.0 0l0 720.0l-960.0 0z" fill-rule="evenodd"/><path fill="#8f8f8f" d="m917.0365 508.4551l-850.6242 0l-43.254814 -43.25482l0 -127.01291l0 0l937.13385 0l0 0l0 127.01291z" fill-rule="evenodd"/><path fill="#8f8f8f" d="m23.149607 339.9961l45.968506 -183.87401l845.19684 0l45.968506 183.87401z" fill-rule="evenodd"/><path fill="#ff9900" d="m84.28835 490.6973l0 0c0 -1.9627686 1.5911255 -3.553894 3.5538788 -3.553894l303.00247 0c0.9425659 0 1.8464966 0.37442017 2.5130005 1.0409241c0.6664734 0.6664734 1.0408936 1.570404 1.0408936 2.51297l0 14.215057c0 1.9627686 -1.5911255 3.553894 -3.553894 3.553894l-303.00247 0c-1.9627533 0 -3.5538788 -1.5911255 -3.5538788 -3.553894z" fill-rule="evenodd"/><path fill="#ff9900" d="m427.38034 490.6973l0 0c0 -1.9627686 1.5911255 -3.553894 3.5538635 -3.553894l469.3647 0c0.9425659 0 1.8464966 0.37442017 2.5130005 1.0409241c0.6664429 0.6664734 1.0408936 1.570404 1.0408936 2.51297l0 14.215057c0 1.9627686 -1.5911255 3.553894 -3.553894 3.553894l-469.3647 0c-1.962738 0 -3.5538635 -1.5911255 -3.5538635 -3.553894z" fill-rule="evenodd"/><path fill="#666666" d="m308.48593 156.12204l366.47165 0l0 136.22464l-183.23584 34.056152l-183.23581 -34.056152z" fill-rule="evenodd"/><path fill="#666666" d="m35.509914 452.20624l0 0c0 -1.962738 1.5911255 -3.5538635 3.5538788 -3.5538635l905.3017 0c0.9425659 0 1.8464966 0.37442017 2.5130005 1.0408936c0.6664429 0.6665039 1.0408936 1.5704346 1.0408936 2.51297l0 14.215088c0 1.9627686 -1.5911255 3.553894 -3.553894 3.553894l-905.3017 0l0 0c-1.9627533 0 -3.5538788 -1.5911255 -3.5538788 -3.553894z" fill-rule="evenodd"/><path fill="#000000" fill-opacity="0.0" d="m241.60463 159.55888l500.22913 0l0 170.2112l-250.11453 42.552795l-250.11458 -42.552795z" fill-rule="evenodd"/><path stroke="#666666" stroke-width="8.0" stroke-linejoin="round" stroke-linecap="butt" d="m241.60463 159.55888l500.22913 0l0 170.2112l-250.11453 42.552795l-250.11458 -42.552795z" fill-rule="evenodd"/><g filter="url(#shadowFilter-p.1)"><use xlink:href="#p.1" transform="matrix(1.0 0.0 0.0 1.0 4.76927375328084 -7.632432545931796)"/></g><defs><filter id="shadowFilter-p.1" filterUnits="userSpaceOnUse"><feGaussianBlur in="SourceAlpha" stdDeviation="2.0" result="blur"/><feComponentTransfer in="blur" color-interpolation-filters="sRGB"><feFuncR type="linear" slope="0" intercept="0.0"/><feFuncG type="linear" slope="0" intercept="0.0"/><feFuncB type="linear" slope="0" intercept="0.0"/><feFuncA type="linear" slope="0.5" intercept="0"/></feComponentTransfer></filter></defs><g id="p.1"><path fill="#8f8f8f" d="m893.5956 544.1244l-850.6242 0l-43.254814 -43.25479l0 -127.01291l0 0l937.13385 0l0 0l0 127.01291z" fill-rule="evenodd"/></g><g filter="url(#shadowFilter-p.2)"><use xlink:href="#p.2" transform="matrix(1.0 0.0 0.0 1.0 4.7692734908136485 -7.632432808398924)"/></g><defs><filter id="shadowFilter-p.2" filterUnits="userSpaceOnUse"><feGaussianBlur in="SourceAlpha" stdDeviation="2.0" result="blur"/><feComponentTransfer in="blur" color-interpolation-filters="sRGB"><feFuncR type="linear" slope="0" intercept="0.0"/><feFuncG type="linear" slope="0" intercept="0.0"/><feFuncB type="linear" slope="0" intercept="0.0"/><feFuncA type="linear" slope="0.5" intercept="0"/></feComponentTransfer></filter></defs><g id="p.2"><path fill="#8f8f8f" d="m-0.2913386 375.6654l45.968506 -183.87402l845.19684 0l45.968506 183.87402z" fill-rule="evenodd"/></g><path fill="#ff9900" d="m60.84741 526.3666l0 0c0 -1.9627686 1.5911217 -3.553894 3.553875 -3.553894l303.0025 0c0.9425354 0 1.8464661 0.37445068 2.51297 1.0409546c0.6664734 0.6664429 1.0408936 1.5703735 1.0408936 2.5129395l0 14.215088c0 1.9627686 -1.5911255 3.553894 -3.5538635 3.553894l-303.0025 0c-1.9627533 0 -3.553875 -1.5911255 -3.553875 -3.553894z" fill-rule="evenodd"/><path fill="#ff9900" d="m403.9394 526.3666l0 0c0 -1.9627686 1.5911255 -3.553894 3.5538635 -3.553894l469.36472 0c0.9425049 0 1.8464966 0.37445068 2.5129395 1.0409546c0.6665039 0.6664429 1.0408936 1.5703735 1.0408936 2.5129395l0 14.215088c0 1.9627686 -1.5911255 3.553894 -3.553833 3.553894l-469.36472 0c-1.962738 0 -3.5538635 -1.5911255 -3.5538635 -3.553894z" fill-rule="evenodd"/><path fill="#666666" d="m285.04498 191.79134l366.47162 0l0 136.22462l-183.23581 34.056183l-183.23581 -34.056183z" fill-rule="evenodd"/><path fill="#666666" d="m12.068971 487.87555l0 0c0 -1.9627686 1.5911245 -3.553894 3.5538769 -3.553894l905.3017 0c0.9425049 0 1.8464966 0.37445068 2.5129395 1.0409241c0.6665039 0.6664734 1.0408936 1.570404 1.0408936 2.51297l0 14.215088c0 1.962738 -1.5911255 3.5538635 -3.553833 3.5538635l-905.3017 0l0 0c-1.9627523 0 -3.5538769 -1.5911255 -3.5538769 -3.5538635z" fill-rule="evenodd"/><path fill="#000000" fill-opacity="0.0" d="m218.16368 195.22818l500.22913 0l0 170.21118l-250.11456 42.552795l-250.11458 -42.552795z" fill-rule="evenodd"/><path stroke="#666666" stroke-width="8.0" stroke-linejoin="round" stroke-linecap="butt" d="m218.16368 195.22818l500.22913 0l0 170.21118l-250.11456 42.552795l-250.11458 -42.552795z" fill-rule="evenodd"/><path fill="#000000" fill-opacity="0.0" d="m334.28873 201.87138l267.96848 0l0 92.377945l-267.96848 0z" fill-rule="evenodd"/><path fill="#ff9900" d="m393.0972 277.46826l0 10.203125l-38.46875 0q0.625 -5.78125 3.75 -10.953125q3.125 -5.1875 12.34375 -13.734375q7.421875 -6.921875 9.09375 -9.375q2.265625 -3.40625 2.265625 -6.71875q0 -3.671875 -1.96875 -5.640625q-1.96875 -1.984375 -5.453125 -1.984375q-3.4375 0 -5.46875 2.078125q-2.03125 2.0625 -2.34375 6.875l-10.9375 -1.09375q0.984375 -9.0625 6.140625 -13.0q5.15625 -3.953125 12.890625 -3.953125q8.46875 0 13.3125 4.578125q4.84375 4.5625 4.84375 11.359375q0 3.859375 -1.390625 7.359375q-1.375 3.5 -4.390625 7.328125q-1.984375 2.53125 -7.1875 7.296875q-5.1875 4.765625 -6.578125 6.328125q-1.390625 1.5625 -2.25 3.046875l21.796875 0zm26.25 10.203125l19.578125 -29.890625l-17.734375 -27.375l13.515625 0l11.484375 18.390625l11.25 -18.390625l13.390625 0l-17.8125 27.8125l19.578125 29.453125l-13.953125 0l-12.6875 -19.8125l-12.734375 19.8125l-13.875 0zm78.60156 -15.203125l10.625 -1.28125q0.5 4.0625 2.71875 6.21875q2.2343445 2.140625 5.4062195 2.140625q3.390625 0 5.71875 -2.578125q2.328125 -2.578125 2.328125 -6.953125q0 -4.140625 -2.234375 -6.5625q-2.21875 -2.421875 -5.421875 -2.421875q-2.109375 0 -5.046875 0.8125l1.21875 -8.9375q4.453125 0.109375 6.796875 -1.9375q2.34375 -2.046875 2.34375 -5.453125q0 -2.890625 -1.71875 -4.609375q-1.71875 -1.71875 -4.578125 -1.71875q-2.8125 0 -4.8124695 1.953125q-1.984375 1.953125 -2.40625 5.703125l-10.125 -1.71875q1.0625 -5.1875 3.1875 -8.296875q2.125 -3.109375 5.9375 -4.875q3.8125 -1.78125 8.5312195 -1.78125q8.09375 0 12.96875 5.15625q4.03125 4.21875 4.03125 9.53125q0 7.53125 -8.25 12.03125q4.921875 1.046875 7.875 4.71875q2.953125 3.671875 2.953125 8.875q0 7.53125 -5.515625 12.859375q-5.5 5.3125 -13.703125 5.3125q-7.7812195 0 -12.9062195 -4.46875q-5.109375 -4.484375 -5.921875 -11.71875zm81.94528 5.0l0 10.203125l-38.46875 0q0.625 -5.78125 3.75 -10.953125q3.125 -5.1875 12.34375 -13.734375q7.421875 -6.921875 9.09375 -9.375q2.265625 -3.40625 2.265625 -6.71875q0 -3.671875 -1.96875 -5.640625q-1.96875 -1.984375 -5.453125 -1.984375q-3.4375 0 -5.46875 2.078125q-2.03125 2.0625 -2.34375 6.875l-10.9375 -1.09375q0.984375 -9.0625 6.140625 -13.0q5.15625 -3.953125 12.890625 -3.953125q8.46875 0 13.3125 4.578125q4.84375 4.5625 4.84375 11.359375q0 3.859375 -1.390625 7.359375q-1.375 3.5 -4.390625 7.328125q-1.984375 2.53125 -7.1875 7.296875q-5.1875 4.765625 -6.578125 6.328125q-1.390625 1.5625 -2.25 3.046875l21.796875 0z" fill-rule="nonzero"/></g></svg>