<svg version="1.1" viewBox="0.0 0.0 960.0 720.0" fill="none" stroke="none" stroke-linecap="square" stroke-miterlimit="10" xmlns:xlink="http://www.w3.org/1999/xlink" xmlns="http://www.w3.org/2000/svg"><clipPath id="p.0"><path d="m0 0l960.0 0l0 720.0l-960.0 0l0 -720.0z" clip-rule="nonzero"/></clipPath><g clip-path="url(#p.0)"><path fill="#000000" fill-opacity="0.0" d="m0 0l960.0 0l0 720.0l-960.0 0z" fill-rule="evenodd"/><path fill="#8f8f8f" d="m917.0365 508.4551l-850.6242 0l-43.254814 -43.25482l0 -127.01291l0 0l937.13385 0l0 0l0 127.01291z" fill-rule="evenodd"/><path fill="#8f8f8f" d="m23.149607 339.9961l45.968506 -183.87401l845.19684 0l45.968506 183.87401z" fill-rule="evenodd"/><path fill="#ff9900" d="m84.28835 490.6973l0 0c0 -1.9627686 1.5911255 -3.553894 3.5538788 -3.553894l303.00247 0c0.9425659 0 1.8464966 0.37442017 2.5130005 1.0409241c0.6664734 0.6664734 1.0408936 1.570404 1.0408936 2.51297l0 14.215057c0 1.9627686 -1.5911255 3.553894 -3.553894 3.553894l-303.00247 0c-1.9627533 0 -3.5538788 -1.5911255 -3.5538788 -3.553894z" fill-rule="evenodd"/><path fill="#ff9900" d="m427.38034 490.6973l0 0c0 -1.9627686 1.5911255 -3.553894 3.5538635 -3.553894l469.3647 0c0.9425659 0 1.8464966 0.37442017 2.5130005 1.0409241c0.6664429 0.6664734 1.0408936 1.570404 1.0408936 2.51297l0 14.215057c0 1.9627686 -1.5911255 3.553894 -3.553894 3.553894l-469.3647 0c-1.962738 0 -3.5538635 -1.5911255 -3.5538635 -3.553894z" fill-rule="evenodd"/><path fill="#666666" d="m308.48593 156.12204l366.47165 0l0 136.22464l-183.23584 34.056152l-183.23581 -34.056152z" fill-rule="evenodd"/><path fill="#666666" d="m35.509914 452.20624l0 0c0 -1.962738 1.5911255 -3.5538635 3.5538788 -3.5538635l905.3017 0c0.9425659 0 1.8464966 0.37442017 2.5130005 1.0408936c0.6664429 0.6665039 1.0408936 1.5704346 1.0408936 2.51297l0 14.215088c0 1.9627686 -1.5911255 3.553894 -3.553894 3.553894l-905.3017 0l0 0c-1.9627533 0 -3.5538788 -1.5911255 -3.5538788 -3.553894z" fill-rule="evenodd"/><path fill="#000000" fill-opacity="0.0" d="m241.60463 159.55888l500.22913 0l0 170.2112l-250.11453 42.552795l-250.11458 -42.552795z" fill-rule="evenodd"/><path stroke="#666666" stroke-width="8.0" stroke-linejoin="round" stroke-linecap="butt" d="m241.60463 159.55888l500.22913 0l0 170.2112l-250.11453 42.552795l-250.11458 -42.552795z" fill-rule="evenodd"/><g filter="url(#shadowFilter-p.1)"><use xlink:href="#p.1" transform="matrix(1.0 0.0 0.0 1.0 4.76927375328084 -7.632432545931796)"/></g><defs><filter id="shadowFilter-p.1" filterUnits="userSpaceOnUse"><feGaussianBlur in="SourceAlpha" stdDeviation="2.0" result="blur"/><feComponentTransfer in="blur" color-interpolation-filters="sRGB"><feFuncR type="linear" slope="0" intercept="0.0"/><feFuncG type="linear" slope="0" intercept="0.0"/><feFuncB type="linear" slope="0" intercept="0.0"/><feFuncA type="linear" slope="0.5" intercept="0"/></feComponentTransfer></filter></defs><g id="p.1"><path fill="#8f8f8f" d="m893.5956 544.1244l-850.6242 0l-43.254814 -43.25479l0 -127.01291l0 0l937.13385 0l0 0l0 127.01291z" fill-rule="evenodd"/></g><g filter="url(#shadowFilter-p.2)"><use xlink:href="#p.2" transform="matrix(1.0 0.0 0.0 1.0 4.7692734908136485 -7.632432808398924)"/></g><defs><filter id="shadowFilter-p.2" filterUnits="userSpaceOnUse"><feGaussianBlur in="SourceAlpha" stdDeviation="2.0" result="blur"/><feComponentTransfer in="blur" color-interpolation-filters="sRGB"><feFuncR type="linear" slope="0" intercept="0.0"/><feFuncG type="linear" slope="0" intercept="0.0"/><feFuncB type="linear" slope="0" intercept="0.0"/><feFuncA type="linear" slope="0.5" intercept="0"/></feComponentTransfer></filter></defs><g id="p.2"><path fill="#8f8f8f" d="m-0.2913386 375.6654l45.968506 -183.87402l845.19684 0l45.968506 183.87402z" fill-rule="evenodd"/></g><path fill="#ff6000" d="m60.84741 526.3666l0 0c0 -1.9627686 1.5911217 -3.553894 3.553875 -3.553894l303.0025 0c0.9425354 0 1.8464661 0.37445068 2.51297 1.0409546c0.6664734 0.6664429 1.0408936 1.5703735 1.0408936 2.5129395l0 14.215088c0 1.9627686 -1.5911255 3.553894 -3.5538635 3.553894l-303.0025 0c-1.9627533 0 -3.553875 -1.5911255 -3.553875 -3.553894z" fill-rule="evenodd"/><path fill="#ff6000" d="m403.9394 526.3666l0 0c0 -1.9627686 1.5911255 -3.553894 3.5538635 -3.553894l469.36472 0c0.9425049 0 1.8464966 0.37445068 2.5129395 1.0409546c0.6665039 0.6664429 1.0408936 1.5703735 1.0408936 2.5129395l0 14.215088c0 1.9627686 -1.5911255 3.553894 -3.553833 3.553894l-469.36472 0c-1.962738 0 -3.5538635 -1.5911255 -3.5538635 -3.553894z" fill-rule="evenodd"/><path fill="#666666" d="m285.04498 191.79134l366.47162 0l0 136.22462l-183.23581 34.056183l-183.23581 -34.056183z" fill-rule="evenodd"/><path fill="#666666" d="m12.068971 487.87555l0 0c0 -1.9627686 1.5911245 -3.553894 3.5538769 -3.553894l905.3017 0c0.9425049 0 1.8464966 0.37445068 2.5129395 1.0409241c0.6665039 0.6664734 1.0408936 1.570404 1.0408936 2.51297l0 14.215088c0 1.962738 -1.5911255 3.5538635 -3.553833 3.5538635l-905.3017 0l0 0c-1.9627523 0 -3.5538769 -1.5911255 -3.5538769 -3.5538635z" fill-rule="evenodd"/><path fill="#000000" fill-opacity="0.0" d="m218.16368 195.22818l500.22913 0l0 170.21118l-250.11456 42.552795l-250.11458 -42.552795z" fill-rule="evenodd"/><path stroke="#666666" stroke-width="8.0" stroke-linejoin="round" stroke-linecap="butt" d="m218.16368 195.22818l500.22913 0l0 170.21118l-250.11456 42.552795l-250.11458 -42.552795z" fill-rule="evenodd"/><path fill="#000000" fill-opacity="0.0" d="m334.28873 201.87138l267.96848 0l0 92.377945l-267.96848 0z" fill-rule="evenodd"/><path fill="#ff6000" d="m393.0972 277.46826l0 10.203125l-38.46875 0q0.625 -5.78125 3.75 -10.953125q3.125 -5.1875 12.34375 -13.734375q7.421875 -6.921875 9.09375 -9.375q2.265625 -3.40625 2.265625 -6.71875q0 -3.671875 -1.96875 -5.640625q-1.96875 -1.984375 -5.453125 -1.984375q-3.4375 0 -5.46875 2.078125q-2.03125 2.0625 -2.34375 6.875l-10.9375 -1.09375q0.984375 -9.0625 6.140625 -13.0q5.15625 -3.953125 12.890625 -3.953125q8.46875 0 13.3125 4.578125q4.84375 4.5625 4.84375 11.359375q0 3.859375 -1.390625 7.359375q-1.375 3.5 -4.390625 7.328125q-1.984375 2.53125 -7.1875 7.296875q-5.1875 4.765625 -6.578125 6.328125q-1.390625 1.5625 -2.25 3.046875l21.796875 0zm26.25 10.203125l19.578125 -29.890625l-17.734375 -27.375l13.515625 0l11.484375 18.390625l11.25 -18.390625l13.390625 0l-17.8125 27.8125l19.578125 29.453125l-13.953125 0l-12.6875 -19.8125l-12.734375 19.8125l-13.875 0zm107.07028 0l-10.96875 0l0 -41.375q-6.0155945 5.625 -14.1874695 8.328125l0 -9.96875q4.296875 -1.40625 9.328125 -5.328125q5.0468445 -3.921875 6.9218445 -9.15625l8.90625 0l0 57.5zm53.601562 -43.25l-10.625 1.171875q-0.390625 -3.28125 -2.03125 -4.84375q-1.640625 -1.5625 -4.265625 -1.5625q-3.46875 0 -5.875 3.125q-2.40625 3.125 -3.03125 13.015625q4.109375 -4.84375 10.203125 -4.84375q6.875 0 11.765625 5.234375q4.90625 5.234375 4.90625 13.515625q0 8.78125 -5.15625 14.109375q-5.15625 5.3125 -13.234375 5.3125q-8.671875 0 -14.265625 -6.734375q-5.578125 -6.75 -5.578125 -22.109375q0 -15.734375 5.8125 -22.6875q5.828125 -6.953125 15.125 -6.953125q6.515625 0 10.796875 3.65625q4.28125 3.640625 5.453125 10.59375zm-24.890625 23.953125q0 5.34375 2.453125 8.265625q2.46875 2.90625 5.640625 2.90625q3.046875 0 5.078125 -2.375q2.03125 -2.390625 2.03125 -7.828125q0 -5.578125 -2.1875 -8.171875q-2.1875 -2.609375 -5.46875 -2.609375q-3.171875 0 -5.359375 2.484375q-2.1875 2.484375 -2.1875 7.328125z" fill-rule="nonzero"/></g></svg>