<svg version="1.1" viewBox="0.0 0.0 960.0 720.0" fill="none" stroke="none" stroke-linecap="square" stroke-miterlimit="10" xmlns:xlink="http://www.w3.org/1999/xlink" xmlns="http://www.w3.org/2000/svg"><clipPath id="p.0"><path d="m0 0l960.0 0l0 720.0l-960.0 0l0 -720.0z" clip-rule="nonzero"/></clipPath><g clip-path="url(#p.0)"><path fill="#000000" fill-opacity="0.0" d="m0 0l960.0 0l0 720.0l-960.0 0z" fill-rule="evenodd"/><path fill="#8f8f8f" d="m917.0365 508.4551l-850.6242 0l-43.254814 -43.25482l0 -127.01291l0 0l937.13385 0l0 0l0 127.01291z" fill-rule="evenodd"/><path fill="#ff9900" d="m84.28835 490.6973l0 0c0 -1.9627686 1.5911255 -3.553894 3.5538788 -3.553894l303.00247 0c0.9425659 0 1.8464966 0.37442017 2.5130005 1.0409241c0.6664734 0.6664734 1.0408936 1.570404 1.0408936 2.51297l0 14.215057c0 1.9627686 -1.5911255 3.553894 -3.553894 3.553894l-303.00247 0c-1.9627533 0 -3.5538788 -1.5911255 -3.5538788 -3.553894z" fill-rule="evenodd"/><path fill="#ff9900" d="m427.38034 490.6973l0 0c0 -1.9627686 1.5911255 -3.553894 3.5538635 -3.553894l469.3647 0c0.9425659 0 1.8464966 0.37442017 2.5130005 1.0409241c0.6664429 0.6664734 1.0408936 1.570404 1.0408936 2.51297l0 14.215057c0 1.9627686 -1.5911255 3.553894 -3.553894 3.553894l-469.3647 0c-1.962738 0 -3.5538635 -1.5911255 -3.5538635 -3.553894z" fill-rule="evenodd"/><path fill="#666666" d="m308.48593 156.12204l366.47165 0l0 136.22464l-183.23584 34.056152l-183.23581 -34.056152z" fill-rule="evenodd"/><path fill="#666666" d="m35.509914 452.20624l0 0c0 -1.962738 1.5911255 -3.5538635 3.5538788 -3.5538635l905.3017 0c0.9425659 0 1.8464966 0.37442017 2.5130005 1.0408936c0.6664429 0.6665039 1.0408936 1.5704346 1.0408936 2.51297l0 14.215088c0 1.9627686 -1.5911255 3.553894 -3.553894 3.553894l-905.3017 0l0 0c-1.9627533 0 -3.5538788 -1.5911255 -3.5538788 -3.553894z" fill-rule="evenodd"/><path fill="#000000" fill-opacity="0.0" d="m241.60463 159.55888l500.22913 0l0 170.2112l-250.11453 42.552795l-250.11458 -42.552795z" fill-rule="evenodd"/><path stroke="#666666" stroke-width="8.0" stroke-linejoin="round" stroke-linecap="butt" d="m241.60463 159.55888l500.22913 0l0 170.2112l-250.11453 42.552795l-250.11458 -42.552795z" fill-rule="evenodd"/><path fill="#868a7d" d="m917.0286 508.45148l-850.6082 0l-43.26281 -43.262817l0 -127.03641l0 0l937.13385 0l0 0l0 127.03641z" fill-rule="evenodd"/><path fill="#868a7d" d="m84.36589 156.12231l815.15295 0c16.17566 0 31.688843 6.425766 43.12677 17.863693c11.437927 11.437927 17.863647 26.95108 17.863647 43.126755l0 121.81271c0 0.0043029785 -0.003479004 0.0078125 -0.007751465 0.0078125l-937.1261 -0.0078125l0 0c-0.0043144226 0 -0.0078105927 -0.0035095215 -0.0078105927 -0.0078125l0.0078105927 -121.8049l0 0c0 -33.684097 27.30635 -60.990448 60.99044 -60.990448z" fill-rule="evenodd"/><path fill="#00ff00" d="m84.29464 490.69388l0 0c0 -1.962738 1.5911255 -3.5538635 3.5538712 -3.5538635l302.97098 0c0.9425659 0 1.8464966 0.37442017 2.51297 1.0408936c0.6665039 0.6664734 1.0409241 1.5704346 1.0409241 2.51297l0 14.215088c0 1.962738 -1.5911255 3.5538635 -3.553894 3.5538635l-302.97098 0c-1.9627457 0 -3.5538712 -1.5911255 -3.5538712 -3.5538635z" fill-rule="evenodd"/><path fill="#00ff00" d="m427.38422 490.69388l0 0c0 -1.962738 1.591095 -3.5538635 3.5538635 -3.5538635l469.36472 0c0.9425049 0 1.8464355 0.37442017 2.5129395 1.0408936c0.6665039 0.6664734 1.0408936 1.5704346 1.0408936 2.51297l0 14.215088c0 1.962738 -1.5911255 3.5538635 -3.553833 3.5538635l-469.36472 0c-1.9627686 0 -3.5538635 -1.5911255 -3.5538635 -3.5538635z" fill-rule="evenodd"/><path fill="#636759" d="m35.516544 452.20328l0 0c0 -1.962738 1.5911255 -3.5538635 3.553875 -3.5538635l905.3017 0c0.9425049 0 1.8464966 0.37442017 2.5129395 1.0408936c0.6665039 0.6664734 1.0408936 1.5704346 1.0408936 2.51297l0 14.215088c0 1.962738 -1.5911255 3.5538635 -3.553833 3.5538635l-905.3017 0l0 0c-1.9627495 0 -3.553875 -1.5911255 -3.553875 -3.5538635z" fill-rule="evenodd"/><path fill="#000000" fill-opacity="0.0" d="m653.64716 362.01035l-323.41046 0l0 0c-23.509125 0 -46.05536 -9.338959 -62.678833 -25.962402c-16.623444 -16.623474 -25.962402 -39.16971 -25.962402 -62.678833l0 -113.846954c0 -0.0023040771 0.0018615723 -0.0041656494 0.0041656494 -0.0041656494l500.68878 0.0041656494l0 0c0.0022583008 0 0.0041503906 0.001876831 0.0041503906 0.004180908l-0.0041503906 113.84277l0 0c0 48.9552 -39.686035 88.641235 -88.641235 88.641235z" fill-rule="evenodd"/><path stroke="#636759" stroke-width="8.0" stroke-linejoin="round" stroke-linecap="butt" d="m653.64716 362.01035l-323.41046 0l0 0c-23.509125 0 -46.05536 -9.338959 -62.678833 -25.962402c-16.623444 -16.623474 -25.962402 -39.16971 -25.962402 -62.678833l0 -113.846954c0 -0.0023040771 0.0018615723 -0.0041656494 0.0041656494 -0.0041656494l500.68878 0.0041656494l0 0c0.0022583008 0 0.0041503906 0.001876831 0.0041503906 0.004180908l-0.0041503906 113.84277l0 0c0 48.9552 -39.686035 88.641235 -88.641235 88.641235z" fill-rule="evenodd"/><path fill="#636759" d="m602.12244 317.31662l-220.8038 0l0 0c-18.316559 0 -35.882904 -7.276245 -48.834686 -20.227997c-12.951752 -12.951752 -20.227966 -30.518127 -20.227966 -48.834686l0 -88.70111c0 -0.0016479492 0.0013122559 -0.0029907227 0.0029907227 -0.0029907227l358.92615 0.0029907227l0 0c0.0016479492 0 0.0029907227 0.0013427734 0.0029907227 0.0029907227l-0.0029907227 88.69812l0 0c0 38.142273 -30.92041 69.06268 -69.06268 69.06268z" fill-rule="evenodd"/><path fill="#ff9900" d="m60.84741 526.3666l0 0c0 -1.9627686 1.5911217 -3.553894 3.553875 -3.553894l303.0025 0c0.9425354 0 1.8464661 0.37445068 2.51297 1.0409546c0.6664734 0.6664429 1.0408936 1.5703735 1.0408936 2.5129395l0 14.215088c0 1.9627686 -1.5911255 3.553894 -3.5538635 3.553894l-303.0025 0c-1.9627533 0 -3.553875 -1.5911255 -3.553875 -3.553894z" fill-rule="evenodd"/><path fill="#ff9900" d="m403.9394 526.3666l0 0c0 -1.9627686 1.5911255 -3.553894 3.5538635 -3.553894l469.36472 0c0.9425049 0 1.8464966 0.37445068 2.5129395 1.0409546c0.6665039 0.6664429 1.0408936 1.5703735 1.0408936 2.5129395l0 14.215088c0 1.9627686 -1.5911255 3.553894 -3.553833 3.553894l-469.36472 0c-1.962738 0 -3.5538635 -1.5911255 -3.5538635 -3.553894z" fill-rule="evenodd"/><path fill="#666666" d="m285.04498 191.79134l366.47162 0l0 136.22462l-183.23581 34.056183l-183.23581 -34.056183z" fill-rule="evenodd"/><path fill="#666666" d="m12.068971 487.87555l0 0c0 -1.9627686 1.5911245 -3.553894 3.5538769 -3.553894l905.3017 0c0.9425049 0 1.8464966 0.37445068 2.5129395 1.0409241c0.6665039 0.6664734 1.0408936 1.570404 1.0408936 2.51297l0 14.215088c0 1.962738 -1.5911255 3.5538635 -3.553833 3.5538635l-905.3017 0l0 0c-1.9627523 0 -3.5538769 -1.5911255 -3.5538769 -3.5538635z" fill-rule="evenodd"/><path fill="#000000" fill-opacity="0.0" d="m218.16368 195.22818l500.22913 0l0 170.21118l-250.11456 42.552795l-250.11458 -42.552795z" fill-rule="evenodd"/><path stroke="#666666" stroke-width="8.0" stroke-linejoin="round" stroke-linecap="butt" d="m218.16368 195.22818l500.22913 0l0 170.21118l-250.11456 42.552795l-250.11458 -42.552795z" fill-rule="evenodd"/><g filter="url(#shadowFilter-p.1)"><use xlink:href="#p.1" transform="matrix(1.0 0.0 0.0 1.0 4.7692734908136485 -7.632432808398924)"/></g><defs><filter id="shadowFilter-p.1" filterUnits="userSpaceOnUse"><feGaussianBlur in="SourceAlpha" stdDeviation="2.0" result="blur"/><feComponentTransfer in="blur" color-interpolation-filters="sRGB"><feFuncR type="linear" slope="0" intercept="0.0"/><feFuncG type="linear" slope="0" intercept="0.0"/><feFuncB type="linear" slope="0" intercept="0.0"/><feFuncA type="linear" slope="0.5" intercept="0"/></feComponentTransfer></filter></defs><g id="p.1"><path fill="#868a7d" d="m893.79767 544.45935l-850.6082 0l-43.26281 -43.262817l0 -127.03641l0 0l937.13385 0l0 0l0 127.03641z" fill-rule="evenodd"/></g><g filter="url(#shadowFilter-p.2)"><use xlink:href="#p.2" transform="matrix(1.0 0.0 0.0 1.0 4.7692732283464565 -7.632432808398924)"/></g><defs><filter id="shadowFilter-p.2" filterUnits="userSpaceOnUse"><feGaussianBlur in="SourceAlpha" stdDeviation="2.0" result="blur"/><feComponentTransfer in="blur" color-interpolation-filters="sRGB"><feFuncR type="linear" slope="0" intercept="0.0"/><feFuncG type="linear" slope="0" intercept="0.0"/><feFuncB type="linear" slope="0" intercept="0.0"/><feFuncA type="linear" slope="0.5" intercept="0"/></feComponentTransfer></filter></defs><g id="p.2"><path fill="#868a7d" d="m60.917072 191.79161l815.153 0c16.17566 0 31.688782 6.425766 43.12671 17.863693c11.437927 11.437927 17.863708 26.95108 17.863708 43.126755l0 121.8127c0 0.0043029785 -0.003479004 0.0078125 -0.0078125 0.0078125l-937.12604 -0.0078125l0 0c-0.004313037 0 -0.0078094453 -0.003479004 -0.0078094453 -0.0078125l0.0078094453 -121.804886l0 0c0 -33.684097 27.306353 -60.990448 60.99044 -60.990448z" fill-rule="evenodd"/></g><path fill="#00ff00" d="m60.845818 526.3789l0 0c0 -1.9627075 1.5911255 -3.553833 3.5538788 -3.553833l302.971 0c0.9425354 0 1.8464661 0.37438965 2.51297 1.0408936c0.6664734 0.6664429 1.0408936 1.5704346 1.0408936 2.5129395l0 14.215088c0 1.9627686 -1.5911255 3.553894 -3.5538635 3.553894l-302.971 0c-1.9627533 0 -3.5538788 -1.5911255 -3.5538788 -3.553894z" fill-rule="evenodd"/><path fill="#00ff00" d="m403.9354 526.3789l0 0c0 -1.9627075 1.5911255 -3.553833 3.5538635 -3.553833l469.3647 0c0.9425659 0 1.8464966 0.37438965 2.5130005 1.0408936c0.6664429 0.6664429 1.0408936 1.5704346 1.0408936 2.5129395l0 14.215088c0 1.9627686 -1.5911255 3.553894 -3.553894 3.553894l-469.3647 0c-1.962738 0 -3.5538635 -1.5911255 -3.5538635 -3.553894z" fill-rule="evenodd"/><path fill="#636759" d="m12.067725 487.8883l0 0c0 -1.962738 1.5911245 -3.5538635 3.5538769 -3.5538635l905.3017 0c0.9425659 0 1.8464966 0.37442017 2.5130005 1.0408936c0.6664429 0.6665039 1.0408936 1.5704346 1.0408936 2.51297l0 14.215088c0 1.9627686 -1.5911255 3.553894 -3.553894 3.553894l-905.3017 0l0 0c-1.9627523 0 -3.5538769 -1.5911255 -3.5538769 -3.553894z" fill-rule="evenodd"/><path fill="#000000" fill-opacity="0.0" d="m630.1983 397.69537l-323.41043 0l0 0c-23.509125 0 -46.05536 -9.338959 -62.678818 -25.962402c-16.623459 -16.623444 -25.962418 -39.16971 -25.962418 -62.678802l0 -113.84697c0 -0.0023040771 0.0018615723 -0.004180908 0.0041656494 -0.004180908l500.68872 0.004180908l0 0c0.002319336 0 0.0041503906 0.0018615723 0.0041503906 0.0041656494l-0.0041503906 113.842804l0 0c0 48.9552 -39.686035 88.641205 -88.641235 88.641205z" fill-rule="evenodd"/><path stroke="#636759" stroke-width="8.0" stroke-linejoin="round" stroke-linecap="butt" d="m630.1983 397.69537l-323.41043 0l0 0c-23.509125 0 -46.05536 -9.338959 -62.678818 -25.962402c-16.623459 -16.623444 -25.962418 -39.16971 -25.962418 -62.678802l0 -113.84697c0 -0.0023040771 0.0018615723 -0.004180908 0.0041656494 -0.004180908l500.68872 0.004180908l0 0c0.002319336 0 0.0041503906 0.0018615723 0.0041503906 0.0041656494l-0.0041503906 113.842804l0 0c0 48.9552 -39.686035 88.641205 -88.641235 88.641205z" fill-rule="evenodd"/><path fill="#636759" d="m578.6736 353.00165l-220.80377 0l0 0c-18.316559 0 -35.882904 -7.2762146 -48.834686 -20.227997c-12.951752 -12.951752 -20.227966 -30.518097 -20.227966 -48.834686l0 -88.701096c0 -0.0016479492 0.0013427734 -0.0029907227 0.0029907227 -0.0029907227l358.92612 0.0029907227l0 0c0.0016479492 0 0.0029907227 0.0013427734 0.0029907227 0.0029907227l-0.0029907227 88.698105l0 0c0 38.142273 -30.92041 69.06268 -69.06268 69.06268z" fill-rule="evenodd"/><path fill="#000000" fill-opacity="0.0" d="m334.28873 201.87138l267.96848 0l0 92.377945l-267.96848 0z" fill-rule="evenodd"/><path fill="#00ff00" d="m393.0972 277.46826l0 10.203125l-38.46875 0q0.625 -5.78125 3.75 -10.953125q3.125 -5.1875 12.34375 -13.734375q7.421875 -6.921875 9.09375 -9.375q2.265625 -3.40625 2.265625 -6.71875q0 -3.671875 -1.96875 -5.640625q-1.96875 -1.984375 -5.453125 -1.984375q-3.4375 0 -5.46875 2.078125q-2.03125 2.0625 -2.34375 6.875l-10.9375 -1.09375q0.984375 -9.0625 6.140625 -13.0q5.15625 -3.953125 12.890625 -3.953125q8.46875 0 13.3125 4.578125q4.84375 4.5625 4.84375 11.359375q0 3.859375 -1.390625 7.359375q-1.375 3.5 -4.390625 7.328125q-1.984375 2.53125 -7.1875 7.296875q-5.1875 4.765625 -6.578125 6.328125q-1.390625 1.5625 -2.25 3.046875l21.796875 0zm26.25 10.203125l19.578125 -29.890625l-17.734375 -27.375l13.515625 0l11.484375 18.390625l11.25 -18.390625l13.390625 0l-17.8125 27.8125l19.578125 29.453125l-13.953125 0l-12.6875 -19.8125l-12.734375 19.8125l-13.875 0zm116.05466 -10.203125l0 10.203125l-38.46872 0q0.625 -5.78125 3.75 -10.953125q3.125 -5.1875 12.3437195 -13.734375q7.421875 -6.921875 9.09375 -9.375q2.265625 -3.40625 2.265625 -6.71875q0 -3.671875 -1.96875 -5.640625q-1.96875 -1.984375 -5.453125 -1.984375q-3.4375 0 -5.4687195 2.078125q-2.03125 2.0625 -2.34375 6.875l-10.9375 -1.09375q0.984375 -9.0625 6.140625 -13.0q5.15625 -3.953125 12.8905945 -3.953125q8.46875 0 13.3125 4.578125q4.84375 4.5625 4.84375 11.359375q0 3.859375 -1.390625 7.359375q-1.375 3.5 -4.390625 7.328125q-1.984375 2.53125 -7.1875 7.296875q-5.1875 4.765625 -6.578125 6.328125q-1.390625 1.5625 -2.25 3.046875l21.796875 0zm28.945312 10.203125l0 -11.53125l-23.4375 0l0 -9.609375l24.84375 -36.359375l9.21875 0l0 36.328125l7.109375 0l0 9.640625l-7.109375 0l0 11.53125l-10.625 0zm0 -21.171875l0 -19.578125l-13.15625 19.578125l13.15625 0z" fill-rule="nonzero"/></g></svg>