<svg version="1.1" viewBox="0.0 0.0 960.0 720.0" fill="none" stroke="none" stroke-linecap="square" stroke-miterlimit="10" xmlns:xlink="http://www.w3.org/1999/xlink" xmlns="http://www.w3.org/2000/svg"><clipPath id="p.0"><path d="m0 0l960.0 0l0 720.0l-960.0 0l0 -720.0z" clip-rule="nonzero"/></clipPath><g clip-path="url(#p.0)"><path fill="#000000" fill-opacity="0.0" d="m0 0l960.0 0l0 720.0l-960.0 0z" fill-rule="evenodd"/><path fill="#5cb3ad" d="m124.884514 0l720.0 0l0 720.0l-720.0 0z" fill-rule="evenodd"/><path stroke="#000000" stroke-width="3.0" stroke-linejoin="round" stroke-linecap="butt" d="m124.884514 0l720.0 0l0 720.0l-720.0 0z" fill-rule="evenodd"/><path fill="#b7b7b7" d="m129.71916 259.50577l0 0c0 -29.053207 23.552292 -52.6055 52.605515 -52.6055l605.1196 0c13.951843 0 27.332275 5.542343 37.197754 15.407791c9.8654175 9.865448 15.407776 23.245865 15.407776 37.19771l0 175.57639c0 29.053223 -23.552307 52.6055 -52.60553 52.6055l-605.1196 0c-29.053223 0 -52.605515 -23.552277 -52.605515 -52.6055z" fill-rule="evenodd"/><path fill="#cccccc" d="m149.87665 124.10756l0 0c0 -54.739944 44.37549 -99.11543 99.11542 -99.11543l471.7849 0c26.287048 0 51.497437 10.44249 70.085144 29.030235c18.587769 18.587753 29.030273 43.79815 29.030273 70.0852l0 471.7849c0 54.73993 -44.37549 99.11542 -99.11542 99.11542l-471.7849 0c-54.73993 0 -99.11542 -44.37549 -99.11542 -99.11542z" fill-rule="evenodd"/><path fill="#cccccc" d="m163.60892 133.77701l0 0c0 -52.4961 42.556503 -95.0526 95.05261 -95.0526l452.44595 0c25.209534 0 49.386536 10.014439 67.21234 27.840256c17.825867 17.82582 27.840271 42.002823 27.840271 67.21234l0 452.446c0 52.496094 -42.556458 95.05255 -95.05261 95.05255l-452.44595 0c-52.49611 0 -95.05261 -42.556458 -95.05261 -95.05255z" fill-rule="evenodd"/><path stroke="#dcc374" stroke-width="8.0" stroke-linejoin="round" stroke-linecap="butt" d="m163.60892 133.77701l0 0c0 -52.4961 42.556503 -95.0526 95.05261 -95.0526l452.44595 0c25.209534 0 49.386536 10.014439 67.21234 27.840256c17.825867 17.82582 27.840271 42.002823 27.840271 67.21234l0 452.446c0 52.496094 -42.556458 95.05255 -95.05261 95.05255l-452.44595 0c-52.49611 0 -95.05261 -42.556458 -95.05261 -95.05255z" fill-rule="evenodd"/><path fill="#d6d8dc" d="m189.97067 264.1892l81.50986 -59.21576l31.136414 -95.80787l100.75403 -0.0027008057l81.51355 -59.210125l81.51355 59.210125l100.75403 0.0027008057l31.136414 95.80787l81.50983 59.21576l-31.132996 95.81079l31.132996 95.81079l-81.50983 59.21576l-31.136414 95.80786l-100.75403 0.0026855469l-81.51355 59.210144l-81.51355 -59.210144l-100.75403 -0.0026855469l-31.136414 -95.80786l-81.50986 -59.21576l31.132996 -95.81079z" fill-rule="evenodd"/><path stroke="#dcc374" stroke-width="8.0" stroke-linejoin="round" stroke-linecap="butt" d="m189.97067 264.1892l81.50986 -59.21576l31.136414 -95.80787l100.75403 -0.0027008057l81.51355 -59.210125l81.51355 59.210125l100.75403 0.0027008057l31.136414 95.80787l81.50983 59.21576l-31.132996 95.81079l31.132996 95.81079l-81.50983 59.21576l-31.136414 95.80786l-100.75403 0.0026855469l-81.51355 59.210144l-81.51355 -59.210144l-100.75403 -0.0026855469l-31.136414 -95.80786l-81.50986 -59.21576l31.132996 -95.81079z" fill-rule="evenodd"/></g></svg>