<svg version="1.1" viewBox="0.0 0.0 960.0 720.0" fill="none" stroke="none" stroke-linecap="square" stroke-miterlimit="10" xmlns:xlink="http://www.w3.org/1999/xlink" xmlns="http://www.w3.org/2000/svg"><clipPath id="p.0"><path d="m0 0l960.0 0l0 720.0l-960.0 0l0 -720.0z" clip-rule="nonzero"/></clipPath><g clip-path="url(#p.0)"><path fill="#000000" fill-opacity="0.0" d="m0 0l960.0 0l0 720.0l-960.0 0z" fill-rule="evenodd"/><path fill="#ff0000" d="m217.6693 360.0l0 0c0 -144.88126 117.44945 -262.33072 262.3307 -262.33072l0 0c69.5744 0 136.29926 27.638336 185.49585 76.83489c49.196533 49.19655 76.83484 115.92139 76.83484 185.49582l0 0c0 144.88126 -117.44946 262.3307 -262.3307 262.3307l0 0c-144.88126 0 -262.3307 -117.44943 -262.3307 -262.3307z" fill-rule="evenodd"/><path fill="#ffffff" d="m506.04108 243.03125l-5.375 164.54688l-39.0625 0l-5.53125 -164.54688l49.96875 0zm-51.265625 215.48438q0 -10.421875 7.234375 -17.328125q7.25 -6.921875 19.125 -6.921875q12.046875 0 19.203125 6.921875q7.171875 6.90625 7.171875 17.328125q0 10.09375 -7.171875 17.09375q-7.15625 7.0 -19.203125 7.0q-11.875 0 -19.125 -7.0q-7.234375 -7.0 -7.234375 -17.09375z" fill-rule="nonzero"/></g></svg>