<svg version="1.1" viewBox="0.0 0.0 960.0 720.0" fill="none" stroke="none" stroke-linecap="square" stroke-miterlimit="10" xmlns:xlink="http://www.w3.org/1999/xlink" xmlns="http://www.w3.org/2000/svg"><clipPath id="p.0"><path d="m0 0l960.0 0l0 720.0l-960.0 0l0 -720.0z" clip-rule="nonzero"/></clipPath><g clip-path="url(#p.0)"><path fill="#000000" fill-opacity="0.0" d="m0 0l960.0 0l0 720.0l-960.0 0z" fill-rule="evenodd"/><path fill="#635653" d="m124.884514 0l720.0 0l0 720.0l-720.0 0z" fill-rule="evenodd"/><path stroke="#000000" stroke-width="3.0" stroke-linejoin="round" stroke-linecap="butt" d="m124.884514 0l720.0 0l0 720.0l-720.0 0z" fill-rule="evenodd"/><path fill="#4b4747" d="m124.884514 0l720.0 0l0 720.0l-720.0 0zm48.211205 48.2112l0 623.57764l623.57764 0l0 -623.57764z" fill-rule="evenodd"/><path stroke="#000000" stroke-width="3.0" stroke-linejoin="round" stroke-linecap="butt" d="m124.884514 0l720.0 0l0 720.0l-720.0 0zm48.211205 48.2112l0 623.57764l623.57764 0l0 -623.57764z" fill-rule="evenodd"/><path fill="#515759" d="m255.34383 0l273.88977 0l46.26776 46.267715l0 46.267715l0 0l-273.8898 0l-46.267715 -46.267715l0 -46.267715z" fill-rule="evenodd"/><path stroke="#000000" stroke-width="3.0" stroke-linejoin="round" stroke-linecap="butt" d="m255.34383 0l273.88977 0l46.26776 46.267715l0 46.267715l0 0l-273.8898 0l-46.267715 -46.267715l0 -46.267715z" fill-rule="evenodd"/><path fill="#9d934b" d="m320.18634 164.87216l0 0c0 -21.080017 17.088745 -38.168747 38.168762 -38.168747l155.47351 0l0 0c10.122986 0 19.83136 4.021332 26.98938 11.179367c7.15802 7.15802 11.179382 16.866394 11.179382 26.98938l0 152.67038c0 21.080017 -17.088745 38.16873 -38.168762 38.16873l-155.47351 0c-21.080017 0 -38.168762 -17.088715 -38.168762 -38.16873z" fill-rule="evenodd"/><path stroke="#000000" stroke-width="1.0" stroke-linejoin="round" stroke-linecap="butt" d="m320.18634 164.87216l0 0c0 -21.080017 17.088745 -38.168747 38.168762 -38.168747l155.47351 0l0 0c10.122986 0 19.83136 4.021332 26.98938 11.179367c7.15802 7.15802 11.179382 16.866394 11.179382 26.98938l0 152.67038c0 21.080017 -17.088745 38.16873 -38.168762 38.16873l-155.47351 0c-21.080017 0 -38.168762 -17.088715 -38.168762 -38.16873z" fill-rule="evenodd"/><path fill="#515759" d="m259.09186 110.80133l0 216.38159l-32.817078 32.817078l-101.38764 0l0 0l0 -282.01575l0 0l101.38764 0z" fill-rule="evenodd"/><path stroke="#000000" stroke-width="3.0" stroke-linejoin="round" stroke-linecap="butt" d="m259.09186 110.80133l0 216.38159l-32.817078 32.817078l-101.38764 0l0 0l0 -282.01575l0 0l101.38764 0z" fill-rule="evenodd"/><path fill="#d5c978" d="m358.09186 163.20735l156.0 0l0 155.99998l-156.0 0zm19.5 19.5l0 116.999985l117.0 0l0 -116.999985z" fill-rule="evenodd"/><path stroke="#000000" stroke-width="3.0" stroke-linejoin="round" stroke-linecap="butt" d="m358.09186 163.20735l156.0 0l0 155.99998l-156.0 0zm19.5 19.5l0 116.999985l117.0 0l0 -116.999985z" fill-rule="evenodd"/><path fill="#434343" d="m183.09186 580.20734l418.01575 0l0 32.0l-418.01575 0zm10.0 10.0l0 12.0l398.01575 0l0 -12.0z" fill-rule="evenodd"/><path stroke="#000000" stroke-width="1.0" stroke-linejoin="round" stroke-linecap="butt" d="m183.09186 580.20734l418.01575 0l0 32.0l-418.01575 0zm10.0 10.0l0 12.0l398.01575 0l0 -12.0z" fill-rule="evenodd"/><path fill="#515759" d="m613.09186 449.20734l144.20471 0l87.60632 87.60632l0 87.60626l0 0l-144.20471 0l-87.60632 -87.60626l0 -87.60632z" fill-rule="evenodd"/><path stroke="#000000" stroke-width="3.0" stroke-linejoin="round" stroke-linecap="butt" d="m613.09186 449.20734l144.20471 0l87.60632 87.60632l0 87.60626l0 0l-144.20471 0l-87.60632 -87.60626l0 -87.60632z" fill-rule="evenodd"/><path fill="#434343" d="m682.33594 58.207348l0 345.00787l-26.708618 0l0 -345.00787zm-8.346436 8.346455l-10.015747 0l0 328.31497l10.015747 0z" fill-rule="evenodd"/><path stroke="#000000" stroke-width="1.0" stroke-linejoin="round" stroke-linecap="butt" d="m682.33594 58.207348l0 345.00787l-26.708618 0l0 -345.00787zm-8.346436 8.346455l-10.015747 0l0 328.31497l10.015747 0z" fill-rule="evenodd"/><path fill="#434343" d="m709.2336 58.207348l0 345.00787l-26.708618 0l0 -345.00787zm-8.346436 8.346455l-10.015747 0l0 328.31497l10.015747 0z" fill-rule="evenodd"/><path stroke="#000000" stroke-width="1.0" stroke-linejoin="round" stroke-linecap="butt" d="m709.2336 58.207348l0 345.00787l-26.708618 0l0 -345.00787zm-8.346436 8.346455l-10.015747 0l0 328.31497l10.015747 0z" fill-rule="evenodd"/><path fill="#434343" d="m736.1312 58.207348l0 345.00787l-26.70868 0l0 -345.00787zm-8.346436 8.346455l-10.015747 0l0 328.31497l10.015747 0z" fill-rule="evenodd"/><path stroke="#000000" stroke-width="1.0" stroke-linejoin="round" stroke-linecap="butt" d="m736.1312 58.207348l0 345.00787l-26.70868 0l0 -345.00787zm-8.346436 8.346455l-10.015747 0l0 328.31497l10.015747 0z" fill-rule="evenodd"/><path fill="#434343" d="m762.8399 58.207348l0 345.00787l-26.70868 0l0 -345.00787zm-8.346497 8.346455l-10.015747 0l0 328.31497l10.015747 0z" fill-rule="evenodd"/><path stroke="#000000" stroke-width="1.0" stroke-linejoin="round" stroke-linecap="butt" d="m762.8399 58.207348l0 345.00787l-26.70868 0l0 -345.00787zm-8.346497 8.346455l-10.015747 0l0 328.31497l10.015747 0z" fill-rule="evenodd"/><path fill="#d5c978" d="m183.09186 449.20734l418.01575 0l0 32.0l-418.01575 0zm10.0 10.0l0 12.0l398.01575 0l0 -12.0z" fill-rule="evenodd"/><path stroke="#000000" stroke-width="3.0" stroke-linejoin="round" stroke-linecap="butt" d="m183.09186 449.20734l418.01575 0l0 32.0l-418.01575 0zm10.0 10.0l0 12.0l398.01575 0l0 -12.0z" fill-rule="evenodd"/><path fill="#000000" fill-opacity="0.0" d="m132.18636 177.70341l209.98424 0l0 106.01573l-209.98424 0z" fill-rule="evenodd"/><path fill="#d5c978" d="m148.38948 226.3834l-7.0625 -29.578125l6.109375 0l4.46875 20.3125l5.40625 -20.3125l7.109375 0l5.171875 20.65625l4.546875 -20.65625l6.015625 0l-7.1875 29.578125l-6.328125 0l-5.90625 -22.109375l-5.859375 22.109375l-6.484375 0zm34.63246 0l0 -29.578125l5.96875 0l0 29.578125l-5.96875 0zm11.701035 0l0 -29.578125l20.28125 0l0 5.0l-14.3125 0l0 7.0l12.359375 0l0 5.0l-12.359375 0l0 12.578125l-5.96875 0zm25.026123 0l0 -29.578125l5.96875 0l0 29.578125l-5.96875 0z" fill-rule="nonzero"/><path fill="#000000" fill-opacity="0.0" d="m655.6273 394.7034l209.98425 0l0 106.01575l-209.98425 0z" fill-rule="evenodd"/><path fill="#d5c978" d="m666.7523 410.8634l7.734375 0q2.625 0 4.0 0.40625q1.84375 0.546875 3.15625 1.9375q1.328125 1.390625 2.015625 3.40625q0.6875 2.0 0.6875 4.953125q0 2.59375 -0.640625 4.46875q-0.796875 2.296875 -2.25 3.703125q-1.109375 1.078125 -2.984375 1.6875q-1.40625 0.4375 -3.75 0.4375l-7.96875 0l0 -21.0zm4.234375 3.5625l0 13.90625l3.15625 0q1.78125 0 2.578125 -0.203125q1.03125 -0.265625 1.703125 -0.875q0.6875 -0.625 1.109375 -2.03125q0.4375 -1.40625 0.4375 -3.84375q0 -2.4375 -0.4375 -3.734375q-0.421875 -1.296875 -1.203125 -2.03125q-0.765625 -0.734375 -1.953125 -0.984375q-0.890625 -0.203125 -3.484375 -0.203125l-1.90625 0zm16.945435 -3.5625l7.734375 0q2.625 0 4.0 0.40625q1.84375 0.546875 3.15625 1.9375q1.328125 1.390625 2.015625 3.40625q0.6875 2.0 0.6875 4.953125q0 2.59375 -0.640625 4.46875q-0.796875 2.296875 -2.25 3.703125q-1.109375 1.078125 -2.984375 1.6875q-1.40625 0.4375 -3.75 0.4375l-7.96875 0l0 -21.0zm4.234375 3.5625l0 13.90625l3.15625 0q1.78125 0 2.578125 -0.203125q1.03125 -0.265625 1.703125 -0.875q0.6875 -0.625 1.109375 -2.03125q0.4375 -1.40625 0.4375 -3.84375q0 -2.4375 -0.4375 -3.734375q-0.421875 -1.296875 -1.203125 -2.03125q-0.765625 -0.734375 -1.953125 -0.984375q-0.890625 -0.203125 -3.484375 -0.203125l-1.90625 0zm16.96112 17.4375l0 -21.0l8.921875 0q3.375 0 4.890625 0.578125q1.53125 0.5625 2.4375 2.015625q0.921875 1.4375 0.921875 3.296875q0 2.359375 -1.390625 3.90625q-1.375 1.53125 -4.140625 1.9375q1.375 0.796875 2.265625 1.765625q0.890625 0.953125 2.40625 3.40625l2.5625 4.09375l-5.0625 0l-3.0625 -4.5625q-1.640625 -2.453125 -2.25 -3.09375q-0.59375 -0.640625 -1.265625 -0.875q-0.671875 -0.234375 -2.125 -0.234375l-0.859375 0l0 8.765625l-4.25 0zm4.25 -12.109375l3.125 0q3.0625 0 3.8125 -0.25q0.765625 -0.265625 1.1875 -0.890625q0.4375 -0.640625 0.4375 -1.578125q0 -1.0625 -0.578125 -1.71875q-0.5625 -0.65625 -1.59375 -0.828125q-0.515625 -0.0625 -3.09375 -0.0625l-3.296875 0l0 5.328125zm23.92981 12.109375l0 -4.21875l-8.59375 0l0 -3.53125l9.109375 -13.328125l3.375 0l0 13.3125l2.609375 0l0 3.546875l-2.609375 0l0 4.21875l-3.890625 0zm0 -7.765625l0 -7.171875l-4.828125 7.171875l4.828125 0z" fill-rule="nonzero"/><path fill="#000000" fill-opacity="0.0" d="m393.90683 194.29396l209.98422 0l0 106.01576l-209.98422 0z" fill-rule="evenodd"/><path fill="#666666" d="m423.96933 231.45396l-4.609375 0l-1.828125 -4.765625l-8.390625 0l-1.734375 4.765625l-4.5 0l8.171875 -21.0l4.484375 0l8.40625 21.0zm-7.796875 -8.3125l-2.890625 -7.78125l-2.84375 7.78125l5.734375 0zm9.99234 8.3125l0 -21.0l6.34375 0l3.8125 14.328125l3.765625 -14.328125l6.359375 0l0 21.0l-3.9375 0l0 -16.53125l-4.171875 16.53125l-4.078125 0l-4.15625 -16.53125l0 16.53125l-3.9375 0zm24.477417 -21.0l7.734375 0q2.625 0 4.0 0.40625q1.84375 0.546875 3.15625 1.9375q1.328125 1.390625 2.015625 3.40625q0.6875 2.0 0.6875 4.953125q0 2.59375 -0.640625 4.46875q-0.796875 2.296875 -2.25 3.703125q-1.109375 1.078125 -2.984375 1.6875q-1.40625 0.4375 -3.75 0.4375l-7.96875 0l0 -21.0zm4.234375 3.5625l0 13.90625l3.15625 0q1.78125 0 2.578125 -0.203125q1.03125 -0.265625 1.703125 -0.875q0.6875 -0.625 1.109375 -2.03125q0.4375 -1.40625 0.4375 -3.84375q0 -2.4375 -0.4375 -3.734375q-0.421875 -1.296875 -1.203125 -2.03125q-0.765625 -0.734375 -1.953125 -0.984375q-0.890625 -0.203125 -3.484375 -0.203125l-1.90625 0z" fill-rule="nonzero"/><path fill="#666666" d="m423.96933 266.65396l-4.609375 0l-1.828125 -4.765625l-8.390625 0l-1.734375 4.765625l-4.5 0l8.171875 -21.0l4.484375 0l8.40625 21.0zm-7.796875 -8.3125l-2.890625 -7.78125l-2.84375 7.78125l5.734375 0zm9.99234 8.3125l0 -21.0l6.34375 0l3.8125 14.328125l3.765625 -14.328125l6.359375 0l0 21.0l-3.9375 0l0 -16.53125l-4.171875 16.53125l-4.078125 0l-4.15625 -16.53125l0 16.53125l-3.9375 0zm23.649292 -5.40625l4.015625 -0.40625q0.171875 1.359375 1.015625 2.15625q0.84375 0.796875 1.953125 0.796875q1.25 0 2.125 -1.015625q0.875 -1.03125 0.875 -3.09375q0 -1.9375 -0.875 -2.90625q-0.859375 -0.96875 -2.25 -0.96875q-1.71875 0 -3.09375 1.53125l-3.265625 -0.46875l2.0625 -10.921875l10.640625 0l0 3.765625l-7.59375 0l-0.640625 3.5625q1.359375 -0.671875 2.75 -0.671875q2.6875 0 4.546875 1.953125q1.859375 1.9375 1.859375 5.046875q0 2.59375 -1.5 4.625q-2.046875 2.78125 -5.6875 2.78125q-2.90625 0 -4.75 -1.5625q-1.828125 -1.5625 -2.1875 -4.203125z" fill-rule="nonzero"/></g></svg>