<svg version="1.1" viewBox="0.0 0.0 960.0 720.0" fill="none" stroke="none" stroke-linecap="square" stroke-miterlimit="10" xmlns:xlink="http://www.w3.org/1999/xlink" xmlns="http://www.w3.org/2000/svg"><clipPath id="p.0"><path d="m0 0l960.0 0l0 720.0l-960.0 0l0 -720.0z" clip-rule="nonzero"/></clipPath><g clip-path="url(#p.0)"><path fill="#000000" fill-opacity="0.0" d="m0 0l960.0 0l0 720.0l-960.0 0z" fill-rule="evenodd"/><path fill="#6b7b80" d="m-0.3464567 106.11024l957.4803 0l0 507.77954l-957.4803 0z" fill-rule="evenodd"/><path stroke="#000000" stroke-width="3.0" stroke-linejoin="round" stroke-linecap="butt" d="m-0.3464567 106.11024l957.4803 0l0 507.77954l-957.4803 0z" fill-rule="evenodd"/><path fill="#cecece" d="m476.06168 350.61417l0 0c0 -134.36609 107.98044 -243.29132 241.18112 -243.29132l0 0c63.96521 0 125.31055 25.632408 170.54077 71.258385c45.230225 45.625977 70.64032 107.50807 70.64032 172.03294l0 0c0 134.36609 -107.98047 243.29135 -241.18109 243.29135l0 0c-133.20068 0 -241.18112 -108.92526 -241.18112 -243.29135zm43.25345 0l0 0c0 110.477905 88.615234 200.03793 197.92767 200.03793c109.31244 0 197.92767 -89.56003 197.92767 -200.03793l0 0c0 -110.47789 -88.615234 -200.03792 -197.92767 -200.03792l0 0c-109.31244 0 -197.92767 89.56003 -197.92767 200.03792z" fill-rule="evenodd"/><path stroke="#000000" stroke-width="2.0" stroke-linejoin="round" stroke-linecap="butt" d="m476.06168 350.61417l0 0c0 -134.36609 107.98044 -243.29132 241.18112 -243.29132l0 0c63.96521 0 125.31055 25.632408 170.54077 71.258385c45.230225 45.625977 70.64032 107.50807 70.64032 172.03294l0 0c0 134.36609 -107.98047 243.29135 -241.18109 243.29135l0 0c-133.20068 0 -241.18112 -108.92526 -241.18112 -243.29135zm43.25345 0l0 0c0 110.477905 88.615234 200.03793 197.92767 200.03793c109.31244 0 197.92767 -89.56003 197.92767 -200.03793l0 0c0 -110.47789 -88.615234 -200.03792 -197.92767 -200.03792l0 0c-109.31244 0 -197.92767 89.56003 -197.92767 200.03792z" fill-rule="evenodd"/><path fill="#d9d9d9" d="m476.89764 522.81494l0 -344.40417l240.34644 172.20209l240.3465 -172.20209l0 344.40417l-240.3465 -172.20209z" fill-rule="evenodd"/><path stroke="#000000" stroke-width="3.0" stroke-linejoin="round" stroke-linecap="butt" d="m476.89764 522.81494l0 -344.40417l240.34644 172.20209l240.3465 -172.20209l0 344.40417l-240.3465 -172.20209z" fill-rule="evenodd"/><path fill="#999999" d="m-0.3464567 547.7152l0 -394.2021l470.5554 0l117.638855 197.10104l-117.638855 197.10104z" fill-rule="evenodd"/><path stroke="#000000" stroke-width="3.0" stroke-linejoin="round" stroke-linecap="butt" d="m-0.3464567 547.7152l0 -394.2021l470.5554 0l117.638855 197.10104l-117.638855 197.10104z" fill-rule="evenodd"/><path fill="#434343" d="m570.22046 350.6168l0 0c0 -81.19888 65.82471 -147.02362 147.02362 -147.02362l0 0c38.993103 0 76.38916 15.489944 103.961426 43.062225c27.572266 27.572266 43.062195 64.96832 43.062195 103.961395l0 0c0 81.19891 -65.82471 147.02362 -147.02362 147.02362l0 0c-81.19891 0 -147.02362 -65.82471 -147.02362 -147.02362z" fill-rule="evenodd"/><path fill="#000000" fill-opacity="0.0" d="m717.2441 203.59317l0 294.04724m-147.02362 -147.02362l294.04724 0" fill-rule="evenodd"/><path fill="#000000" fill-opacity="0.0" d="m570.22046 350.6168l0 0c0 -81.19888 65.82471 -147.02362 147.02362 -147.02362l0 0c38.993103 0 76.38916 15.489944 103.961426 43.062225c27.572266 27.572266 43.062195 64.96832 43.062195 103.961395l0 0c0 81.19891 -65.82471 147.02362 -147.02362 147.02362l0 0c-81.19891 0 -147.02362 -65.82471 -147.02362 -147.02362z" fill-rule="evenodd"/><path stroke="#000000" stroke-width="3.0" stroke-linejoin="round" stroke-linecap="butt" d="m717.2441 203.59317l0 294.04724m-147.02362 -147.02362l294.04724 0" fill-rule="evenodd"/><path stroke="#000000" stroke-width="3.0" stroke-linejoin="round" stroke-linecap="butt" d="m570.22046 350.6168l0 0c0 -81.19888 65.82471 -147.02362 147.02362 -147.02362l0 0c38.993103 0 76.38916 15.489944 103.961426 43.062225c27.572266 27.572266 43.062195 64.96832 43.062195 103.961395l0 0c0 81.19891 -65.82471 147.02362 -147.02362 147.02362l0 0c-81.19891 0 -147.02362 -65.82471 -147.02362 -147.02362z" fill-rule="evenodd"/><path fill="#666666" d="m-1.3464566 350.6273l113.54331 -243.29132l113.543304 0l-227.08661 486.58267z" fill-rule="evenodd"/><path stroke="#000000" stroke-width="2.0" stroke-linejoin="round" stroke-linecap="butt" d="m-1.3464566 350.6273l113.54331 -243.29132l113.543304 0l-227.08661 486.58267z" fill-rule="evenodd"/></g></svg>