<svg version="1.1" viewBox="0.0 0.0 960.0 720.0" fill="none" stroke="none" stroke-linecap="square" stroke-miterlimit="10" xmlns:xlink="http://www.w3.org/1999/xlink" xmlns="http://www.w3.org/2000/svg"><clipPath id="p.0"><path d="m0 0l960.0 0l0 720.0l-960.0 0l0 -720.0z" clip-rule="nonzero"/></clipPath><g clip-path="url(#p.0)"><path fill="#000000" fill-opacity="0.0" d="m0 0l960.0 0l0 720.0l-960.0 0z" fill-rule="evenodd"/><path fill="#b7b7b7" d="m0 106.11024l957.4803 0l0 507.77954l-957.4803 0z" fill-rule="evenodd"/><path stroke="#434343" stroke-width="3.0" stroke-linejoin="round" stroke-linecap="butt" d="m0 106.11024l957.4803 0l0 507.77954l-957.4803 0z" fill-rule="evenodd"/><path fill="#666666" d="m26.657341 284.39438l0 0c0 -20.877045 16.92421 -37.80127 37.801285 -37.80127l410.60217 0c10.025513 0 19.640411 3.9826202 26.729523 11.071747c7.089142 7.0891113 11.071747 16.70401 11.071747 26.729523l0 151.20059c0 20.877075 -16.924194 37.8013 -37.80127 37.8013l-410.60217 0c-20.877075 0 -37.801285 -16.924225 -37.801285 -37.8013z" fill-rule="evenodd"/><path fill="#666666" d="m464.33475 263.73206l136.11313 -136.11313l193.44305 0l136.1131 136.11313l0 192.49814l-136.1131 136.11313l-193.44305 0l-136.11313 -136.11313z" fill-rule="evenodd"/><path fill="#434343" d="m512.5408 253.12335l123.07501 -0.0017852783l61.539062 -106.54939l61.539062 106.54939l123.07501 0.0017852783l-61.53595 106.55118l61.53595 106.55118l-123.07501 0.0018005371l-61.539062 106.54941l-61.539062 -106.54941l-123.07501 -0.0018005371l61.53595 -106.55118z" fill-rule="evenodd"/><path fill="#434343" d="m564.7742 359.9678l0 0c0 -72.962494 59.27472 -132.11024 132.39374 -132.11024l0 0c35.112976 0 68.78784 13.918716 93.616455 38.6942c24.828613 24.775452 38.77722 58.378204 38.77722 93.416046l0 0c0 72.96246 -59.27466 132.11023 -132.39368 132.11023l0 0c-73.11902 0 -132.39374 -59.147766 -132.39374 -132.11023z" fill-rule="evenodd"/><path stroke="#b7b7b7" stroke-width="8.0" stroke-linejoin="round" stroke-linecap="butt" d="m564.7742 359.9678l0 0c0 -72.962494 59.27472 -132.11024 132.39374 -132.11024l0 0c35.112976 0 68.78784 13.918716 93.616455 38.6942c24.828613 24.775452 38.77722 58.378204 38.77722 93.416046l0 0c0 72.96246 -59.27466 132.11023 -132.39368 132.11023l0 0c-73.11902 0 -132.39374 -59.147766 -132.39374 -132.11023z" fill-rule="evenodd"/><path fill="#6fce45" d="m623.53326 359.9795l0 0c0 -40.58206 32.96173 -73.480316 73.62207 -73.480316l0 0c19.525757 0 38.25183 7.7416687 52.058655 21.521881c13.806824 13.780243 21.563416 32.470245 21.563416 51.958435l0 0c0 40.58206 -32.96173 73.480316 -73.62207 73.480316l0 0c-40.66034 0 -73.62207 -32.898254 -73.62207 -73.480316z" fill-rule="evenodd"/><path stroke="#b7b7b7" stroke-width="8.0" stroke-linejoin="round" stroke-linecap="butt" d="m623.53326 359.9795l0 0c0 -40.58206 32.96173 -73.480316 73.62207 -73.480316l0 0c19.525757 0 38.25183 7.7416687 52.058655 21.521881c13.806824 13.780243 21.563416 32.470245 21.563416 51.958435l0 0c0 40.58206 -32.96173 73.480316 -73.62207 73.480316l0 0c-40.66034 0 -73.62207 -32.898254 -73.62207 -73.480316z" fill-rule="evenodd"/><path fill="#434343" d="m0.005647769 487.19626l0 -254.41809l94.683266 0l23.670815 127.209045l-23.670815 127.209045z" fill-rule="evenodd"/><path fill="#000000" fill-opacity="0.0" d="m401.555 359.9844l77.22833 -77.03937l0 51.35904l-25.743286 25.680328l25.743286 25.680298l0 51.35907z" fill-rule="evenodd"/><path stroke="#6fce45" stroke-width="4.0" stroke-linejoin="round" stroke-linecap="butt" d="m401.555 359.9844l77.22833 -77.03937l0 51.35904l-25.743286 25.680328l25.743286 25.680298l0 51.35907z" fill-rule="evenodd"/><path fill="#000000" fill-opacity="0.0" d="m309.9486 359.67438l77.22836 -77.03937l0 51.35907l-25.743317 25.680298l25.743317 25.680328l0 51.35904z" fill-rule="evenodd"/><path stroke="#6fce45" stroke-width="4.0" stroke-linejoin="round" stroke-linecap="butt" d="m309.9486 359.67438l77.22836 -77.03937l0 51.35907l-25.743317 25.680298l25.743317 25.680328l0 51.35904z" fill-rule="evenodd"/></g></svg>