<svg version="1.1" viewBox="0.0 0.0 960.0 720.0" fill="none" stroke="none" stroke-linecap="square" stroke-miterlimit="10" xmlns:xlink="http://www.w3.org/1999/xlink" xmlns="http://www.w3.org/2000/svg"><clipPath id="p.0"><path d="m0 0l960.0 0l0 720.0l-960.0 0l0 -720.0z" clip-rule="nonzero"/></clipPath><g clip-path="url(#p.0)"><path fill="#000000" fill-opacity="0.0" d="m0 0l960.0 0l0 720.0l-960.0 0z" fill-rule="evenodd"/><path fill="#666666" d="m-2.1574802 221.30313l0 0c0 -35.715134 28.952831 -64.66795 64.66796 -64.66795l834.979 0c17.151001 0 33.59955 6.813202 45.727173 18.940796c12.127563 12.127594 18.940796 28.576141 18.940796 45.727158l0 258.6641c0 35.715088 -28.95282 64.66797 -64.66797 64.66797l-834.979 0l0 0c-35.715126 0 -64.66796 -28.95288 -64.66796 -64.66797z" fill-rule="evenodd"/><path fill="#000000" fill-opacity="0.0" d="m19.51181 234.70982l0 0c0 -32.012863 25.951553 -57.964417 57.964417 -57.964417l805.0476 0c15.373108 0 30.116577 6.106949 40.987 16.977386c10.870422 10.870438 16.977356 25.613907 16.977356 40.98703l0 231.8507c0 32.01288 -25.951538 57.964447 -57.964355 57.964447l-805.0476 0l0 0c-32.012863 0 -57.964417 -25.951569 -57.964417 -57.964447z" fill-rule="evenodd"/><path stroke="#16c216" stroke-width="16.0" stroke-linejoin="round" stroke-linecap="butt" d="m19.51181 234.70982l0 0c0 -32.012863 25.951553 -57.964417 57.964417 -57.964417l805.0476 0c15.373108 0 30.116577 6.106949 40.987 16.977386c10.870422 10.870438 16.977356 25.613907 16.977356 40.98703l0 231.8507c0 32.01288 -25.951538 57.964447 -57.964355 57.964447l-805.0476 0l0 0c-32.012863 0 -57.964417 -25.951569 -57.964417 -57.964447z" fill-rule="evenodd"/><path fill="#d9d9d9" d="m447.95276 460.7034l64.09448 0l0 64.09451l-64.09448 0z" fill-rule="evenodd"/><path fill="#000000" fill-opacity="0.0" d="m149.22835 222.37796l661.54333 0l0 275.24408l-661.54333 0z" fill-rule="evenodd"/><path fill="#d9d9d9" d="m370.39062 301.4623q0 -7.734375 -2.703125 -13.625q-2.6875 -5.90625 -7.453125 -9.96875q-4.84375 -4.0625 -11.40625 -6.125q-6.5625 -2.078125 -14.296875 -2.078125q-7.734375 0 -14.265625 2.078125q-6.515625 2.0625 -11.203125 6.125q-4.765625 4.0625 -7.421875 9.96875q-2.65625 5.890625 -2.65625 13.625q0 4.21875 1.125 8.046875q1.140625 3.828125 3.25 7.03125q1.953125 3.046875 4.796875 5.546875q2.859375 2.5 6.375 4.296875q-4.140625 1.953125 -7.46875 4.734375q-3.3125 2.765625 -5.65625 6.203125q-2.34375 3.515625 -3.640625 7.703125q-1.28125 4.171875 -1.28125 8.859375q0 8.046875 2.921875 14.140625q2.9375 6.09375 8.09375 10.15625q5.15625 4.140625 12.140625 6.25q7.0 2.109375 15.125 2.109375q8.046875 0 15.0 -2.109375q6.953125 -2.109375 12.109375 -6.25q5.078125 -4.0625 8.0 -10.15625q2.9375 -6.09375 2.9375 -14.140625q0 -6.09375 -2.109375 -11.25q-2.109375 -5.15625 -5.859375 -9.0625q-2.03125 -2.1875 -4.609375 -3.9375q-2.578125 -1.765625 -5.46875 -3.171875q3.203125 -1.640625 5.8125 -3.859375q2.625 -2.234375 4.578125 -4.8125q2.5 -3.4375 3.859375 -7.53125q1.375 -4.109375 1.375 -8.796875zm-19.375 50.9375q0 3.90625 -1.21875 7.0q-1.203125 3.078125 -3.3125 5.265625q-2.1875 2.1875 -5.15625 3.328125q-2.96875 1.125 -6.5625 1.125q-3.671875 0 -6.640625 -1.046875q-2.96875 -1.0625 -5.078125 -3.09375q-2.265625 -2.109375 -3.515625 -5.3125q-1.25 -3.203125 -1.25 -7.265625q0 -3.90625 1.171875 -7.03125q1.171875 -3.125 3.28125 -5.390625q2.109375 -2.1875 5.109375 -3.359375q3.015625 -1.171875 6.765625 -1.171875q3.75 0 6.75 1.171875q3.015625 1.171875 5.203125 3.359375q2.109375 2.265625 3.28125 5.390625q1.171875 3.125 1.171875 7.03125zm-2.265625 -49.921875q0 3.4375 -0.984375 6.296875q-0.96875 2.84375 -2.765625 4.875q-1.796875 2.03125 -4.375 3.171875q-2.578125 1.125 -5.859375 1.125q-3.28125 0 -5.90625 -1.125q-2.609375 -1.140625 -4.40625 -3.171875q-1.875 -2.03125 -2.8125 -4.875q-0.9375 -2.859375 -0.9375 -6.375q0 -3.4375 0.890625 -6.28125q0.90625 -2.859375 2.703125 -4.8125q1.71875 -1.953125 4.296875 -3.0q2.578125 -1.0625 5.9375 -1.0625q3.28125 0 5.890625 1.09375q2.625 1.09375 4.5 3.046875q1.796875 2.03125 2.8125 4.84375q1.015625 2.8125 1.015625 6.25zm122.34375 41.09375l0 -17.578125l-65.078125 0l0 17.578125l65.078125 0zm102.734375 -54.453125l0 -17.890625l-91.71875 0l0 17.890625l34.609375 0l0 95.859375l22.03125 0l0 -95.859375l35.078125 0zm12.265625 95.859375l41.484375 0q9.375 0 16.875 -2.109375q7.5 -2.109375 12.734375 -6.328125q5.234375 -4.21875 8.046875 -10.46875q2.8125 -6.25 2.8125 -14.453125q0 -4.296875 -1.140625 -8.3125q-1.125 -4.03125 -3.46875 -7.46875q-2.265625 -3.203125 -5.59375 -5.625q-3.3125 -2.421875 -8.9375 -3.984375l0 -0.078125q2.890625 -1.09375 5.265625 -2.65625q2.390625 -1.5625 4.265625 -3.4375q3.4375 -3.4375 5.1875 -8.0q1.765625 -4.578125 1.84375 -9.734375q0 -7.96875 -2.9375 -13.828125q-2.921875 -5.859375 -8.3125 -9.6875q-5.390625 -3.828125 -13.015625 -5.703125q-7.609375 -1.875 -16.90625 -1.875l-38.203125 0l0 113.75zm22.03125 -50.15625l20.46875 0q4.609375 0.078125 7.96875 1.25q3.359375 1.171875 5.46875 3.359375q2.109375 2.109375 3.078125 5.15625q0.984375 3.046875 0.984375 6.875q0 3.671875 -1.296875 6.640625q-1.28125 2.96875 -3.78125 5.078125q-2.265625 1.875 -5.671875 2.96875q-3.390625 1.09375 -7.6875 1.09375l-19.53125 0l0 -32.421875zm0 -15.859375l0 -29.84375l16.25 0q5.3125 0.078125 9.25 1.171875q3.953125 1.09375 6.296875 3.515625q1.796875 1.71875 2.6875 4.296875q0.90625 2.578125 0.90625 6.015625q0 3.28125 -1.0625 5.859375q-1.046875 2.578125 -3.0 4.375q-2.34375 2.265625 -6.171875 3.40625q-3.828125 1.125 -8.828125 1.203125l-16.328125 0z" fill-rule="nonzero"/><path fill="#16c216" d="m23.335958 181.38058l151.62206 0l-50.540176 50.540176l-50.541695 0l0 50.54167l-50.540176 50.54019z" fill-rule="evenodd"/><path fill="#16c216" d="m23.335958 520.7874l0 -151.62207l50.540176 50.54019l0 50.541687l50.541695 0l50.540176 50.54019z" fill-rule="evenodd"/><path fill="#16c216" d="m932.82153 517.03937l-151.62207 0l50.54016 -50.54016l50.541748 0l0 -50.541718l50.54016 -50.54016z" fill-rule="evenodd"/><path fill="#16c216" d="m932.82153 181.38058l0 151.62204l-50.54016 -50.54019l0 -50.54167l-50.541748 0l-50.54016 -50.540176z" fill-rule="evenodd"/></g></svg>