<svg version="1.1" viewBox="0.0 0.0 960.0 720.0" fill="none" stroke="none" stroke-linecap="square" stroke-miterlimit="10" xmlns:xlink="http://www.w3.org/1999/xlink" xmlns="http://www.w3.org/2000/svg"><clipPath id="p.0"><path d="m0 0l960.0 0l0 720.0l-960.0 0l0 -720.0z" clip-rule="nonzero"/></clipPath><g clip-path="url(#p.0)"><path fill="#000000" fill-opacity="0.0" d="m0 0l960.0 0l0 720.0l-960.0 0z" fill-rule="evenodd"/><path fill="#cccccc" d="m893.4514 327.5013l66.55121 0l0 117.00787l-66.55121 0z" fill-rule="evenodd"/><path fill="#666666" d="m64.376625 156.12335l795.42 0l64.66791 64.66797l0 259.57587l-63.756104 63.756165l-797.2436 0l-63.75616 -63.756165l0 -259.57587z" fill-rule="evenodd"/><path fill="#434343" d="m88.14024 179.8084l757.2261 0l56.772766 56.772797l0 227.88481l-55.97229 55.97229l-758.827 0l-55.972305 -55.97229l0 -227.88481z" fill-rule="evenodd"/><path stroke="#b7b7b7" stroke-width="8.0" stroke-linejoin="round" stroke-linecap="butt" d="m88.14024 179.8084l757.2261 0l56.772766 56.772797l0 227.88481l-55.97229 55.97229l-758.827 0l-55.972305 -55.97229l0 -227.88481z" fill-rule="evenodd"/><path fill="#ff9900" d="m949.74866 227.13911l0 0c6.5734253 0 11.902283 5.3288116 11.902283 11.902237l0 135.25064c0 3.1566467 -1.2540283 6.1840515 -3.486084 8.416138c-2.2321167 2.2321167 -5.2595215 3.486084 -8.416199 3.486084l-13.392334 0l0 0c-6.5734253 0 -11.902283 -5.3287964 -11.902283 -11.902222l0 -135.25064c0 -6.5734253 5.3288574 -11.902237 11.902283 -11.902237z" fill-rule="evenodd"/><path fill="#ff9900" d="m949.74866 428.74277l0 0c6.5734253 0 11.902283 5.328827 11.902283 11.902252l0 22.589203l0 0c0 3.1566772 -1.2540283 6.184082 -3.486084 8.416168c-2.2321167 2.2321167 -5.2595215 3.486084 -8.416199 3.486084l-13.392334 0l0 0c-6.5734253 0 -11.902283 -5.3287964 -11.902283 -11.902252l0 -22.589203l0 0c0 -6.5734253 5.3288574 -11.902252 11.902283 -11.902252z" fill-rule="evenodd"/><path fill="#999999" d="m902.1391 291.42578l0 117.39514l-29.34967 29.34967l-267.97314 0l0 0l0 -176.09448l0 0l267.97314 0z" fill-rule="evenodd"/><path fill="#000000" fill-opacity="0.0" d="m626.6063 433.364l0 -164.76477l41.192383 -41.192413l256.66583 0l0 0l0 247.1496l0 0l-256.66583 0z" fill-rule="evenodd"/><path stroke="#b7b7b7" stroke-width="8.0" stroke-linejoin="round" stroke-linecap="butt" d="m626.6063 433.364l0 -164.76477l41.192383 -41.192413l256.66583 0l0 0l0 247.1496l0 0l-256.66583 0z" fill-rule="evenodd"/><path fill="#f3f3f3" d="m112.002625 269.7751l0 0c0 -22.425232 18.179245 -40.604477 40.604492 -40.604477l449.65717 0c10.768982 0 21.096863 4.277954 28.711731 11.8927765c7.614807 7.6148224 11.892761 17.942719 11.892761 28.7117l0 162.41309c0 22.425232 -18.17926 40.604492 -40.604492 40.604492l-449.65717 0l0 0c-22.425247 0 -40.604492 -18.17926 -40.604492 -40.604492z" fill-rule="evenodd"/><path fill="#000000" fill-opacity="0.0" d="m121.343834 265.8058l505.25986 0l0 159.05511l-505.25986 0z" fill-rule="evenodd"/><path fill="#000000" d="m302.38 363.4358l10.3125 0l0 14.5625l-10.3125 0l0 19.6875l-18.0625 0l0 -19.6875l-37.3125 0l-0.8125 -11.375l37.9375 -59.9375l18.25 0l0 56.75zm-38.1875 0l20.125 0l0 -32.125l-1.1875 2.0625l-18.9375 30.0625zm156.75003 -41.5625l-27.875 0l0 75.8125l-18.75003 0l0 -75.8125l-27.5 0l0 -15.1875l74.12503 0l0 15.1875zm10.6875 75.8125l0 -91.0l31.875 0q16.5625 0 25.125 6.34375q8.5625 6.34375 8.5625 18.59375q0 6.6875 -3.4375 11.78125q-3.4375 5.09375 -9.5625 7.46875q7.0 1.75 11.03125 7.0625q4.03125 5.3125 4.03125 13.0q0 13.125 -8.375 19.875q-8.375 6.75 -23.875 6.875l-35.375 0zm18.75 -39.625l0 24.5625l16.0625 0q6.625 0 10.34375 -3.15625q3.71875 -3.15625 3.71875 -8.71875q0 -12.5 -12.9375 -12.6875l-17.1875 0zm0 -13.25l13.875 0q14.1875 -0.25 14.1875 -11.3125q0 -6.1875 -3.59375 -8.90625q-3.59375 -2.71875 -11.34375 -2.71875l-13.125 0l0 22.9375z" fill-rule="nonzero"/></g></svg>