<svg version="1.1" viewBox="0.0 0.0 960.0 720.0" fill="none" stroke="none" stroke-linecap="square" stroke-miterlimit="10" xmlns:xlink="http://www.w3.org/1999/xlink" xmlns="http://www.w3.org/2000/svg"><clipPath id="p.0"><path d="m0 0l960.0 0l0 720.0l-960.0 0l0 -720.0z" clip-rule="nonzero"/></clipPath><g clip-path="url(#p.0)"><path fill="#000000" fill-opacity="0.0" d="m0 0l960.0 0l0 720.0l-960.0 0z" fill-rule="evenodd"/><path fill="#d9d9d9" d="m275.87665 151.1811l424.0315 0l0 417.63782l-424.0315 0z" fill-rule="evenodd"/><path fill="#e0e0e0" d="m206.27034 81.57481l563.24414 0l-69.60632 69.6063l-424.0315 0z" fill-rule="evenodd"/><path fill="#adadad" d="m206.27034 638.4252l69.60631 -69.60626l424.0315 0l69.60632 69.60626z" fill-rule="evenodd"/><path fill="#e8e8e8" d="m206.27034 81.57481l69.60631 69.6063l0 417.63782l-69.60631 69.60626z" fill-rule="evenodd"/><path fill="#828282" d="m769.51447 81.57481l0 556.85034l-69.60632 -69.60626l0 -417.63782z" fill-rule="evenodd"/><path fill="#000000" fill-opacity="0.0" d="m206.27034 81.57481l563.24414 0l0 556.85034l-563.24414 0zm69.60631 69.6063l424.0315 0l0 417.63782l-424.0315 0zm-69.60631 -69.6063l69.60631 69.6063m-69.60631 487.24408l69.60631 -69.60626m493.63782 -487.2441l-69.60632 69.6063m69.60632 487.24408l-69.60632 -69.60626" fill-rule="evenodd"/><path stroke="#000000" stroke-width="3.0" stroke-linejoin="round" stroke-linecap="butt" d="m206.27034 81.57481l563.24414 0l0 556.85034l-563.24414 0zm69.60631 69.6063l424.0315 0l0 417.63782l-424.0315 0zm-69.60631 -69.6063l69.60631 69.6063m-69.60631 487.24408l69.60631 -69.60626m493.63782 -487.2441l-69.60632 69.6063m69.60632 487.24408l-69.60632 -69.60626" fill-rule="evenodd"/><path fill="#f9cb9c" d="m124.90026 0l725.98425 0l0 720.0l-725.98425 0zm80.481606 80.4816l0 559.03674l565.021 0l0 -559.03674z" fill-rule="evenodd"/><path stroke="#000000" stroke-width="4.0" stroke-linejoin="round" stroke-linecap="butt" d="m124.90026 0l725.98425 0l0 720.0l-725.98425 0zm80.481606 80.4816l0 559.03674l565.021 0l0 -559.03674z" fill-rule="evenodd"/><path fill="#b45f06" d="m124.90026 0l326.2362 0l-108.74432 108.744316l-108.747574 0l0 108.74758l-108.744316 108.74431z" fill-rule="evenodd"/><path stroke="#000000" stroke-width="4.0" stroke-linejoin="round" stroke-linecap="butt" d="m124.90026 0l326.2362 0l-108.74432 108.744316l-108.747574 0l0 108.74758l-108.744316 108.74431z" fill-rule="evenodd"/><path fill="#b45f06" d="m850.8845 0l0 326.2362l-108.74432 -108.74431l0 -108.74758l-108.74756 0l-108.74432 -108.744316z" fill-rule="evenodd"/><path stroke="#000000" stroke-width="4.0" stroke-linejoin="round" stroke-linecap="butt" d="m850.8845 0l0 326.2362l-108.74432 -108.74431l0 -108.74758l-108.74756 0l-108.74432 -108.744316z" fill-rule="evenodd"/><path fill="#b45f06" d="m850.8845 720.0l-326.2362 0l108.74432 -108.74432l108.74756 0l0 -108.74759l108.74432 -108.74429z" fill-rule="evenodd"/><path stroke="#000000" stroke-width="4.0" stroke-linejoin="round" stroke-linecap="butt" d="m850.8845 720.0l-326.2362 0l108.74432 -108.74432l108.74756 0l0 -108.74759l108.74432 -108.74429z" fill-rule="evenodd"/><path fill="#b45f06" d="m124.90026 720.0l0 -326.2362l108.744316 108.74429l0 108.74759l108.747574 0l108.74432 108.74432z" fill-rule="evenodd"/><path stroke="#000000" stroke-width="4.0" stroke-linejoin="round" stroke-linecap="butt" d="m124.90026 720.0l0 -326.2362l108.744316 108.74429l0 108.74759l108.747574 0l108.74432 108.74432z" fill-rule="evenodd"/><path fill="#b45f06" d="m200.72704 360.0l162.61732 -16.397614l-152.8324 -57.92624l161.31952 26.250305l-132.63159 -95.509125l149.0292 67.108185l-103.39328 -126.58208l126.58209 103.393265l-67.108185 -149.02919l95.509125 132.63158l-26.250336 -161.31952l57.92627 152.83241l16.397614 -162.61734l16.397614 162.61734l57.92624 -152.83241l-26.250305 161.31952l95.509094 -132.63158l-67.108154 149.02919l126.58209 -103.393265l-103.39331 126.58208l149.02924 -67.108185l-132.63159 95.509125l161.31952 -26.250305l-152.8324 57.92624l162.61731 16.397614l-162.61731 16.397614l152.8324 57.92624l-161.31952 -26.250305l132.63159 95.509125l-149.02924 -67.108185l103.39331 126.58209l-126.58209 -103.39328l67.108154 149.0292l-95.509094 -132.63159l26.250305 161.31952l-57.92624 -152.8324l-16.397614 162.61731l-16.397614 -162.61731l-57.92627 152.8324l26.250336 -161.31952l-95.509125 132.63159l67.108185 -149.0292l-126.58209 103.39328l103.39328 -126.58209l-149.0292 67.108185l132.63159 -95.509125l-161.31952 26.250305l152.8324 -57.92624z" fill-rule="evenodd"/><path fill="#999999" d="m487.8924 278.44095l0 0c45.043823 0 81.55902 36.51523 81.55902 81.55905l0 0c0 21.630798 -8.592773 42.37567 -23.888062 57.67096c-15.295288 15.295288 -36.04016 23.888092 -57.67096 23.888092l0 0c-45.043823 0 -81.55905 -36.51523 -81.55905 -81.55905l0 0c0 -45.043823 36.51523 -81.55905 81.55905 -81.55905zm-24.166962 126.44055c19.820038 10.672333 44.293823 7.0803223 60.211334 -8.837158c15.91748 -15.91748 19.50946 -40.391266 8.837097 -60.211304zm48.333893 -89.763l0 0c-19.820007 -10.672333 -44.293793 -7.0803223 -60.211273 8.837158c-15.917511 15.91748 -19.509491 40.391266 -8.837158 60.211304z" fill-rule="evenodd"/></g></svg>