<svg version="1.1" viewBox="0.0 0.0 960.0 720.0" fill="none" stroke="none" stroke-linecap="square" stroke-miterlimit="10" xmlns:xlink="http://www.w3.org/1999/xlink" xmlns="http://www.w3.org/2000/svg"><clipPath id="p.0"><path d="m0 0l960.0 0l0 720.0l-960.0 0l0 -720.0z" clip-rule="nonzero"/></clipPath><g clip-path="url(#p.0)"><path fill="#000000" fill-opacity="0.0" d="m0 0l960.0 0l0 720.0l-960.0 0z" fill-rule="evenodd"/><path fill="#d9d9d9" d="m275.87665 151.1811l424.0315 0l0 417.63782l-424.0315 0z" fill-rule="evenodd"/><path fill="#e0e0e0" d="m206.27034 81.57481l563.24414 0l-69.60632 69.6063l-424.0315 0z" fill-rule="evenodd"/><path fill="#adadad" d="m206.27034 638.4252l69.60631 -69.60626l424.0315 0l69.60632 69.60626z" fill-rule="evenodd"/><path fill="#e8e8e8" d="m206.27034 81.57481l69.60631 69.6063l0 417.63782l-69.60631 69.60626z" fill-rule="evenodd"/><path fill="#828282" d="m769.51447 81.57481l0 556.85034l-69.60632 -69.60626l0 -417.63782z" fill-rule="evenodd"/><path fill="#000000" fill-opacity="0.0" d="m206.27034 81.57481l563.24414 0l0 556.85034l-563.24414 0zm69.60631 69.6063l424.0315 0l0 417.63782l-424.0315 0zm-69.60631 -69.6063l69.60631 69.6063m-69.60631 487.24408l69.60631 -69.60626m493.63782 -487.2441l-69.60632 69.6063m69.60632 487.24408l-69.60632 -69.60626" fill-rule="evenodd"/><path stroke="#000000" stroke-width="3.0" stroke-linejoin="round" stroke-linecap="butt" d="m206.27034 81.57481l563.24414 0l0 556.85034l-563.24414 0zm69.60631 69.6063l424.0315 0l0 417.63782l-424.0315 0zm-69.60631 -69.6063l69.60631 69.6063m-69.60631 487.24408l69.60631 -69.60626m493.63782 -487.2441l-69.60632 69.6063m69.60632 487.24408l-69.60632 -69.60626" fill-rule="evenodd"/><path fill="#f9cb9c" d="m124.90026 0l725.98425 0l0 720.0l-725.98425 0zm80.481606 80.4816l0 559.03674l565.021 0l0 -559.03674z" fill-rule="evenodd"/><path stroke="#000000" stroke-width="4.0" stroke-linejoin="round" stroke-linecap="butt" d="m124.90026 0l725.98425 0l0 720.0l-725.98425 0zm80.481606 80.4816l0 559.03674l565.021 0l0 -559.03674z" fill-rule="evenodd"/><path fill="#b45f06" d="m124.90026 0l326.2362 0l-108.74432 108.744316l-108.747574 0l0 108.74758l-108.744316 108.74431z" fill-rule="evenodd"/><path stroke="#000000" stroke-width="4.0" stroke-linejoin="round" stroke-linecap="butt" d="m124.90026 0l326.2362 0l-108.74432 108.744316l-108.747574 0l0 108.74758l-108.744316 108.74431z" fill-rule="evenodd"/><path fill="#b45f06" d="m850.8845 0l0 326.2362l-108.74432 -108.74431l0 -108.74758l-108.74756 0l-108.74432 -108.744316z" fill-rule="evenodd"/><path stroke="#000000" stroke-width="4.0" stroke-linejoin="round" stroke-linecap="butt" d="m850.8845 0l0 326.2362l-108.74432 -108.74431l0 -108.74758l-108.74756 0l-108.74432 -108.744316z" fill-rule="evenodd"/><path fill="#b45f06" d="m850.8845 720.0l-326.2362 0l108.74432 -108.74432l108.74756 0l0 -108.74759l108.74432 -108.74429z" fill-rule="evenodd"/><path stroke="#000000" stroke-width="4.0" stroke-linejoin="round" stroke-linecap="butt" d="m850.8845 720.0l-326.2362 0l108.74432 -108.74432l108.74756 0l0 -108.74759l108.74432 -108.74429z" fill-rule="evenodd"/><path fill="#b45f06" d="m124.90026 720.0l0 -326.2362l108.744316 108.74429l0 108.74759l108.747574 0l108.74432 108.74432z" fill-rule="evenodd"/><path stroke="#000000" stroke-width="4.0" stroke-linejoin="round" stroke-linecap="butt" d="m124.90026 720.0l0 -326.2362l108.744316 108.74429l0 108.74759l108.747574 0l108.74432 108.74432z" fill-rule="evenodd"/><path fill="#b45f06" d="m243.21523 360.0l115.584335 -16.995972l-107.24716 -46.331146l116.043976 13.499359l-91.60062 -72.51082l108.59659 43.073532l-69.71283 -93.74783l93.7478 69.71283l-43.073517 -108.59659l72.5108 91.60062l-13.499329 -116.043976l46.331146 107.24718l16.995972 -115.58434l16.995972 115.58434l46.331116 -107.24718l-13.499329 116.043976l72.5108 -91.60062l-43.073486 108.59659l93.7478 -69.71283l-69.71283 93.74783l108.59656 -43.073532l-91.600586 72.51082l116.043945 -13.499359l-107.24713 46.331146l115.58435 16.995972l-115.58435 16.995972l107.24713 46.331146l-116.043945 -13.499359l91.600586 72.51083l-108.59656 -43.073547l69.71283 93.74783l-93.7478 -69.71283l43.073486 108.59662l-72.5108 -91.60065l13.499329 116.043945l-46.331116 -107.24713l-16.995972 115.58435l-16.995972 -115.58435l-46.331146 107.24713l13.499329 -116.043945l-72.5108 91.60065l43.073517 -108.59662l-93.7478 69.71283l69.71283 -93.74783l-108.59659 43.073547l91.60062 -72.51083l-116.043976 13.499359l107.24716 -46.331146z" fill-rule="evenodd"/><path fill="#999999" d="m406.33334 360.0l0 0c0 -45.043823 36.51523 -81.55905 81.55905 -81.55905l0 0c21.630798 0 42.37567 8.592804 57.67096 23.888092c15.295288 15.295288 23.888062 36.04016 23.888062 57.67096l0 0c0 45.043823 -36.515198 81.55905 -81.55902 81.55905l0 0c-45.043823 0 -81.55905 -36.51523 -81.55905 -81.55905zm126.44052 24.166962c10.672363 -19.820038 7.0803833 -44.293823 -8.837097 -60.211304c-15.917511 -15.91748 -40.391296 -19.509491 -60.211334 -8.837158zm-89.76297 -48.333923l0 0c-10.672333 19.820038 -7.080353 44.293823 8.837158 60.211304c15.91748 15.91748 40.391266 19.509491 60.211273 8.837158z" fill-rule="evenodd"/></g></svg>