<svg version="1.1" viewBox="0.0 0.0 960.0 720.0" fill="none" stroke="none" stroke-linecap="square" stroke-miterlimit="10" xmlns:xlink="http://www.w3.org/1999/xlink" xmlns="http://www.w3.org/2000/svg"><clipPath id="p.0"><path d="m0 0l960.0 0l0 720.0l-960.0 0l0 -720.0z" clip-rule="nonzero"/></clipPath><g clip-path="url(#p.0)"><path fill="#000000" fill-opacity="0.0" d="m0 0l960.0 0l0 720.0l-960.0 0z" fill-rule="evenodd"/><path fill="#ab7729" d="m124.884514 0l720.0 0l0 720.0l-720.0 0z" fill-rule="evenodd"/><path stroke="#000000" stroke-width="3.0" stroke-linejoin="round" stroke-linecap="butt" d="m124.884514 0l720.0 0l0 720.0l-720.0 0z" fill-rule="evenodd"/><path fill="#b7b7b7" d="m129.71916 259.50577l0 0c0 -29.053207 23.552292 -52.6055 52.605515 -52.6055l605.1196 0c13.951843 0 27.332275 5.542343 37.197754 15.407791c9.8654175 9.865448 15.407776 23.245865 15.407776 37.19771l0 175.57639c0 29.053223 -23.552307 52.6055 -52.60553 52.6055l-605.1196 0c-29.053223 0 -52.605515 -23.552277 -52.605515 -52.6055z" fill-rule="evenodd"/><path fill="#d6d8dc" d="m151.15224 107.18445l0 0c44.68907 0 80.91672 -36.227654 80.91672 -80.91673l505.6311 0l0 0c0 44.68908 36.22766 80.91673 80.91675 80.91673l0 505.6311c-44.689087 0 -80.91675 36.22766 -80.91675 80.91675l-505.6311 0c0 -44.689087 -36.227646 -80.91675 -80.91672 -80.91675z" fill-rule="evenodd"/><path fill="#d6d8dc" d="m172.88452 129.75024l0 0c45.1494 0 81.75023 -36.60083 81.75023 -81.750244l460.4995 0l0 0c0 45.149414 36.60083 81.750244 81.750244 81.750244l0 460.4995c-45.149414 0 -81.750244 36.60083 -81.750244 81.750244l-460.4995 0c0 -45.149414 -36.60083 -81.750244 -81.75023 -81.750244z" fill-rule="evenodd"/><path stroke="#cc0000" stroke-width="8.0" stroke-linejoin="round" stroke-linecap="butt" d="m172.88452 129.75024l0 0c45.1494 0 81.75023 -36.60083 81.75023 -81.750244l460.4995 0l0 0c0 45.149414 36.60083 81.750244 81.750244 81.750244l0 460.4995c-45.149414 0 -81.750244 36.60083 -81.750244 81.750244l-460.4995 0c0 -45.149414 -36.60083 -81.750244 -81.75023 -81.750244z" fill-rule="evenodd"/><path fill="#d6d8dc" d="m219.26205 273.70312l157.05707 7.427948l-55.59903 -147.05788l122.69589 98.31474l41.468536 -151.64778l41.468506 151.64778l122.69592 -98.31474l-55.59906 147.05788l157.05707 -7.427948l-131.42871 86.296875l131.42871 86.296875l-157.05707 -7.427948l55.59906 147.05789l-122.69592 -98.31476l-41.468506 151.64777l-41.468536 -151.64777l-122.69589 98.31476l55.59903 -147.05789l-157.05707 7.427948l131.42874 -86.296875z" fill-rule="evenodd"/><path stroke="#cc0000" stroke-width="8.0" stroke-linejoin="round" stroke-linecap="butt" d="m219.26205 273.70312l157.05707 7.427948l-55.59903 -147.05788l122.69589 98.31474l41.468536 -151.64778l41.468506 151.64778l122.69592 -98.31474l-55.59906 147.05788l157.05707 -7.427948l-131.42871 86.296875l131.42871 86.296875l-157.05707 -7.427948l55.59906 147.05789l-122.69592 -98.31476l-41.468506 151.64777l-41.468536 -151.64777l-122.69589 98.31476l55.59903 -147.05789l-157.05707 7.427948l131.42874 -86.296875z" fill-rule="evenodd"/><path fill="#000000" fill-opacity="0.0" d="m387.9239 272.55118l193.92126 0l0 174.89764l-193.92126 0z" fill-rule="evenodd"/><path fill="#cc0000" d="m408.44702 380.24368l11.25 -1.5q1.9375 9.5625 6.59375 13.78125q4.65625 4.21875 11.34375 4.21875q7.9375 0 13.40625 -5.5q5.46875 -5.5 5.46875 -13.625q0 -7.75 -5.0625 -12.78125q-5.0625 -5.03125 -12.875 -5.03125q-3.1875 0 -7.9375 1.25l1.25 -9.875q1.125 0.125 1.8125 0.125q7.1875 0 12.9375 -3.75q5.75 -3.75 5.75 -11.5625q0 -6.1875 -4.1875 -10.25q-4.1875 -4.0625 -10.8125 -4.0625q-6.5625 0 -10.9375 4.125q-4.375 4.125 -5.625 12.375l-11.25 -2.0q2.0625 -11.3125 9.375 -17.53125q7.3125 -6.21875 18.1875 -6.21875q7.5 0 13.8125 3.21875q6.3125 3.21875 9.65625 8.78125q3.34375 5.5625 3.34375 11.8125q0 5.9375 -3.1875 10.8125q-3.1875 4.875 -9.4375 7.75q8.125 1.875 12.625 7.78125q4.5 5.90625 4.5 14.78125q0 12.0 -8.75 20.34375q-8.75 8.34375 -22.125 8.34375q-12.0625 0 -20.03125 -7.1875q-7.96875 -7.1875 -9.09375 -18.625zm75.6875 24.1875l0 -91.625l31.5625 0q10.6875 0 16.3125 1.3125q7.875 1.8125 13.4375 6.5625q7.25 6.125 10.84375 15.65625q3.59375 9.53125 3.59375 21.78125q0 10.4375 -2.4375 18.5q-2.4375 8.0625 -6.25 13.34375q-3.8125 5.28125 -8.34375 8.3125q-4.53125 3.03125 -10.9375 4.59375q-6.40625 1.5625 -14.71875 1.5625l-33.0625 0zm12.125 -10.8125l19.5625 0q9.0625 0 14.21875 -1.6875q5.15625 -1.6875 8.21875 -4.75q4.3125 -4.3125 6.71875 -11.59375q2.40625 -7.28125 2.40625 -17.65625q0 -14.375 -4.71875 -22.09375q-4.71875 -7.71875 -11.46875 -10.34375q-4.875 -1.875 -15.6875 -1.875l-19.25 0l0 70.0z" fill-rule="nonzero"/></g></svg>