<svg version="1.1" viewBox="0.0 0.0 960.0 720.0" fill="none" stroke="none" stroke-linecap="square" stroke-miterlimit="10" xmlns:xlink="http://www.w3.org/1999/xlink" xmlns="http://www.w3.org/2000/svg"><clipPath id="p.0"><path d="m0 0l960.0 0l0 720.0l-960.0 0l0 -720.0z" clip-rule="nonzero"/></clipPath><g clip-path="url(#p.0)"><path fill="#000000" fill-opacity="0.0" d="m0 0l960.0 0l0 720.0l-960.0 0z" fill-rule="evenodd"/><path fill="#ab7729" d="m124.884514 0l720.0 0l0 720.0l-720.0 0z" fill-rule="evenodd"/><path stroke="#000000" stroke-width="3.0" stroke-linejoin="round" stroke-linecap="butt" d="m124.884514 0l720.0 0l0 720.0l-720.0 0z" fill-rule="evenodd"/><path fill="#b7b7b7" d="m129.71916 259.50577l0 0c0 -29.053207 23.552292 -52.6055 52.605515 -52.6055l605.1196 0c13.951843 0 27.332275 5.542343 37.197754 15.407791c9.8654175 9.865448 15.407776 23.245865 15.407776 37.19771l0 175.57639c0 29.053223 -23.552307 52.6055 -52.60553 52.6055l-605.1196 0c-29.053223 0 -52.605515 -23.552277 -52.605515 -52.6055z" fill-rule="evenodd"/><path fill="#d6d8dc" d="m151.15224 107.18445l0 0c44.68907 0 80.91672 -36.227654 80.91672 -80.91673l505.6311 0l0 0c0 44.68908 36.22766 80.91673 80.91675 80.91673l0 505.6311c-44.689087 0 -80.91675 36.22766 -80.91675 80.91675l-505.6311 0c0 -44.689087 -36.227646 -80.91675 -80.91672 -80.91675z" fill-rule="evenodd"/><path fill="#d6d8dc" d="m172.88452 129.75024l0 0c45.1494 0 81.75023 -36.60083 81.75023 -81.750244l460.4995 0l0 0c0 45.149414 36.60083 81.750244 81.750244 81.750244l0 460.4995c-45.149414 0 -81.750244 36.60083 -81.750244 81.750244l-460.4995 0c0 -45.149414 -36.60083 -81.750244 -81.75023 -81.750244z" fill-rule="evenodd"/><path stroke="#cc0000" stroke-width="8.0" stroke-linejoin="round" stroke-linecap="butt" d="m172.88452 129.75024l0 0c45.1494 0 81.75023 -36.60083 81.75023 -81.750244l460.4995 0l0 0c0 45.149414 36.60083 81.750244 81.750244 81.750244l0 460.4995c-45.149414 0 -81.750244 36.60083 -81.750244 81.750244l-460.4995 0c0 -45.149414 -36.60083 -81.750244 -81.75023 -81.750244z" fill-rule="evenodd"/><path fill="#000000" fill-opacity="0.0" d="m240.88463 219.17323l186.05022 40.488205l57.949677 -181.31497l57.949646 181.31497l186.05023 -40.488205l-128.10052 140.82677l128.10052 140.82678l-186.05023 -40.48822l-57.949646 181.315l-57.949677 -181.315l-186.05022 40.48822l128.10051 -140.82678z" fill-rule="evenodd"/><path stroke="#cc0000" stroke-width="8.0" stroke-linejoin="round" stroke-linecap="butt" d="m240.88463 219.17323l186.05022 40.488205l57.949677 -181.31497l57.949646 181.31497l186.05023 -40.488205l-128.10052 140.82677l128.10052 140.82678l-186.05023 -40.48822l-57.949646 181.315l-57.949677 -181.315l-186.05022 40.48822l128.10051 -140.82678z" fill-rule="evenodd"/></g></svg>