<svg version="1.1" viewBox="0.0 0.0 960.0 720.0" fill="none" stroke="none" stroke-linecap="square" stroke-miterlimit="10" xmlns:xlink="http://www.w3.org/1999/xlink" xmlns="http://www.w3.org/2000/svg"><clipPath id="p.0"><path d="m0 0l960.0 0l0 720.0l-960.0 0l0 -720.0z" clip-rule="nonzero"/></clipPath><g clip-path="url(#p.0)"><path fill="#000000" fill-opacity="0.0" d="m0 0l960.0 0l0 720.0l-960.0 0z" fill-rule="evenodd"/><path fill="#666666" d="m-2.1574802 221.30313l0 0c0 -35.715134 28.952831 -64.66795 64.66796 -64.66795l834.979 0c17.151001 0 33.59955 6.813202 45.727173 18.940796c12.127563 12.127594 18.940796 28.576141 18.940796 45.727158l0 258.6641c0 35.715088 -28.95282 64.66797 -64.66797 64.66797l-834.979 0l0 0c-35.715126 0 -64.66796 -28.95288 -64.66796 -64.66797z" fill-rule="evenodd"/><path fill="#434343" d="m910.2992 479.9736l0 -258.67685l8.28363 -8.28363l41.417175 0l0 0l0 275.2441l0 0l-41.417175 0z" fill-rule="evenodd"/><path fill="#ff9900" d="m924.9921 434.12872l0 0c0 -3.4210205 2.7733154 -6.194336 6.194336 -6.194336l24.776672 0l0 0c1.6428223 0 3.2183838 0.6526184 4.380066 1.81427c1.1616821 1.1616821 1.81427 2.7372437 1.81427 4.380066l0 36.90265c0 3.421051 -2.7733154 6.194336 -6.194336 6.194336l-24.776672 0c-3.4210205 0 -6.194336 -2.773285 -6.194336 -6.194336z" fill-rule="evenodd"/><path fill="#ff9900" d="m924.9921 236.07623l0 0c0 -3.4210358 2.7733154 -6.194336 6.194336 -6.194336l24.776672 0l0 0c1.6428223 0 3.2183838 0.65260315 4.380066 1.81427c1.1616821 1.1616669 1.81427 2.7372284 1.81427 4.380066l0 167.01288c0 3.421051 -2.7733154 6.1943665 -6.194336 6.1943665l-24.776672 0c-3.4210205 0 -6.194336 -2.7733154 -6.194336 -6.1943665z" fill-rule="evenodd"/><path fill="#d9d9d9" d="m447.95276 460.7034l64.09448 0l0 64.09451l-64.09448 0z" fill-rule="evenodd"/><path fill="#000000" fill-opacity="0.0" d="m149.22835 222.37796l661.54333 0l0 275.24408l-661.54333 0z" fill-rule="evenodd"/><path fill="#d9d9d9" d="m362.42188 342.7123l0 -71.484375l-22.03125 0l-47.8125 75.46875l0.859375 13.59375l47.265625 0l0 24.6875l21.71875 0l0 -24.6875l13.203125 0l0 -17.578125l-13.203125 0zm-48.515625 0l24.6875 -38.515625l2.109375 -3.75l0 42.265625l-26.796875 0zm157.1875 0.859375l0 -17.578125l-65.078125 0l0 17.578125l65.078125 0zm102.734375 -54.453125l0 -17.890625l-91.71875 0l0 17.890625l34.609375 0l0 95.859375l22.03125 0l0 -95.859375l35.078125 0zm12.265625 95.859375l41.484375 0q9.375 0 16.875 -2.109375q7.5 -2.109375 12.734375 -6.328125q5.234375 -4.21875 8.046875 -10.46875q2.8125 -6.25 2.8125 -14.453125q0 -4.296875 -1.140625 -8.3125q-1.125 -4.03125 -3.46875 -7.46875q-2.265625 -3.203125 -5.59375 -5.625q-3.3125 -2.421875 -8.9375 -3.984375l0 -0.078125q2.890625 -1.09375 5.265625 -2.65625q2.390625 -1.5625 4.265625 -3.4375q3.4375 -3.4375 5.1875 -8.0q1.765625 -4.578125 1.84375 -9.734375q0 -7.96875 -2.9375 -13.828125q-2.921875 -5.859375 -8.3125 -9.6875q-5.390625 -3.828125 -13.015625 -5.703125q-7.609375 -1.875 -16.90625 -1.875l-38.203125 0l0 113.75zm22.03125 -50.15625l20.46875 0q4.609375 0.078125 7.96875 1.25q3.359375 1.171875 5.46875 3.359375q2.109375 2.109375 3.078125 5.15625q0.984375 3.046875 0.984375 6.875q0 3.671875 -1.296875 6.640625q-1.28125 2.96875 -3.78125 5.078125q-2.265625 1.875 -5.671875 2.96875q-3.390625 1.09375 -7.6875 1.09375l-19.53125 0l0 -32.421875zm0 -15.859375l0 -29.84375l16.25 0q5.3125 0.078125 9.25 1.171875q3.953125 1.09375 6.296875 3.515625q1.796875 1.71875 2.6875 4.296875q0.90625 2.578125 0.90625 6.015625q0 3.28125 -1.0625 5.859375q-1.046875 2.578125 -3.0 4.375q-2.34375 2.265625 -6.171875 3.40625q-3.828125 1.125 -8.828125 1.203125l-16.328125 0z" fill-rule="nonzero"/></g></svg>