<svg version="1.1" viewBox="0.0 0.0 960.0 720.0" fill="none" stroke="none" stroke-linecap="square" stroke-miterlimit="10" xmlns:xlink="http://www.w3.org/1999/xlink" xmlns="http://www.w3.org/2000/svg"><clipPath id="p.0"><path d="m0 0l960.0 0l0 720.0l-960.0 0l0 -720.0z" clip-rule="nonzero"/></clipPath><g clip-path="url(#p.0)"><path fill="#000000" fill-opacity="0.0" d="m0 0l960.0 0l0 720.0l-960.0 0z" fill-rule="evenodd"/><path fill="#275784" d="m-2.1574802 221.30313l0 0c0 -35.715134 28.952831 -64.66795 64.66796 -64.66795l834.979 0c17.151001 0 33.59955 6.813202 45.727173 18.940796c12.127563 12.127594 18.940796 28.576141 18.940796 45.727158l0 258.6641c0 35.715088 -28.95282 64.66797 -64.66797 64.66797l-834.979 0l0 0c-35.715126 0 -64.66796 -28.95288 -64.66796 -64.66797z" fill-rule="evenodd"/><path fill="#072644" d="m910.2992 479.9736l0 -258.67685l8.28363 -8.28363l41.417175 0l0 0l0 275.2441l0 0l-41.417175 0z" fill-rule="evenodd"/><path fill="#ff9900" d="m924.9921 434.12872l0 0c0 -3.4210205 2.7733154 -6.194336 6.194336 -6.194336l24.776672 0l0 0c1.6428223 0 3.2183838 0.6526184 4.380066 1.81427c1.1616821 1.1616821 1.81427 2.7372437 1.81427 4.380066l0 36.90265c0 3.421051 -2.7733154 6.194336 -6.194336 6.194336l-24.776672 0c-3.4210205 0 -6.194336 -2.773285 -6.194336 -6.194336z" fill-rule="evenodd"/><path fill="#ff9900" d="m924.9921 236.07623l0 0c0 -3.4210358 2.7733154 -6.194336 6.194336 -6.194336l24.776672 0l0 0c1.6428223 0 3.2183838 0.65260315 4.380066 1.81427c1.1616821 1.1616669 1.81427 2.7372284 1.81427 4.380066l0 167.01288c0 3.421051 -2.7733154 6.1943665 -6.194336 6.1943665l-24.776672 0c-3.4210205 0 -6.194336 -2.7733154 -6.194336 -6.1943665z" fill-rule="evenodd"/><path fill="#d9d9d9" d="m447.95276 460.7034l64.09448 0l0 64.09451l-64.09448 0z" fill-rule="evenodd"/><path fill="#000000" fill-opacity="0.0" d="m149.22835 222.37796l661.54333 0l0 275.24408l-661.54333 0z" fill-rule="evenodd"/><path fill="#d9d9d9" d="m204.06252 328.9623l17.34375 4.296875q1.25 -1.25 2.65625 -2.375q1.40625 -1.140625 3.203125 -2.0q1.796875 -0.859375 4.140625 -1.40625q2.34375 -0.546875 5.546875 -0.546875q4.765625 0 8.28125 1.484375q3.515625 1.484375 5.859375 4.21875q2.34375 2.734375 3.46875 6.53125q1.140625 3.78125 1.140625 8.3125q0 4.609375 -0.90625 8.59375q-0.890625 3.984375 -2.765625 6.875q-1.953125 2.890625 -5.046875 4.53125q-3.078125 1.640625 -7.453125 1.640625q-7.109375 0 -11.6875 -4.0625q-4.5625 -4.0625 -5.34375 -11.484375l-21.40625 0q0.234375 7.890625 3.546875 14.03125q3.328125 6.125 8.640625 10.34375q5.3125 4.21875 12.140625 6.40625q6.84375 2.1875 14.1875 2.1875q9.6875 0 16.79686 -3.046875q7.109375 -3.046875 11.796875 -8.28125q4.6875 -5.234375 6.953125 -12.109375q2.265625 -6.875 2.265625 -14.53125q0 -8.984375 -2.34375 -16.09375q-2.34375 -7.109375 -6.71875 -12.03125q-4.453125 -4.921875 -10.90625 -7.53125q-6.4374847 -2.625 -14.64061 -2.625q-5.78125 0 -10.234375 1.484375q-4.453125 1.484375 -6.875 2.890625l2.734375 -25.0l45.23436 0l0 -18.4375l-63.124985 0l-6.484375 57.734375zm168.98436 12.734375l0 -27.1875q0 -11.015625 -2.578125 -19.40625q-2.578125 -8.40625 -7.34375 -14.109375q-4.84375 -5.625 -11.71875 -8.515625q-6.875 -2.890625 -15.46875 -2.890625q-8.515625 0 -15.359375 2.890625q-6.828125 2.890625 -11.59375 8.515625q-4.84375 5.703125 -7.421875 14.109375q-2.578125 8.390625 -2.578125 19.40625l0 27.1875q0 11.015625 2.609375 19.421875q2.625 8.390625 7.46875 14.015625q4.765625 5.703125 11.640625 8.59375q6.875 2.890625 15.390625 2.890625q8.59375 0 15.46875 -2.890625q6.875 -2.890625 11.640625 -8.59375q4.765625 -5.625 7.296875 -14.015625q2.546875 -8.40625 2.546875 -19.421875zm-52.1875 -9.375q0 -2.421875 0 -3.671875q0 -1.25 0 -5.0l0 -12.578125q0 -6.328125 0.96875 -10.9375q0.984375 -4.609375 3.015625 -7.5q1.875 -2.734375 4.640625 -4.09375q2.78125 -1.375 6.453125 -1.375q3.28125 0 5.890625 1.0625q2.625 1.046875 4.421875 3.234375q2.34375 2.734375 3.546875 7.3125q1.21875 4.5625 1.375 10.96875l-30.3125 22.578125zm30.3125 12.65625q0 6.328125 -0.984375 10.984375q-0.96875 4.640625 -2.921875 7.609375q-1.875 2.8125 -4.6875 4.1875q-2.8125 1.359375 -6.484375 1.359375q-3.984375 0 -6.875 -1.5625q-2.890625 -1.5625 -4.765625 -4.765625q-1.640625 -2.65625 -2.546875 -6.640625q-0.890625 -3.984375 -1.046875 -9.140625l30.3125 -22.5q0 2.265625 0 3.484375q0 1.203125 0 3.78125l0 13.203125zm117.890625 -3.28125l0 -27.1875q0 -11.015625 -2.578125 -19.40625q-2.578125 -8.40625 -7.34375 -14.109375q-4.84375 -5.625 -11.71875 -8.515625q-6.875 -2.890625 -15.46875 -2.890625q-8.515625 0 -15.359375 2.890625q-6.828125 2.890625 -11.59375 8.515625q-4.84375 5.703125 -7.421875 14.109375q-2.578125 8.390625 -2.578125 19.40625l0 27.1875q0 11.015625 2.609375 19.421875q2.625 8.390625 7.46875 14.015625q4.765625 5.703125 11.640625 8.59375q6.875 2.890625 15.390625 2.890625q8.59375 0 15.46875 -2.890625q6.875 -2.890625 11.640625 -8.59375q4.765625 -5.625 7.296875 -14.015625q2.546875 -8.40625 2.546875 -19.421875zm-52.1875 -9.375q0 -2.421875 0 -3.671875q0 -1.25 0 -5.0l0 -12.578125q0 -6.328125 0.96875 -10.9375q0.984375 -4.609375 3.015625 -7.5q1.875 -2.734375 4.640625 -4.09375q2.78125 -1.375 6.453125 -1.375q3.28125 0 5.890625 1.0625q2.625 1.046875 4.421875 3.234375q2.34375 2.734375 3.546875 7.3125q1.21875 4.5625 1.375 10.96875l-30.3125 22.578125zm30.3125 12.65625q0 6.328125 -0.984375 10.984375q-0.96875 4.640625 -2.921875 7.609375q-1.875 2.8125 -4.6875 4.1875q-2.8125 1.359375 -6.484375 1.359375q-3.984375 0 -6.875 -1.5625q-2.890625 -1.5625 -4.765625 -4.765625q-1.640625 -2.65625 -2.546875 -6.640625q-0.890625 -3.984375 -1.046875 -9.140625l30.3125 -22.5q0 2.265625 0 3.484375q0 1.203125 0 3.78125l0 13.203125zm119.921875 -1.40625l0 -17.578125l-65.078125 0l0 17.578125l65.078125 0zm97.34375 28.125l-0.078125 -44.84375l-40.703125 0l0 16.40625l18.828125 0l-0.078125 20.625q-0.859375 1.015625 -2.546875 1.921875q-1.671875 0.890625 -3.859375 1.59375q-2.1875 0.703125 -4.6875 1.09375q-2.5 0.390625 -5.078125 0.390625q-4.21875 -0.078125 -7.546875 -1.359375q-3.3125 -1.296875 -5.8125 -3.796875q-1.484375 -1.484375 -2.703125 -3.390625q-1.203125 -1.921875 -2.140625 -4.1875q-1.484375 -3.90625 -2.3125 -8.984375q-0.8125 -5.078125 -0.8125 -11.25l0 -15.625q0 -4.921875 0.578125 -9.140625q0.59375 -4.21875 1.6875 -7.65625q1.40625 -4.453125 3.546875 -7.734375q2.15625 -3.28125 4.8125 -5.3125q2.03125 -1.484375 4.375 -2.265625q2.34375 -0.78125 4.84375 -0.78125q4.609375 0 7.921875 1.21875q3.328125 1.203125 5.515625 3.625q1.953125 2.1875 3.078125 5.390625q1.140625 3.203125 1.6875 7.34375l21.40625 0q-0.859375 -8.203125 -3.640625 -14.765625q-2.765625 -6.5625 -7.6875 -11.171875q-4.921875 -4.53125 -12.078125 -6.953125q-7.140625 -2.421875 -16.75 -2.421875q-6.25 0 -11.875 1.71875q-5.625 1.71875 -10.390625 5.078125q-4.0625 2.96875 -7.46875 7.03125q-3.390625 4.0625 -5.96875 9.140625q-2.734375 5.703125 -4.21875 12.703125q-1.484375 6.984375 -1.484375 15.109375l0 15.46875q0 8.515625 1.515625 15.78125q1.53125 7.265625 4.5 13.046875q2.578125 5.234375 6.28125 9.296875q3.71875 4.0625 8.25 6.875q4.609375 2.734375 10.109375 4.171875q5.515625 1.453125 11.765625 1.453125q7.1875 0 13.4375 -1.328125q6.25 -1.328125 11.328125 -3.515625q5.0 -2.109375 8.671875 -4.765625q3.671875 -2.65625 5.78125 -5.234375zm17.65625 13.28125l41.484375 0q9.375 0 16.875 -2.109375q7.5 -2.109375 12.734375 -6.328125q5.234375 -4.21875 8.046875 -10.46875q2.8125 -6.25 2.8125 -14.453125q0 -4.296875 -1.140625 -8.3125q-1.125 -4.03125 -3.46875 -7.46875q-2.265625 -3.203125 -5.59375 -5.625q-3.3125 -2.421875 -8.9375 -3.984375l0 -0.078125q2.890625 -1.09375 5.265625 -2.65625q2.390625 -1.5625 4.265625 -3.4375q3.4375 -3.4375 5.1875 -8.0q1.765625 -4.578125 1.84375 -9.734375q0 -7.96875 -2.9375 -13.828125q-2.921875 -5.859375 -8.3125 -9.6875q-5.390625 -3.828125 -13.015625 -5.703125q-7.609375 -1.875 -16.90625 -1.875l-38.203125 0l0 113.75zm22.03125 -50.15625l20.46875 0q4.609375 0.078125 7.96875 1.25q3.359375 1.171875 5.46875 3.359375q2.109375 2.109375 3.078125 5.15625q0.984375 3.046875 0.984375 6.875q0 3.671875 -1.296875 6.640625q-1.28125 2.96875 -3.78125 5.078125q-2.265625 1.875 -5.671875 2.96875q-3.390625 1.09375 -7.6875 1.09375l-19.53125 0l0 -32.421875zm0 -15.859375l0 -29.84375l16.25 0q5.3125 0.078125 9.25 1.171875q3.953125 1.09375 6.296875 3.515625q1.796875 1.71875 2.6875 4.296875q0.90625 2.578125 0.90625 6.015625q0 3.28125 -1.0625 5.859375q-1.046875 2.578125 -3.0 4.375q-2.34375 2.265625 -6.171875 3.40625q-3.828125 1.125 -8.828125 1.203125l-16.328125 0z" fill-rule="nonzero"/></g></svg>